<svg xmlns="http://www.w3.org/2000/svg" width="456" height="351" viewBox="0 0 456 351">
<style>
    @keyframes swirl {
      from { opacity: 0; transform: rotate(40deg); }
      to   { opacity: 1; transform: rotate(0deg);  }
    }
    @keyframes text {
      from { opacity: 0; }
      to   { opacity: 1; }
    }

    path {
      opacity: 0;
      transform-origin: 27% 34%;
    }

    #swirl-1 { animation: swirl 2s 0s forwards; }
    #swirl-2 { animation: swirl 2s 0.15s forwards; }
    #swirl-3 { animation: swirl 2s 0.3s forwards; }
    #swirl-4 { animation: swirl 2s 0.45s forwards; }
    #swirl-5 { animation: swirl 2s 0.6s forwards; }
    #swirl-6 { animation: swirl 2s 0.75s forwards; }
    #swirl-7 { animation: swirl 2s 1.0s forwards; }
    #swirl-8 { animation: swirl 2s 1.15s forwards; }
    #swirl-9 { animation: swirl 2s 1.3s forwards; }
    #swirl-10 { animation: swirl 2s 1.45s forwards; }
    #swirl-11 { animation: swirl 2s 1.6s forwards; }
    #swirl-12 { animation: swirl 2s 1.75s forwards; }

    #text {
      animation: text  1.5s 1.5s forwards linear;
    }

  </style>
  <g fill="none" fill-rule="evenodd">
    <path id="text" fill="#FFF" fill-rule="nonzero" d="M16.6165,331 C15.9251632,331 15.3660021,330.827168 14.939,330.4815 C14.5119979,330.135832 14.2171675,329.698669 14.0545,329.17 L1.7325,290.13 L1.6105,289.581 C1.6105,289.255665 1.74266535,288.960835 2.007,288.6965 C2.27133466,288.432165 2.58649817,288.3 2.9525,288.3 L10.9435,288.3 C11.5535031,288.3 12.0516647,288.472832 12.438,288.8185 C12.8243353,289.164168 13.0784994,289.540331 13.2005,289.947 L21.4965,317.519 L29.8535,289.947 C29.9755006,289.499664 30.2296647,289.113335 30.616,288.788 C31.0023353,288.462665 31.500497,288.3 32.1105,288.3 L40.1015,288.3 C40.4675018,288.3 40.7724988,288.432165 41.0165,288.6965 C41.2605012,288.960835 41.3825,289.255665 41.3825,289.581 C41.3825,289.784334 41.3621669,289.967333 41.3215,290.13 L28.9385,329.17 C28.8164994,329.698669 28.5420021,330.135832 28.115,330.4815 C27.6879979,330.827168 27.1288368,331 26.4375,331 L16.6165,331 Z M61.5125,331.61 C56.3884744,331.61 52.4540137,330.420512 49.709,328.0415 C47.0554867,325.741789 45.570523,322.501601 45.2540684,318.320847 L45.2081745,317.613568 C45.1843519,317.165272 45.1702751,316.531814 45.1659438,315.713185 L45.1659438,314.566815 C45.1707564,313.657227 45.1876004,312.976246 45.2164763,312.523858 L45.2255,312.395 C45.4695012,308.084312 47.0046525,304.719179 49.831,302.2995 C52.6573475,299.879821 56.5511419,298.67 61.5125,298.67 C66.4738581,298.67 70.3676525,299.879821 73.194,302.2995 C75.9261359,304.638523 77.4517207,307.86102 77.770796,311.967083 L77.8592553,313.26643 C77.9007519,313.963573 77.9215,314.588092 77.9215,315.14 C77.9215,315.691908 77.9007519,316.316427 77.8592553,317.01357 L77.7995,317.885 C77.5554988,322.277022 76.0610137,325.662488 73.316,328.0415 C70.5709863,330.420512 66.6365256,331.61 61.5125,331.61 Z M61.5125,323.924 C63.1798417,323.924 64.4201626,323.405505 65.2335,322.3685 C65.998994,321.392495 66.4582842,319.921192 66.6113823,317.95455 L66.6614054,317.233491 C66.6806559,316.867733 66.6922062,316.347972 66.6960562,315.674203 L66.6960562,314.605797 C66.6907624,313.679365 66.6709104,313.044104 66.6365,312.7 C66.5144994,310.585323 66.0468374,308.999339 65.2335,307.942 C64.4201626,306.884661 63.1798417,306.356 61.5125,306.356 C59.8451583,306.356 58.6048374,306.884661 57.7915,307.942 C56.9781626,308.999339 56.5105006,310.585323 56.3885,312.7 L56.3275,315.14 L56.3885,317.58 C56.5105006,319.735344 56.9781626,321.331495 57.7915,322.3685 C58.6048374,323.405505 59.8451583,323.924 61.5125,323.924 Z M85.3025,331 C84.8551644,331 84.4790015,330.857668 84.174,330.573 C83.8689985,330.288332 83.7165,329.922336 83.7165,329.475 L83.7165,289.215 C83.7165,288.767664 83.8689985,288.401668 84.174,288.117 C84.4790015,287.832332 84.8551644,287.69 85.3025,287.69 L92.9275,287.69 C93.3748356,287.69 93.7408319,287.832332 94.0255,288.117 C94.3101681,288.401668 94.4525,288.767664 94.4525,289.215 L94.4525,329.475 C94.4525,329.881669 94.3101681,330.237498 94.0255,330.5425 C93.7408319,330.847502 93.3748356,331 92.9275,331 L85.3025,331 Z M113.0575,331.61 C109.478815,331.61 106.591511,330.410345 104.3955,328.011 C102.199489,325.611655 101.1015,322.216022 101.1015,317.824 L101.1015,300.805 C101.1015,300.357664 101.253998,299.991668 101.559,299.707 C101.864002,299.422332 102.219831,299.28 102.6265,299.28 L110.7395,299.28 C111.186836,299.28 111.562998,299.422332 111.868,299.707 C112.173002,299.991668 112.3255,300.357664 112.3255,300.805 L112.3255,317.458 C112.3255,321.240019 114.01315,323.131 117.3885,323.131 C119.015175,323.131 120.285995,322.632838 121.201,321.6365 C122.116005,320.640162 122.5735,319.247342 122.5735,317.458 L122.5735,300.805 C122.5735,300.357664 122.725998,299.991668 123.031,299.707 C123.336002,299.422332 123.712164,299.28 124.1595,299.28 L132.2115,299.28 C132.658836,299.28 133.024832,299.422332 133.3095,299.707 C133.594168,299.991668 133.7365,300.357664 133.7365,300.805 L133.7365,329.475 C133.7365,329.881669 133.594168,330.237498 133.3095,330.5425 C133.024832,330.847502 132.658836,331 132.2115,331 L124.7695,331 C124.322164,331 123.946002,330.857668 123.641,330.573 C123.335998,330.288332 123.1835,329.922336 123.1835,329.475 L123.1835,327.157 C121.068823,330.125682 117.693523,331.61 113.0575,331.61 Z M142.2155,331 C141.808831,331 141.453002,330.847502 141.148,330.5425 C140.842998,330.237498 140.6905,329.881669 140.6905,329.475 L140.6905,300.805 C140.6905,300.357664 140.842998,299.991668 141.148,299.707 C141.453002,299.422332 141.808831,299.28 142.2155,299.28 L149.2915,299.28 C149.738836,299.28 150.104832,299.422332 150.3895,299.707 C150.674168,299.991668 150.8165,300.357664 150.8165,300.805 L150.8165,302.879 C151.792505,301.699661 153.053159,300.703337 154.5985,299.89 C156.143841,299.076663 157.89249,298.67 159.8445,298.67 C164.317856,298.67 167.388158,300.418649 169.0555,303.916 C170.031505,302.370659 171.393825,301.110005 173.1425,300.134 C174.891175,299.157995 176.761823,298.67 178.7545,298.67 C182.089183,298.67 184.803656,299.798489 186.898,302.0555 C188.992344,304.312511 190.0395,307.677644 190.0395,312.151 L190.0395,329.475 C190.0395,329.881669 189.897168,330.237498 189.6125,330.5425 C189.327832,330.847502 188.961836,331 188.5145,331 L181.0115,331 C180.564164,331 180.188002,330.857668 179.883,330.573 C179.577998,330.288332 179.4255,329.922336 179.4255,329.475 L179.4255,312.578 C179.4255,310.707324 179.029004,309.334838 178.236,308.4605 C177.442996,307.586162 176.375507,307.149 175.0335,307.149 C173.772827,307.149 172.746004,307.586162 171.953,308.4605 C171.159996,309.334838 170.7635,310.707324 170.7635,312.578 L170.7635,329.475 C170.7635,329.881669 170.621168,330.237498 170.3365,330.5425 C170.051832,330.847502 169.685836,331 169.2385,331 L161.7355,331 C161.288164,331 160.912002,330.857668 160.607,330.573 C160.301998,330.288332 160.1495,329.922336 160.1495,329.475 L160.1495,312.578 C160.1495,310.707324 159.742837,309.334838 158.9295,308.4605 C158.116163,307.586162 157.05884,307.149 155.7575,307.149 C154.496827,307.149 153.459837,307.586162 152.6465,308.4605 C151.833163,309.334838 151.4265,310.686991 151.4265,312.517 L151.4265,329.475 C151.4265,329.881669 151.284168,330.237498 150.9995,330.5425 C150.714832,330.847502 150.348836,331 149.9015,331 L142.2155,331 Z M211.5725,331.61 C206.611142,331.61 202.707181,330.27818 199.8605,327.6145 C197.013819,324.95082 195.549834,321.077359 195.4685,315.994 L195.4685,314.103 C195.631167,309.263642 197.135819,305.48168 199.9825,302.757 C202.829181,300.03232 206.672142,298.67 211.5115,298.67 C215.008851,298.67 217.967321,299.371493 220.387,300.7745 C222.806679,302.177507 224.616327,304.109154 225.816,306.5695 C227.015673,309.029846 227.6155,311.825651 227.6155,314.957 L227.6155,316.482 C227.6155,316.929336 227.463002,317.305498 227.158,317.6105 C226.852998,317.915502 226.476836,318.068 226.0295,318.068 L206.6925,318.068 L206.6925,318.434 C206.733167,320.264009 207.160163,321.738161 207.9735,322.8565 C208.786837,323.974839 209.945826,324.534 211.4505,324.534 C212.426505,324.534 213.20933,324.340835 213.799,323.9545 C214.304431,323.623355 214.787448,323.210053 215.248061,322.714582 L215.4765,322.46 C215.842502,322.053331 216.137332,321.799167 216.361,321.6975 C216.584668,321.595833 216.940498,321.545 217.4285,321.545 L225.4195,321.545 C225.785502,321.545 226.100665,321.656832 226.365,321.8805 C226.629335,322.104168 226.7615,322.378665 226.7615,322.704 C226.7615,323.761339 226.161673,325.00166 224.962,326.425 C223.762327,327.84834 222.013678,329.068328 219.716,330.085 C217.418322,331.101672 214.703849,331.61 211.5725,331.61 Z M206.6925,311.846 L216.3915,311.846 L216.3915,311.724 C216.3915,309.77199 215.964504,308.257172 215.1105,307.1795 C214.256496,306.101828 213.056841,305.563 211.5115,305.563 C209.966159,305.563 208.776671,306.101828 207.943,307.1795 C207.161434,308.189818 206.746232,309.584346 206.697385,311.363121 L206.6925,311.846 Z M248.1725,331 C247.725164,331 247.349002,330.857668 247.044,330.573 C246.738998,330.288332 246.5865,329.922336 246.5865,329.475 L246.5865,289.886 C246.5865,289.438664 246.738998,289.062502 247.044,288.7575 C247.349002,288.452498 247.725164,288.3 248.1725,288.3 L255.0655,288.3 C256.082172,288.3 256.814164,288.747329 257.2615,289.642 L267.7535,308.43 L278.3065,289.642 C278.753836,288.747329 279.485828,288.3 280.5025,288.3 L287.3955,288.3 C287.842836,288.3 288.218998,288.452498 288.524,288.7575 C288.829002,289.062502 288.9815,289.438664 288.9815,289.886 L288.9815,329.475 C288.9815,329.922336 288.829002,330.288332 288.524,330.573 C288.218998,330.857668 287.842836,331 287.3955,331 L279.6485,331 C279.241831,331 278.886002,330.847502 278.581,330.5425 C278.275998,330.237498 278.1235,329.881669 278.1235,329.475 L278.1235,307.271 L271.5355,319.349 C271.006831,320.284338 270.295171,320.752 269.4005,320.752 L266.1065,320.752 C265.293163,320.752 264.581503,320.284338 263.9715,319.349 L257.4445,307.271 L257.4445,329.475 C257.4445,329.922336 257.292002,330.288332 256.987,330.573 C256.681998,330.857668 256.305836,331 255.8585,331 L248.1725,331 Z M306.1835,331.61 C304.028156,331.61 302.066009,331.193171 300.297,330.3595 C298.527991,329.525829 297.145338,328.377007 296.149,326.913 C295.152662,325.448993 294.6545,323.842675 294.6545,322.094 C294.6545,319.328653 295.803322,317.081842 298.101,315.3535 C300.398678,313.625158 303.56048,312.43567 307.5865,311.785 L315.1505,310.626 L315.1505,309.894 C315.1505,308.389326 314.845503,307.291337 314.2355,306.6 C313.625497,305.908663 312.588507,305.563 311.1245,305.563 C310.311163,305.563 309.630003,305.705332 309.081,305.99 C308.531997,306.274668 307.911837,306.701664 307.2205,307.271 C306.691831,307.718336 306.224169,308.043666 305.8175,308.247 C305.654833,308.531668 305.451501,308.674 305.2075,308.674 L298.1315,308.674 C297.724831,308.674 297.389335,308.541835 297.125,308.2775 C296.893707,308.046207 296.779174,307.775999 296.781398,307.466868 L296.7895,307.332 C296.830167,306.233995 297.379161,305.00384 298.4365,303.6415 C299.493839,302.27916 301.100156,301.110005 303.2555,300.134 C305.410844,299.157995 308.074484,298.67 311.2465,298.67 C316.289192,298.67 320.030488,299.778156 322.4705,301.9945 C324.910512,304.210844 326.1305,307.209981 326.1305,310.992 L326.1305,329.475 C326.1305,329.881669 325.988168,330.237498 325.7035,330.5425 C325.418832,330.847502 325.052836,331 324.6055,331 L317.1025,331 C316.695831,331 316.340002,330.847502 316.035,330.5425 C315.729998,330.237498 315.5775,329.881669 315.5775,329.475 L315.5775,327.34 C314.682829,328.600673 313.442508,329.627496 311.8565,330.4205 C310.270492,331.213504 308.379511,331.61 306.1835,331.61 Z M309.2335,324.412 C311.022842,324.412 312.476661,323.822339 313.595,322.643 C314.713339,321.463661 315.2725,319.755678 315.2725,317.519 L315.2725,316.787 L310.2095,317.641 C306.793483,318.29167 305.0855,319.511658 305.0855,321.301 C305.0855,322.236338 305.481996,322.988664 306.275,323.558 C307.068004,324.127336 308.054161,324.412 309.2335,324.412 Z M346.0775,331.61 C342.742817,331.61 339.957178,331.142338 337.7205,330.207 C335.483822,329.271662 333.826672,328.15334 332.749,326.852 C331.671328,325.55066 331.1325,324.371339 331.1325,323.314 C331.1325,322.907331 331.284998,322.571835 331.59,322.3075 C331.895002,322.043165 332.230498,321.911 332.5965,321.911 L339.9775,321.911 C340.221501,321.911 340.424833,321.992333 340.5875,322.155 L341.292814,322.618855 C341.547827,322.790841 341.699055,322.900555 341.7465,322.948 C342.519171,323.517336 343.240997,323.954498 343.912,324.2595 C344.583003,324.564502 345.386162,324.717 346.3215,324.717 C347.419505,324.717 348.32433,324.503502 349.036,324.0765 C349.74767,323.649498 350.1035,323.049671 350.1035,322.277 C350.1035,321.62633 349.910335,321.097669 349.524,320.691 C349.137665,320.284331 348.405672,319.887835 347.328,319.5015 C346.250328,319.115165 344.613511,318.718669 342.4175,318.312 C335.382131,316.88866 331.8645,313.635359 331.8645,308.552 C331.8645,306.884658 332.403328,305.288508 333.481,303.7635 C334.558672,302.238492 336.144656,301.008338 338.239,300.073 C340.333344,299.137662 342.844485,298.67 345.7725,298.67 C348.741182,298.67 351.313322,299.127495 353.489,300.0425 C355.664678,300.957505 357.321828,302.055494 358.4605,303.3365 C359.599172,304.617506 360.1685,305.786661 360.1685,306.844 C360.1685,307.210002 360.036335,307.535332 359.772,307.82 C359.507665,308.104668 359.192502,308.247 358.8265,308.247 L352.1165,308.247 C351.750498,308.247 351.465834,308.165667 351.2625,308.003 C350.774498,307.758999 350.286502,307.454002 349.7985,307.088 C349.066496,306.599998 348.426003,306.223835 347.877,305.9595 C347.327997,305.695165 346.626504,305.563 345.7725,305.563 C344.755828,305.563 343.962836,305.786664 343.3935,306.234 C342.824164,306.681336 342.5395,307.250663 342.5395,307.942 C342.5395,308.552003 342.712332,309.050165 343.058,309.4365 C343.403668,309.822835 344.115328,310.198998 345.193,310.565 L345.623337,310.703204 C346.688614,311.027902 348.18199,311.368165 350.1035,311.724 C354.088853,312.415337 356.986324,313.645491 358.796,315.4145 C360.605676,317.183509 361.5105,319.247322 361.5105,321.606 C361.5105,324.656015 360.158347,327.085824 357.454,328.8955 C354.749653,330.705176 350.957524,331.61 346.0775,331.61 Z M383.4095,331 C374.788124,331 370.4775,326.953707 370.4775,318.861 L370.4775,307.576 L365.6585,307.576 C365.251831,307.576 364.896002,307.423502 364.591,307.1185 C364.285998,306.813498 364.1335,306.457669 364.1335,306.051 L364.1335,300.805 C364.1335,300.357664 364.285998,299.991668 364.591,299.707 C364.896002,299.422332 365.251831,299.28 365.6585,299.28 L370.4775,299.28 L370.4775,289.215 C370.4775,288.767664 370.629998,288.401668 370.935,288.117 C371.240002,287.832332 371.595831,287.69 372.0025,287.69 L379.5055,287.69 C379.952836,287.69 380.318832,287.832332 380.6035,288.117 C380.888168,288.401668 381.0305,288.767664 381.0305,289.215 L381.0305,299.28 L388.6555,299.28 C389.102836,299.28 389.478998,299.422332 389.784,299.707 C390.089002,299.991668 390.2415,300.357664 390.2415,300.805 L390.2415,306.051 C390.2415,306.498336 390.089002,306.864332 389.784,307.149 C389.478998,307.433668 389.102836,307.576 388.6555,307.576 L381.0305,307.576 L381.0305,317.946 C381.0305,319.36934 381.294831,320.446996 381.8235,321.179 C382.352169,321.911004 383.206161,322.277 384.3855,322.277 L389.2045,322.277 C389.651836,322.277 390.017832,322.429498 390.3025,322.7345 C390.587168,323.039502 390.7295,323.415664 390.7295,323.863 L390.7295,329.475 C390.7295,329.881669 390.587168,330.237498 390.3025,330.5425 C390.017832,330.847502 389.651836,331 389.2045,331 L383.4095,331 Z M410.5545,331.61 C405.593142,331.61 401.689181,330.27818 398.8425,327.6145 C395.995819,324.95082 394.531834,321.077359 394.4505,315.994 L394.4505,314.103 C394.613167,309.263642 396.117819,305.48168 398.9645,302.757 C401.811181,300.03232 405.654142,298.67 410.4935,298.67 C413.990851,298.67 416.949321,299.371493 419.369,300.7745 C421.788679,302.177507 423.598327,304.109154 424.798,306.5695 C425.997673,309.029846 426.5975,311.825651 426.5975,314.957 L426.5975,316.482 C426.5975,316.929336 426.445002,317.305498 426.14,317.6105 C425.834998,317.915502 425.458836,318.068 425.0115,318.068 L405.6745,318.068 L405.6745,318.434 C405.715167,320.264009 406.142163,321.738161 406.9555,322.8565 C407.768837,323.974839 408.927826,324.534 410.4325,324.534 C411.408505,324.534 412.19133,324.340835 412.781,323.9545 C413.286431,323.623355 413.769448,323.210053 414.230061,322.714582 L414.4585,322.46 C414.824502,322.053331 415.119332,321.799167 415.343,321.6975 C415.566668,321.595833 415.922498,321.545 416.4105,321.545 L424.4015,321.545 C424.767502,321.545 425.082665,321.656832 425.347,321.8805 C425.611335,322.104168 425.7435,322.378665 425.7435,322.704 C425.7435,323.761339 425.143673,325.00166 423.944,326.425 C422.744327,327.84834 420.995678,329.068328 418.698,330.085 C416.400322,331.101672 413.685849,331.61 410.5545,331.61 Z M405.6745,311.846 L415.3735,311.846 L415.3735,311.724 C415.3735,309.77199 414.946504,308.257172 414.0925,307.1795 C413.238496,306.101828 412.038841,305.563 410.4935,305.563 C408.948159,305.563 407.758671,306.101828 406.925,307.1795 C406.143434,308.189818 405.728232,309.584346 405.679385,311.363121 L405.6745,311.846 Z M433.6125,331 C433.205831,331 432.850002,330.847502 432.545,330.5425 C432.239998,330.237498 432.0875,329.881669 432.0875,329.475 L432.0875,300.866 C432.0875,300.418664 432.229832,300.042502 432.5145,299.7375 C432.799168,299.432498 433.165164,299.28 433.6125,299.28 L441.0545,299.28 C441.501836,299.28 441.877998,299.432498 442.183,299.7375 C442.488002,300.042502 442.6405,300.418664 442.6405,300.866 L442.6405,303.184 C443.779172,301.923327 445.110992,300.957503 446.636,300.2865 C448.161008,299.615497 449.858824,299.28 451.7295,299.28 L454.4745,299.28 C454.921836,299.28 455.287832,299.422332 455.5725,299.707 C455.857168,299.991668 455.9995,300.357664 455.9995,300.805 L455.9995,307.454 C455.9995,307.860669 455.857168,308.216498 455.5725,308.5215 C455.287832,308.826502 454.921836,308.979 454.4745,308.979 L448.3135,308.979 C446.686825,308.979 445.436338,309.426329 444.562,310.321 C443.687662,311.215671 443.2505,312.476325 443.2505,314.103 L443.2505,329.475 C443.2505,329.922336 443.098002,330.288332 442.793,330.573 C442.487998,330.857668 442.111836,331 441.6645,331 L433.6125,331 Z"/>
    <g fill="#FFF" fill-rule="nonzero" transform="translate(105.122 4.122)">
      <path id="swirl-1" d="M169.803036,10.0431334 L170.135179,10.4838454 C171.331158,12.1148548 172.285601,13.9099001 172.968986,15.8134609 L173.2818,16.7265488 C176.562401,26.0688192 185.88755,31.8958191 195.722448,30.7490223 L196.51155,30.6490067 C207.872049,29.3075071 218.256696,37.3147793 219.806684,48.6959938 C220.104728,50.8844609 220.055988,53.1050648 219.663313,55.2762187 L219.486809,56.1751143 C217.627775,65.9368428 222.810435,75.6859806 231.941659,79.6051953 L232.605677,79.8833076 C243.134261,84.3921593 248.136866,96.5312165 243.784683,107.172177 C242.948563,109.216467 241.796051,111.115196 240.370408,112.799133 L239.768103,113.489348 C233.277268,121.013735 232.891014,132.048066 238.839279,140.007818 L239.279611,140.586467 C246.138144,149.755227 244.399817,162.765267 235.312148,169.803036 C233.565902,171.155383 231.618432,172.223475 229.541821,172.968986 L228.628733,173.2818 C219.286462,176.562401 213.459462,185.88755 214.606259,195.722448 L214.706275,196.51155 C216.047774,207.872049 208.040502,218.256696 196.659288,219.806684 C194.47082,220.104728 192.250217,220.055988 190.079063,219.663313 L189.180167,219.486809 C179.418439,217.627775 169.669301,222.810435 165.750086,231.941659 L165.471974,232.605677 C160.963122,243.134261 148.824065,248.136866 138.183105,243.784683 C136.138815,242.948563 134.240085,241.796051 132.556148,240.370408 L131.865934,239.768103 C124.341546,233.277268 113.307215,232.891014 105.347464,238.839279 L104.768814,239.279611 C95.600054,246.138144 82.5900147,244.399817 75.5522451,235.312148 C74.1998982,233.565902 73.1318065,231.618432 72.3862957,229.541821 L72.0734817,228.628733 C68.7928804,219.286462 59.4677313,213.459462 49.6328333,214.606259 L48.8437318,214.706275 C37.4832327,216.047774 27.098585,208.040502 25.5485972,196.659288 C25.2505537,194.47082 25.2992938,192.250217 25.6919684,190.079063 L25.8684726,189.180167 C27.7275067,179.418439 22.5448466,169.669301 13.4136228,165.750086 L12.749604,165.471974 C2.22102005,160.963122 -2.7815845,148.824065 1.5705982,138.183105 C2.4067185,136.138815 3.55923059,134.240085 4.98487371,132.556148 L5.58717861,131.865934 C12.0780136,124.341546 12.4642672,113.307215 6.51600274,105.347464 L6.07567075,104.768814 C-0.782862249,95.600054 0.955464821,82.5900147 10.0431334,75.5522451 C11.7893797,74.1998982 13.7368491,73.1318065 15.8134609,72.3862957 L16.7265488,72.0734817 C26.0688192,68.7928804 31.8958191,59.4677313 30.7490223,49.6328333 L30.6490067,48.8437318 C29.3075071,37.4832327 37.3147793,27.098585 48.6959938,25.5485972 C50.8844609,25.2505537 53.1050648,25.2992938 55.2762187,25.6919684 L56.1751143,25.8684726 C65.9368428,27.7275067 75.6859806,22.5448466 79.6051953,13.4136228 L79.8833076,12.749604 C84.3921593,2.22102005 96.5312165,-2.7815845 107.172177,1.5705982 C109.216467,2.4067185 111.115196,3.55923059 112.799133,4.98487371 L113.489348,5.58717861 C121.013735,12.0780136 132.048066,12.4642672 140.007818,6.51600274 L140.586467,6.07567075 C149.658714,-0.710667164 162.491797,0.919821023 169.578817,9.75859882 L169.803036,10.0431334 Z M161.264201,16.6558698 L161.085789,16.4319099 C157.648313,12.2365517 151.52054,11.4575765 147.142714,14.6594374 L146.546673,15.1118932 C134.378007,24.2610062 117.412556,23.5708652 106.023335,13.4037038 C105.155095,12.6286255 104.160944,12.0074108 103.083697,11.5668136 C97.9420588,9.46386932 92.0813522,11.8511122 89.8539932,16.9029493 L89.5659553,17.5884546 C83.6021381,31.5961518 68.564556,39.4811977 53.6176207,36.370788 C52.4781636,36.1336706 51.3065958,36.0927586 50.1533738,36.2498139 C44.6491127,36.9994296 40.7672134,41.9971959 41.3641824,47.4858946 L41.3984107,47.7653858 C43.479408,63.0456853 34.3625741,77.6356693 19.7164827,82.4637238 C18.6111252,82.8281026 17.5760617,83.3784557 16.6558698,84.0910805 C12.2651094,87.4914202 11.4014035,93.7579379 14.6594374,98.2125678 L15.1118932,98.8086084 C24.2610062,110.977274 23.5708652,127.942725 13.4037038,139.331946 C12.6286255,140.200186 12.0074108,141.194338 11.5668136,142.271585 C9.46386932,147.413223 11.8511122,153.273929 16.9029493,155.501288 L17.5884546,155.789326 C31.5961518,161.753143 39.4811977,176.790725 36.370788,191.737661 C36.1336706,192.877118 36.0927586,194.048686 36.2498139,195.201908 C36.9994296,200.706169 41.9971959,204.588068 47.4858946,203.991099 L47.7653858,203.956871 C63.0456853,201.875873 77.6356693,210.992707 82.4637238,225.638799 C82.8281026,226.744156 83.3784557,227.77922 84.0910805,228.699412 C87.4914202,233.090172 93.7579379,233.953878 98.2125678,230.695844 L98.8086084,230.243388 C110.977274,221.094275 127.942725,221.784416 139.331946,231.951578 C140.200186,232.726656 141.194338,233.347871 142.271585,233.788468 C147.413223,235.891412 153.273929,233.504169 155.501288,228.452332 L155.789326,227.766827 C161.753143,213.75913 176.790725,205.874084 191.737661,208.984493 C192.877118,209.221611 194.048686,209.262523 195.201908,209.105467 C200.706169,208.355852 204.588068,203.358085 203.991099,197.869387 L203.956871,197.589896 C201.875873,182.309596 210.992707,167.719612 225.638799,162.891558 C226.744156,162.527179 227.77922,161.976826 228.699412,161.264201 C233.090172,157.863861 233.953878,151.597343 230.695844,147.142714 L230.243388,146.546673 C221.094275,134.378007 221.784416,117.412556 231.951578,106.023335 C232.726656,105.155095 233.347871,104.160944 233.788468,103.083697 C235.891412,97.9420588 233.504169,92.0813522 228.452332,89.8539932 L227.766827,89.5659553 C213.75913,83.6021381 205.874084,68.564556 208.984493,53.6176207 C209.221611,52.4781636 209.262523,51.3065958 209.105467,50.1533738 C208.355852,44.6491127 203.358085,40.7672134 197.869387,41.3641824 L197.589896,41.3984107 C182.309596,43.479408 167.719612,34.3625741 162.891558,19.7164827 C162.567665,18.7339427 162.09683,17.8069436 161.4957,16.9667938 L161.264201,16.6558698 Z"/>
      <path id="swirl-2" d="M148.208926,23.1615316 L148.562621,23.5159568 C149.724102,24.7134059 150.70959,26.0698143 151.489514,27.5444807 L151.896021,28.3430887 C155.722301,35.6927059 164.123327,39.4330835 172.145438,37.3587099 L172.874035,37.1613911 C182.128375,34.7493396 191.652449,40.1780419 194.261148,49.4245162 C194.75997,51.1925773 194.978836,53.0267889 194.910747,54.8605557 L194.865201,55.7170935 C194.485151,64.0216281 199.909796,71.4898129 207.924263,73.696754 L208.594314,73.8737535 C217.831336,76.4007573 223.378439,85.873749 221.01205,95.1950392 C220.560012,96.9756358 219.83245,98.6735426 218.856599,100.227587 L218.388887,100.946597 C213.907487,107.94851 214.871274,117.128471 220.708536,123.046971 L221.202987,123.537981 C227.936329,130.345144 228.002861,141.320556 221.29375,148.208926 C220.011975,149.524949 218.532934,150.631598 216.910801,151.489514 L216.112193,151.896021 C208.762576,155.722301 205.022198,164.123327 207.096571,172.145438 L207.29389,172.874035 C209.705942,182.128375 204.277239,191.652449 195.030765,194.261148 C193.262704,194.75997 191.428492,194.978836 189.594726,194.910747 L188.738188,194.865201 C180.433653,194.485151 172.965468,199.909796 170.758527,207.924263 L170.581528,208.594314 C168.054524,217.831336 158.581532,223.378439 149.260242,221.01205 C147.479646,220.560012 145.781739,219.83245 144.227695,218.856599 L143.508684,218.388887 C136.506771,213.907487 127.326811,214.871274 121.408311,220.708536 L120.917301,221.202987 C114.110138,227.936329 103.134725,228.002861 96.2463554,221.29375 C94.9303329,220.011975 93.8236836,218.532934 92.9657669,216.910801 L92.55926,216.112193 C88.7329801,208.762576 80.3319542,205.022198 72.3098432,207.096571 L71.5812469,207.29389 C62.3269066,209.705942 52.802832,204.277239 50.1941331,195.030765 C49.6953117,193.262704 49.4764458,191.428492 49.5445347,189.594726 L49.5900801,188.738188 C49.9701304,180.433653 44.5454855,172.965468 36.5310189,170.758527 L35.8609676,170.581528 C26.6239451,168.054524 21.0768427,158.581532 23.443231,149.260242 C23.8952695,147.479646 24.6228318,145.781739 25.5986819,144.227695 L26.0663944,143.508684 C30.5477949,136.506771 29.584007,127.326811 23.7467458,121.408311 L23.2522946,120.917301 C16.5189522,114.110138 16.4524207,103.134725 23.1615316,96.2463554 C24.4433068,94.9303329 25.9223476,93.8236836 27.5444807,92.9657669 L28.3430887,92.55926 C35.6927059,88.7329801 39.4330835,80.3319542 37.3587099,72.3098432 L37.1613911,71.5812469 C34.7493396,62.3269066 40.1780419,52.802832 49.4245162,50.1941331 C51.1925773,49.6953117 53.0267889,49.4764458 54.8605557,49.5445347 L55.7170935,49.5900801 C64.0216281,49.9701304 71.4898129,44.5454855 73.696754,36.5310189 L73.8737535,35.8609676 C76.4007573,26.6239451 85.873749,21.0768427 95.1950392,23.443231 C96.9756358,23.8952695 98.6735426,24.6228318 100.227587,25.5986819 L100.946597,26.0663944 C107.94851,30.5477949 117.128471,29.584007 123.046971,23.7467458 L123.537981,23.2522946 C130.265991,16.5972469 141.065878,16.4548694 147.966989,22.9302411 L148.208926,23.1615316 Z M141.929408,29.6088299 L141.738013,29.4279269 C138.32045,26.2935944 133.007102,26.4247836 129.749524,29.7694003 C120.731934,39.0279285 106.39247,40.5350669 95.6469799,33.353722 C94.8321572,32.8091658 93.9303736,32.4076659 92.9804666,32.1665138 C88.4536021,31.0172825 83.8535721,33.6847162 82.5799737,38.1458415 L82.4116082,38.7816469 C79.0918228,51.0961803 67.5347396,59.3886552 54.7711539,58.5508998 C53.7932186,58.4867117 52.8115011,58.5898943 51.8682815,58.856004 C47.3798148,60.1223308 44.7309621,64.7208684 45.8459649,69.2148905 L46.0321439,69.9039278 C49.294213,82.2181613 43.4319642,95.1592296 31.970239,100.810209 C31.0912282,101.243588 30.2926272,101.823805 29.6088299,102.525873 C26.2897878,105.933596 26.3616777,111.386716 29.7694003,114.705758 C39.0279285,123.723348 40.5350669,138.062811 33.353722,148.808301 C32.8091658,149.623124 32.4076659,150.524908 32.1665138,151.474815 C31.0172825,156.001679 33.6847162,160.601709 38.1458415,161.875308 L38.7816469,162.043673 C51.0961803,165.363459 59.3886552,176.920542 58.5508998,189.684127 C58.4867117,190.662063 58.5898943,191.64378 58.856004,192.587 C60.1223308,197.075467 64.7208684,199.724319 69.2148905,198.609316 L69.9039278,198.423137 C82.2181613,195.161068 95.1592296,201.023317 100.810209,212.485042 C101.243588,213.364053 101.823805,214.162654 102.525873,214.846452 C105.933596,218.165494 111.386716,218.093604 114.705758,214.685881 C123.723348,205.427353 138.062811,203.920215 148.808301,211.101559 C149.623124,211.646116 150.524908,212.047615 151.474815,212.288768 C156.001679,213.437999 160.601709,210.770565 161.875308,206.30944 L162.043673,205.673634 C165.363459,193.359101 176.920542,185.066626 189.684127,185.904382 C190.662063,185.96857 191.64378,185.865387 192.587,185.599277 C197.075467,184.332951 199.724319,179.734413 198.609316,175.240391 L198.423137,174.551354 C195.161068,162.23712 201.023317,149.296052 212.485042,143.645073 C213.364053,143.211693 214.162654,142.631476 214.846452,141.929408 C218.165494,138.521686 218.093604,133.068566 214.685881,129.749524 C205.427353,120.731934 203.920215,106.39247 211.101559,95.6469799 C211.646116,94.8321572 212.047615,93.9303736 212.288768,92.9804666 C213.437999,88.4536021 210.770565,83.8535721 206.30944,82.5799737 L205.673634,82.4116082 C193.359101,79.0918228 185.066626,67.5347396 185.904382,54.7711539 C185.96857,53.7932186 185.865387,52.8115011 185.599277,51.8682815 C184.332951,47.3798148 179.734413,44.7309621 175.240391,45.8459649 L174.551354,46.0321439 C162.23712,49.294213 149.296052,43.4319642 143.645073,31.970239 C143.265866,31.2011045 142.774236,30.4935338 142.186923,29.8705681 L141.929408,29.6088299 Z"/>
      <path id="swirl-3" d="M132.533558,38.1004254 C133.744767,38.9883477 134.810137,40.0582694 135.69227,41.2714611 L136.161102,41.9399041 C140.20528,47.5825718 147.607683,49.7051765 154.027499,47.0630109 L154.689014,46.7812874 C161.954422,43.78828 170.319124,47.1283894 173.501723,54.3595826 C174.106699,55.7341499 174.494377,57.1934146 174.65173,58.6851357 L174.720755,59.4700249 C175.390811,66.4015041 180.759159,71.9605903 187.663031,72.8721434 L188.311754,72.9502972 C196.119481,73.9736118 201.712351,81.0584726 200.851617,88.9245082 C200.689891,90.4024774 200.302218,91.8458498 199.702998,93.2044079 L199.495442,93.6540504 C196.407295,100.054928 198.247153,107.727736 203.859388,112.03751 L204.388877,112.434735 C210.633091,117.226072 211.931606,126.154039 207.254856,132.533558 C206.366934,133.744767 205.297012,134.810137 204.08382,135.69227 L203.415377,136.161102 C197.77271,140.20528 195.650105,147.607683 198.29227,154.027499 L198.573994,154.689014 C201.567001,161.954422 198.226892,170.319124 190.995699,173.501723 C189.621131,174.106699 188.161867,174.494377 186.670146,174.65173 L185.885256,174.720755 C178.953777,175.390811 173.394691,180.759159 172.483138,187.663031 L172.404984,188.311754 C171.38167,196.119481 164.296809,201.712351 156.430773,200.851617 C154.952804,200.689891 153.509432,200.302218 152.150874,199.702998 L151.701231,199.495442 C145.300353,196.407295 137.627545,198.247153 133.317772,203.859388 L132.920547,204.388877 C128.12921,210.633091 119.201243,211.931606 112.821723,207.254856 C111.610515,206.366934 110.545144,205.297012 109.663012,204.08382 L109.194179,203.415377 C105.150001,197.77271 97.7475985,195.650105 91.3277825,198.29227 L90.666267,198.573994 C83.4008598,201.567001 75.0361575,198.226892 71.8535579,190.995699 C71.248582,189.621131 70.8609048,188.161867 70.7035515,186.670146 L70.6345262,185.885256 C69.96447,178.953777 64.5961228,173.394691 57.6922508,172.483138 L57.0435271,172.404984 C49.2358007,171.38167 43.6429302,164.296809 44.5036648,156.430773 C44.6653904,154.952804 45.0530632,153.509432 45.6522837,152.150874 L45.8598392,151.701231 C48.9479861,145.300353 47.1081286,137.627545 41.4958935,133.317772 L40.9664044,132.920547 C34.7221901,128.12921 33.4236755,119.201243 38.1004254,112.821723 C38.9883477,111.610515 40.0582694,110.545144 41.2714611,109.663012 L41.9399041,109.194179 C47.5825718,105.150001 49.7051765,97.7475985 47.0630109,91.3277825 L46.7812874,90.666267 C43.78828,83.4008598 47.1283894,75.0361575 54.3595826,71.8535579 C55.7341499,71.248582 57.1934146,70.8609048 58.6851357,70.7035515 L59.4700249,70.6345262 C66.4015041,69.96447 71.9605903,64.5961228 72.8721434,57.6922508 L72.9502972,57.0435271 C73.9736118,49.2358007 81.0584726,43.6429302 88.9245082,44.5036648 C90.4024774,44.6653904 91.8458498,45.0530632 93.2044079,45.6522837 L93.6540504,45.8598392 C100.054928,48.9479861 107.727736,47.1081286 112.03751,41.4958935 L112.434735,40.9664044 C117.226072,34.7221901 126.154039,33.4236755 132.533558,38.1004254 Z M128.276666,43.9072203 C125.01676,41.5174219 120.43677,42.2227836 118.046971,45.4826897 C111.726305,54.1046628 100.154033,56.9899545 90.5254447,52.344577 C89.7754198,51.9827224 88.9691397,51.7515253 88.1413289,51.6609427 C84.2036294,51.2300631 80.654271,54.007428 80.100055,57.9004615 L80.0263228,58.5099441 C78.7072186,68.9590257 70.2038123,77.0614407 59.6664903,77.8435188 C58.8360224,77.9051559 58.0221648,78.1080734 57.2599683,78.4435321 C53.6408148,80.0363974 51.9552158,84.2043493 53.4080023,87.8483212 L53.6734658,88.4725044 C57.7297091,98.1721472 54.4138614,109.417943 45.6913228,115.355727 C45.0029351,115.824341 44.3995725,116.407001 43.9072203,117.078615 C41.5174219,120.338521 42.2227836,124.918512 45.4826897,127.30831 C54.1046628,133.628976 56.9899545,145.201249 52.344577,154.829837 C51.9827224,155.579862 51.7515253,156.386142 51.6609427,157.213953 C51.2300631,161.151652 54.007428,164.70101 57.9004615,165.255226 L58.5099441,165.328959 C68.9590257,166.648063 77.0614407,175.151469 77.8435188,185.688791 C77.9051559,186.519259 78.1080734,187.333117 78.4435321,188.095313 C80.0363974,191.714467 84.2043493,193.400066 87.8483212,191.947279 L88.4725044,191.681816 C98.1721472,187.625572 109.417943,190.94142 115.355727,199.663959 C115.824341,200.352346 116.407001,200.955709 117.078615,201.448061 C120.267654,203.785907 124.720005,203.161703 127.149384,200.081567 L127.30831,199.872592 C133.628976,191.250619 145.201249,188.365327 154.829837,193.010704 C155.579862,193.372559 156.386142,193.603756 157.213953,193.694339 C161.151652,194.125218 164.70101,191.347853 165.255226,187.45482 L165.328959,186.845337 C166.648063,176.396256 175.151469,168.293841 185.688791,167.511763 C186.519259,167.450125 187.333117,167.247208 188.095313,166.911749 C191.714467,165.318884 193.400066,161.150932 191.947279,157.50696 L191.681816,156.882777 C187.625572,147.183134 190.94142,135.937338 199.663959,129.999554 C200.352346,129.530941 200.955709,128.94828 201.448061,128.276666 C203.785907,125.087628 203.161703,120.635276 200.081567,118.205897 L199.872592,118.046971 C191.250619,111.726305 188.365327,100.154033 193.010704,90.5254447 C193.372559,89.7754198 193.603756,88.9691397 193.694339,88.1413289 C194.125218,84.2036294 191.347853,80.654271 187.45482,80.100055 L186.845337,80.0263228 C176.396256,78.7072186 168.293841,70.2038123 167.511763,59.6664903 C167.450125,58.8360224 167.247208,58.0221648 166.911749,57.2599683 C165.318884,53.6408148 161.150932,51.9552158 157.50696,53.4080023 L156.882777,53.6734658 C147.183134,57.7297091 135.937338,54.4138614 129.999554,45.6913228 C129.530941,45.0029351 128.94828,44.3995725 128.276666,43.9072203 Z"/>
      <path id="swirl-4" d="M120.849087,52.9750223 C121.736029,53.4957232 122.55005,54.1317069 123.269855,54.8663331 L123.800364,55.431498 C127.795377,59.6035973 134.137115,60.4948705 139.127355,57.5855661 L139.6884,57.2485784 C145.117282,54.0879702 152.108632,55.8100563 155.435109,61.1844717 C156.054616,62.185376 156.518243,63.273736 156.810878,64.4121441 L156.982284,65.1445133 C158.349888,70.7744782 163.413662,74.7307322 169.207246,74.6957009 L169.814057,74.6846162 C176.106936,74.648774 181.313878,79.6405844 181.507736,85.9664398 C181.543793,87.1430017 181.401126,88.3173628 181.085351,89.4495708 L180.867608,90.1695237 C179.237006,95.7290184 181.644236,101.687122 186.679142,104.553576 L187.214202,104.849664 C192.678895,107.966163 194.69062,114.890648 191.69631,120.464567 C191.139255,121.501528 190.428521,122.447221 189.588948,123.269855 L189.023783,123.800364 C184.851684,127.795377 183.960411,134.137115 186.869715,139.127355 L187.206703,139.6884 C190.367311,145.117282 188.645225,152.108632 183.27081,155.435109 C182.269905,156.054616 181.181545,156.518243 180.043137,156.810878 L179.310768,156.982284 C173.680803,158.349888 169.724549,163.413662 169.759581,169.207246 L169.770665,169.814057 C169.806507,176.106936 164.814697,181.313878 158.488842,181.507736 C157.31228,181.543793 156.137919,181.401126 155.005711,181.085351 L154.285758,180.867608 C148.726263,179.237006 142.768159,181.644236 139.901705,186.679142 L139.605617,187.214202 C136.489118,192.678895 129.564633,194.69062 123.990714,191.69631 C122.953753,191.139255 122.00806,190.428521 121.185427,189.588948 L120.654918,189.023783 C116.659905,184.851684 110.318166,183.960411 105.327927,186.869715 L104.766881,187.206703 C99.3379992,190.367311 92.346649,188.645225 89.0201722,183.27081 C88.4006658,182.269905 87.9370382,181.181545 87.644403,180.043137 L87.4729978,179.310768 C86.1053937,173.680803 81.0416195,169.724549 75.2480352,169.759581 L74.6412243,169.770665 C68.3483457,169.806507 63.141403,164.814697 62.9475449,158.488842 C62.9114888,157.31228 63.0541554,156.137919 63.36993,155.005711 L63.5876734,154.285758 C65.2182759,148.726263 62.8110458,142.768159 57.776139,139.901705 L57.241079,139.605617 C51.7763863,136.489118 49.7646609,129.564633 52.7589714,123.990714 C53.3160267,122.953753 54.0267603,122.00806 54.8663331,121.185427 L55.431498,120.654918 C59.6035973,116.659905 60.4948705,110.318166 57.5855661,105.327927 L57.2485784,104.766881 C54.0879702,99.3379992 55.8100563,92.346649 61.1844717,89.0201722 C62.185376,88.4006658 63.273736,87.9370382 64.4121441,87.644403 L65.1445133,87.4729978 C70.7744782,86.1053937 74.7307322,81.0416195 74.6957009,75.2480352 L74.6846162,74.6412243 C74.648774,68.3483457 79.6405844,63.141403 85.9664398,62.9475449 C87.1430017,62.9114888 88.3173628,63.0541554 89.4495708,63.36993 L90.1695237,63.5876734 C95.7290184,65.2182759 101.687122,62.8110458 104.553576,57.776139 L104.849664,57.241079 C107.915897,51.8645265 114.668268,49.8304536 120.193829,52.6179858 L120.464567,52.7589714 L120.849087,52.9750223 Z M117.701016,57.4091292 C114.774501,55.9732939 111.228001,57.0397137 109.57848,59.8506143 L109.461205,60.0593922 C105.375962,67.6640863 96.4466941,71.2717447 88.2253519,68.6392338 C87.5493377,68.422771 86.8413389,68.3232683 86.1318471,68.3450109 C82.7646164,68.4482009 80.1025618,71.2013074 80.0845658,74.5428556 L80.094902,75.1304819 C80.1866996,83.6097494 74.3055693,91.0144421 65.9865913,92.8198634 C65.2929145,92.9704082 64.6300182,93.2382357 64.0264516,93.6118112 C61.1682907,95.3808606 60.2372142,99.083613 61.8773027,101.983621 L62.2106535,102.539894 C66.5059415,109.832402 65.1097517,119.165934 58.8175746,124.880283 C58.2921052,125.357497 57.8519339,125.920891 57.5160177,126.5462 C55.8855345,129.58135 57.0242421,133.363593 60.0593922,134.994076 C67.6640863,139.079319 71.2717447,148.008587 68.6392338,156.22993 C68.422771,156.905944 68.3232683,157.613943 68.3450109,158.323434 C68.4482009,161.690665 71.2013074,164.35272 74.5428556,164.370716 L75.1304819,164.360379 C83.6097494,164.268582 91.0144421,170.149712 92.8198634,178.46869 C92.9704082,179.162367 93.2382357,179.825263 93.6118112,180.42883 C95.3808606,183.286991 99.083613,184.218067 101.983621,182.577979 L102.539894,182.244628 C109.832402,177.94934 119.165934,179.34553 124.880283,185.637707 C125.357497,186.163176 125.920891,186.603348 126.5462,186.939264 C129.58135,188.569747 133.363593,187.431039 134.994076,184.395889 C139.079319,176.791195 148.008587,173.183537 156.22993,175.816048 C156.905944,176.03251 157.613943,176.132013 158.323434,176.110271 C161.690665,176.007081 164.35272,173.253974 164.370716,169.912426 L164.360379,169.3248 C164.268582,160.845532 170.149712,153.440839 178.46869,151.635418 C179.162367,151.484873 179.825263,151.217046 180.42883,150.84347 C183.286991,149.074421 184.218067,145.371668 182.577979,142.47166 L182.244628,141.915387 C177.94934,134.62288 179.34553,125.289347 185.637707,119.574998 C186.163176,119.097784 186.603348,118.534391 186.939264,117.909081 C188.569747,114.873931 187.431039,111.091688 184.395889,109.461205 C176.791195,105.375962 173.183537,96.4466941 175.816048,88.2253519 C176.03251,87.5493377 176.132013,86.8413389 176.110271,86.1318471 C176.007081,82.7646164 173.253974,80.1025618 169.912426,80.0845658 L169.3248,80.094902 C160.845532,80.1866996 153.440839,74.3055693 151.635418,65.9865913 C151.484873,65.2929145 151.217046,64.6300182 150.84347,64.0264516 C149.074421,61.1682907 145.371668,60.2372142 142.47166,61.8773027 L141.915387,62.2106535 C134.62288,66.5059415 125.289347,65.1097517 119.574998,58.8175746 C119.165958,58.3671722 118.693601,57.9794379 118.17321,57.6663095 L117.909081,57.5160177 L117.701016,57.4091292 Z"/>
      <path id="swirl-5" d="M113.604536,67.3705484 C114.437188,67.7186386 115.213975,68.1892235 115.908896,68.7672926 C119.75146,71.9637209 125.292168,72.0289541 129.204044,68.9629923 L129.666554,68.5897651 C133.516411,65.5816166 139.086341,66.1588143 142.232528,69.9409813 C142.893178,70.7351776 143.413441,71.6362994 143.77091,72.6055376 C145.503174,77.302381 150.281225,80.1307398 155.210208,79.4192676 L155.759201,79.3327381 C160.602955,78.6436518 165.146546,81.9302562 165.980999,86.7837975 C166.134161,87.674652 166.153306,88.5826613 166.038435,89.4778045 L165.936014,90.1450734 C165.238224,94.9792682 167.945426,99.6682808 172.480857,101.481074 L172.999564,101.680634 C177.53892,103.505745 179.830484,108.623823 178.126371,113.24434 C177.768902,114.213578 177.248639,115.1147 176.587989,115.908896 C173.391561,119.75146 173.326327,125.292168 176.392289,129.204044 L176.765516,129.666554 C179.773665,133.516411 179.196467,139.086341 175.4143,142.232528 C174.620104,142.893178 173.718982,143.413441 172.749744,143.77091 C168.0529,145.503174 165.224542,150.281225 165.936014,155.210208 L166.022543,155.759201 C166.71163,160.602955 163.425025,165.146546 158.571484,165.980999 C157.680629,166.134161 156.77262,166.153306 155.877477,166.038435 L155.210208,165.936014 C150.376013,165.238224 145.687001,167.945426 143.874207,172.480857 L143.674647,172.999564 C141.849537,177.53892 136.731458,179.830484 132.110941,178.126371 C131.141703,177.768902 130.240581,177.248639 129.446385,176.587989 C125.603821,173.391561 120.063114,173.326327 116.151238,176.392289 L115.688727,176.765516 C111.838871,179.773665 106.268941,179.196467 103.122754,175.4143 C102.462103,174.620104 101.94184,173.718982 101.584371,172.749744 C99.8521078,168.0529 95.0740563,165.224542 90.1450734,165.936014 L89.5960802,166.022543 C84.7523269,166.71163 80.2087351,163.425025 79.3742819,158.571484 C79.2211203,157.680629 79.2019751,156.77262 79.3168463,155.877477 L79.4192676,155.210208 C80.1170576,150.376013 77.4098549,145.687001 72.8744244,143.874207 L72.3557176,143.674647 C67.816361,141.849537 65.5247974,136.731458 67.2289104,132.110941 C67.5863793,131.141703 68.1066422,130.240581 68.7672926,129.446385 C71.9637209,125.603821 72.0289541,120.063114 68.9629923,116.151238 L68.5897651,115.688727 C65.5816166,111.838871 66.1588143,106.268941 69.9409813,103.122754 C70.7351776,102.462103 71.6362994,101.94184 72.6055376,101.584371 C77.302381,99.8521078 80.1307398,95.0740563 79.4192676,90.1450734 L79.3327381,89.5960802 C78.6436518,84.7523269 81.9302562,80.2087351 86.7837975,79.3742819 C87.674652,79.2211203 88.5826613,79.2019751 89.4778045,79.3168463 L90.1450734,79.4192676 C94.9792682,80.1170576 99.6682808,77.4098549 101.481074,72.8744244 L101.680634,72.3557176 C103.472561,67.8988948 108.4388,65.60887 112.991841,67.1399109 L113.24434,67.2289104 L113.604536,67.3705484 Z M111.785151,70.5326508 C109.076505,69.6565833 106.141711,71.0083992 105.046688,73.6354654 L104.844195,74.1596297 C102.382736,80.3884055 95.8808436,84.0621471 89.2505757,82.9222272 C88.6361524,82.8165915 88.0082072,82.8165915 87.3937839,82.9222272 C84.4842118,83.4224603 82.5077293,86.131435 82.8891754,89.0326552 L82.9744179,89.5765337 C83.9571198,96.2015412 80.1631869,102.634041 73.8512465,104.961975 C73.2663225,105.177704 72.7225059,105.491676 72.2432177,105.890371 C69.9168296,107.825572 69.5997096,111.280272 71.5349102,113.60666 C75.9077738,118.863468 75.9077738,126.491814 71.5349102,131.748621 C71.1362153,132.22791 70.8222427,132.771726 70.6065143,133.35665 C69.5855813,136.124799 70.9410462,139.188869 73.6409289,140.310867 L74.1596297,140.511087 C80.3884055,142.972546 84.0621471,149.474438 82.9222272,156.104706 C82.8165915,156.719129 82.8165915,157.347074 82.9222272,157.961497 C83.4224603,160.87107 86.131435,162.847552 89.0326552,162.466106 L89.5765337,162.380863 C96.2015412,161.398162 102.634041,165.192094 104.961975,171.504035 C105.177704,172.088959 105.491676,172.632775 105.890371,173.112064 C107.825572,175.438452 111.280272,175.755572 113.60666,173.820371 C118.863468,169.447508 126.491814,169.447508 131.748621,173.820371 C132.22791,174.219066 132.771726,174.533039 133.35665,174.748767 C136.124799,175.7697 139.188869,174.414235 140.310867,171.714353 L140.511087,171.195652 C142.972546,164.966876 149.474438,161.293134 156.104706,162.433054 C156.719129,162.53869 157.347074,162.53869 157.961497,162.433054 C160.87107,161.932821 162.847552,159.223846 162.466106,156.322626 L162.380863,155.778748 C161.398162,149.15374 165.192094,142.721241 171.504035,140.393306 C172.088959,140.177578 172.632775,139.863605 173.112064,139.46491 C175.438452,137.52971 175.755572,134.075009 173.820371,131.748621 C169.447508,126.491814 169.447508,118.863468 173.820371,113.60666 C174.219066,113.127372 174.533039,112.583555 174.748767,111.998631 C175.7697,109.230482 174.414235,106.166412 171.714353,105.044415 L171.195652,104.844195 C164.966876,102.382736 161.293134,95.8808436 162.433054,89.2505757 C162.53869,88.6361524 162.53869,88.0082072 162.433054,87.3937839 C161.932821,84.4842118 159.223846,82.5077293 156.322626,82.8891754 L155.778748,82.9744179 C149.15374,83.9571198 142.721241,80.1631869 140.393306,73.8512465 C140.177578,73.2663225 139.863605,72.7225059 139.46491,72.2432177 C137.52971,69.9168296 134.075009,69.5997096 131.748621,71.5349102 C126.491814,75.9077738 118.863468,75.9077738 113.60666,71.5349102 C113.207253,71.2026645 112.763035,70.9292537 112.287559,70.7225029 L111.998631,70.6065143 L111.785151,70.5326508 Z"/>
      <path id="swirl-6" d="M109.083687,79.9489504 C109.615711,80.091982 110.130904,80.3004834 110.628892,80.576368 L111.151546,80.8856442 C114.764654,82.9630505 119.344611,82.3253763 122.241322,79.3241154 L122.616634,78.9245912 C125.156656,76.3267683 129.318071,76.1854375 132.03007,78.6483853 C132.519795,79.0931378 132.94176,79.6069937 133.293754,80.1924946 L133.446203,80.4609535 C135.482706,84.2519106 139.883659,86.0918475 143.995519,84.9086636 L144.485752,84.7602671 C147.989052,83.7703046 151.672866,85.7292481 152.79171,89.2234022 C152.993582,89.8538511 153.101961,90.5098676 153.113908,91.1705595 L153.107508,91.7750397 C153.103625,95.9627072 155.959738,99.6183651 160.023954,100.627686 L160.527708,100.745557 C164.053723,101.641949 166.262071,105.178701 165.484309,108.762455 C165.344005,109.408946 165.109975,110.031306 164.778913,110.628892 L164.469637,111.151546 C162.392231,114.764654 163.029905,119.344611 166.031166,122.241322 L166.43069,122.616634 C169.028513,125.156656 169.169844,129.318071 166.706896,132.03007 C166.262144,132.519795 165.748288,132.94176 165.162787,133.293754 L164.894328,133.446203 C161.103371,135.482706 159.263434,139.883659 160.446618,143.995519 L160.595014,144.485752 C161.584977,147.989052 159.626033,151.672866 156.131879,152.79171 C155.50143,152.993582 154.845414,153.101961 154.184722,153.113908 L153.580242,153.107508 C149.392574,153.103625 145.736916,155.959738 144.727595,160.023954 L144.609724,160.527708 C143.713332,164.053723 140.176581,166.26207 136.592827,165.484308 C135.946336,165.344004 135.323976,165.109974 134.726389,164.778913 L134.203737,164.469637 C130.590629,162.392231 126.010673,163.029904 123.113962,166.031164 L122.738649,166.43069 C120.198626,169.028513 116.03721,169.169844 113.325211,166.706895 C112.835486,166.262143 112.413521,165.748287 112.061527,165.162786 L111.909078,164.894328 C109.872575,161.103371 105.471623,159.263434 101.359762,160.446618 L100.869529,160.595014 C97.3662293,161.584977 93.6824157,159.626033 92.5635718,156.131879 C92.3616992,155.50143 92.2533209,154.845414 92.2413729,154.184722 L92.2477734,153.580242 C92.251656,149.392574 89.395543,145.736916 85.3313278,144.727595 L84.8275731,144.609724 C81.3015586,143.713332 79.093211,140.176581 79.870973,136.592827 C80.0112773,135.946336 80.245307,135.323976 80.5763687,134.726389 L80.8856444,134.203737 C82.9630509,130.590629 82.3253772,126.010673 79.3241171,123.113962 L78.9245913,122.738649 C76.3267681,120.198626 76.1854378,116.03721 78.6483863,113.325211 C79.0931388,112.835486 79.6069947,112.413521 80.1924955,112.061527 L80.4609535,111.909078 C84.2519106,109.872575 86.0918475,105.471623 84.9086637,101.359762 L84.7602671,100.869529 C83.7703046,97.3662293 85.7292481,93.6824157 89.2234022,92.5635718 C89.8538511,92.3616992 90.5098676,92.2533209 91.1705595,92.2413729 L91.7750397,92.2477734 C95.9627072,92.2516559 99.6183651,89.395543 100.627686,85.3313278 L100.745557,84.827573 C101.62203,81.3799141 105.022816,79.1920099 108.523636,79.8235273 L108.762455,79.8709725 L109.083687,79.9489504 Z M108.162555,81.5876543 C105.61942,81.1513584 103.157804,82.7350445 102.500657,85.2302503 L102.448789,85.4463315 C101.353323,90.493997 96.8763641,94.0694062 91.7376233,94.047689 L91.1626575,94.0419743 C90.6908575,94.0543354 90.222708,94.133616 89.7723165,94.2778334 C87.2179987,95.0957375 85.7801816,97.7790471 86.4816989,100.341356 L86.6285403,100.827671 C88.038211,105.666478 85.9466803,110.846923 81.5907973,113.340587 L81.1016132,113.614918 C80.6852856,113.865429 80.307699,114.175493 79.9808908,114.535348 C78.1834718,116.51452 78.2736127,119.544217 80.1541022,121.422422 L80.5642164,121.809367 C84.1791319,125.298188 84.9377955,130.801083 82.4384529,135.114974 L82.1403833,135.617107 C81.9050886,136.04222 81.7331212,136.499537 81.6300243,136.974584 C81.0611912,139.59564 82.6660968,142.182481 85.2358802,142.856104 L85.4463316,142.906492 C90.493997,144.001959 94.0694062,148.478917 94.047689,153.617658 L94.0419743,154.192624 C94.0543354,154.664424 94.1336161,155.132573 94.2778334,155.582965 C95.0957375,158.137283 97.7790471,159.5751 100.341356,158.873583 L100.827671,158.726741 C105.761356,157.28943 111.050209,159.491968 113.484151,164.023315 L113.614918,164.253668 C113.865429,164.669996 114.175493,165.047582 114.535348,165.374391 C116.51452,167.17181 119.544217,167.081669 121.422422,165.201179 L121.809367,164.791065 C125.298188,161.17615 130.801083,160.417486 135.114974,162.916828 L135.617107,163.214898 C136.04222,163.450193 136.499537,163.62216 136.974584,163.725257 C139.59564,164.29409 142.182481,162.689185 142.856104,160.119401 L142.906492,159.90895 C144.001959,154.861284 148.478917,151.285875 153.617658,151.307592 L154.192624,151.313307 C154.664424,151.300946 155.132573,151.221665 155.582965,151.077448 C158.137283,150.259544 159.5751,147.576234 158.873583,145.013925 L158.726741,144.52761 C157.28943,139.593925 159.491968,134.305073 164.023315,131.87113 L164.253669,131.740363 C164.669997,131.489852 165.047583,131.179788 165.374391,130.819933 C167.17181,128.840762 167.081669,125.811065 165.201179,123.932861 L164.791067,123.545917 C161.17615,120.057097 160.417486,114.554201 162.916829,110.240309 L163.214899,109.738175 C163.450193,109.313062 163.622161,108.855745 163.725258,108.380698 C164.294091,105.759642 162.689185,103.172801 160.119401,102.499178 L159.90895,102.448789 C154.861284,101.353323 151.285875,96.8763641 151.307592,91.7376233 L151.313307,91.1626575 C151.300946,90.6908575 151.221665,90.222708 151.077448,89.7723165 C150.259544,87.2179987 147.576234,85.7801816 145.013925,86.4816989 L144.52761,86.6285403 C139.593925,88.0658516 134.305073,85.8633134 131.87113,81.3319664 L131.740363,81.1016123 C131.489852,80.6852847 131.179788,80.3076982 130.819933,79.9808899 C128.840762,78.1834716 125.811065,78.2736128 123.932861,80.154102 L123.545917,80.5642147 C120.057097,84.179131 114.554201,84.9377952 110.240309,82.4384528 L109.738175,82.1403827 C109.398085,81.952147 109.037384,81.8044407 108.663483,81.700102 L108.380698,81.6300238 L108.162555,81.5876543 Z"/>
      <path id="swirl-7" d="M106.507745,89.8649358 C107.005422,89.9018733 107.495195,90.0093423 107.974313,90.1886633 L108.239648,90.2967479 C111.566517,91.7609722 115.46168,90.7135151 117.60072,87.7949877 L117.902648,87.3698638 C119.580786,85.1286316 122.742595,84.5845833 125.080452,86.1760563 C125.492984,86.4568837 125.863406,86.7948415 126.188674,87.189697 L126.364418,87.4159686 C128.521842,90.3588936 132.431049,91.3882279 135.746448,89.9191498 L136.174212,89.7222115 C138.752974,88.6044878 141.776911,89.713285 143.009328,92.2677473 C143.269745,92.8075182 143.43613,93.3877744 143.50132,93.9835257 C143.898241,97.6108851 146.769046,100.456918 150.374805,100.842359 L150.849235,100.886324 C153.638578,101.210342 155.700134,103.681166 155.490346,106.507745 C155.453408,107.005422 155.345939,107.495195 155.166618,107.974313 L155.058534,108.239648 C153.594309,111.566517 154.641766,115.46168 157.560294,117.60072 L157.985418,117.902648 C160.22665,119.580786 160.770698,122.742595 159.179225,125.080452 C158.898398,125.492984 158.56044,125.863406 158.165584,126.188674 L157.939313,126.364418 C154.996388,128.521842 153.967054,132.431049 155.436132,135.746448 L155.63307,136.174212 C156.750794,138.752974 155.641996,141.776911 153.087534,143.009328 C152.547763,143.269745 151.967507,143.43613 151.371756,143.50132 C147.744396,143.898241 144.898363,146.769046 144.512923,150.374805 L144.468957,150.849235 C144.144939,153.638578 141.674116,155.700133 138.847537,155.490345 C138.34986,155.453408 137.860086,155.345939 137.380969,155.166618 L137.115634,155.058533 C133.788766,153.594309 129.893603,154.641765 127.754563,157.560292 L127.452634,157.985417 C125.774496,160.22665 122.612686,160.770698 120.274829,159.179224 C119.862297,158.898397 119.491875,158.560439 119.166607,158.165584 L118.990863,157.939313 C116.83344,154.996388 112.924233,153.967054 109.608834,155.436132 L109.181069,155.63307 C106.602307,156.750794 103.578371,155.641996 102.345953,153.087534 C102.085537,152.547763 101.919151,151.967507 101.853962,151.371756 C101.457041,147.744396 98.5862352,144.898363 94.9804765,144.512923 L94.5060462,144.468957 C91.7167035,144.144939 89.6551482,141.674116 89.8649363,138.847537 C89.9018738,138.34986 90.0093428,137.860086 90.1886639,137.380969 L90.2967482,137.115634 C91.7609727,133.788766 90.7135161,129.893603 87.7949893,127.754563 L87.3698641,127.452634 C85.1286316,125.774496 84.5845834,122.612686 86.176057,120.274829 C86.4568844,119.862297 86.7948423,119.491875 87.1896977,119.166607 L87.4159686,118.990863 C90.3588936,116.83344 91.3882279,112.924233 89.9191498,109.608834 L89.7222115,109.181069 C88.6044878,106.602307 89.7132851,103.578371 92.2677473,102.345953 C92.8075183,102.085537 93.3877744,101.919151 93.9835257,101.853962 C97.6108852,101.457041 100.456918,98.5862352 100.842359,94.9804765 L100.886324,94.5060461 C101.210342,91.7167032 103.681166,89.6551477 106.507745,89.8649358 Z M106.44113,90.7624671 C104.108748,90.5893581 102.068516,92.2815058 101.784231,94.5773868 L101.738528,95.0642471 C101.313428,99.0947121 98.1343646,102.305131 94.0814231,102.748621 C93.587469,102.802672 93.1063623,102.940627 92.658823,103.156545 C90.5504301,104.173754 89.6298559,106.662949 90.5357809,108.794686 L90.7371409,109.233296 C92.38423,112.936328 91.2365073,117.306001 87.9582837,119.709007 L87.7521971,119.869054 C87.433087,120.132115 87.1528765,120.439243 86.9200346,120.781285 C85.6052117,122.712745 86.0483852,125.322497 87.895838,126.721701 L88.32065,127.024071 C91.5857414,129.417019 92.7548821,133.764688 91.1254789,137.466408 L91.0270259,137.708055 C90.8821992,138.095428 90.7930935,138.501514 90.7624676,138.914152 C90.5893586,141.246534 92.2815061,143.286766 94.5773869,143.571051 L95.0642471,143.616753 C99.0947122,144.041854 102.305131,147.220917 102.748621,151.273858 C102.802672,151.767812 102.940627,152.248919 103.156545,152.696458 C104.173754,154.804851 106.662949,155.725426 108.794686,154.819501 L109.233296,154.618141 C112.936328,152.971051 117.306001,154.118774 119.709007,157.396998 L119.869054,157.603084 C120.132115,157.922194 120.439243,158.202405 120.781285,158.435247 C122.712745,159.75007 125.322497,159.306896 126.721701,157.459443 L127.024071,157.034631 C129.417019,153.76954 133.764688,152.600399 137.466408,154.229803 L137.708055,154.328256 C138.095428,154.473082 138.501514,154.562188 138.914152,154.592814 C141.246534,154.765923 143.286766,153.073775 143.571051,150.777895 L143.616753,150.291034 C144.041854,146.260569 147.220917,143.05015 151.273858,142.60666 C151.767812,142.55261 152.248919,142.414654 152.696458,142.198736 C154.804851,141.181528 155.725426,138.692333 154.819501,136.560596 L154.618141,136.121985 C152.971051,132.418953 154.118774,128.049281 157.396998,125.646274 L157.603085,125.486227 C157.922195,125.223166 158.202406,124.916038 158.435248,124.573996 C159.75007,122.642537 159.306896,120.032785 157.459444,118.633582 L157.034633,118.331213 C153.769541,115.938264 152.6004,111.590596 154.229803,107.888875 L154.328256,107.647227 C154.473083,107.259853 154.562188,106.853768 154.592814,106.44113 C154.765923,104.108748 153.073776,102.068516 150.777895,101.784231 L150.291034,101.738528 C146.260569,101.313428 143.05015,98.1343646 142.60666,94.0814231 C142.55261,93.587469 142.414654,93.1063623 142.198736,92.658823 C141.181528,90.5504301 138.692333,89.6298559 136.560596,90.5357809 L136.121985,90.7371409 C132.418953,92.38423 128.049281,91.2365073 125.646274,87.9582837 L125.486227,87.7521964 C125.223166,87.4330863 124.916038,87.1528758 124.573996,86.920034 C122.642537,85.6052116 120.032785,86.0483852 118.633582,87.8958377 L118.331213,88.3206483 C115.938264,91.5857404 111.590596,92.7548816 107.888875,91.1254786 L107.647227,91.0270253 C107.259853,90.8821986 106.853768,90.793093 106.44113,90.7624671 Z"/>
      <path id="swirl-8" d="M106.117067,98.3516499 C106.591097,98.3205363 107.06696,98.3705515 107.524162,98.4995416 C110.418689,99.3161717 113.478812,98.0156395 114.909176,95.3972884 L115.137911,94.9593327 C116.215353,93.0346409 118.624153,92.2704682 120.625557,93.2572211 C121.051635,93.4672908 121.438737,93.7485368 121.770191,94.0888466 C123.873766,96.248626 127.185245,96.6490734 129.735694,95.0832453 L130.122515,94.8366677 C132.019456,93.6995123 134.495097,94.2405581 135.737492,96.099561 C136.001452,96.4945261 136.196069,96.9316433 136.312961,97.392087 C137.054821,100.314298 139.722422,102.316836 142.71409,102.236013 L143.172375,102.215881 C145.383752,102.179546 147.257197,103.885926 147.403641,106.117067 C147.434755,106.591097 147.384739,107.06696 147.255749,107.524162 C146.439119,110.418689 147.739651,113.478812 150.358003,114.909176 L150.795958,115.137911 C152.72065,116.215353 153.484823,118.624153 152.49807,120.625557 C152.288,121.051635 152.006754,121.438737 151.666444,121.770191 C149.506665,123.873766 149.106218,127.185245 150.672046,129.735694 L150.918623,130.122515 C152.055779,132.019456 151.514733,134.495097 149.65573,135.737492 C149.260765,136.001452 148.823648,136.196069 148.363204,136.312961 C145.440993,137.054821 143.438455,139.722422 143.519278,142.71409 L143.53941,143.172375 C143.575745,145.383752 141.869365,147.257197 139.638224,147.403641 C139.164194,147.434755 138.688331,147.384739 138.231129,147.255749 C135.336602,146.439119 132.276479,147.739651 130.846115,150.358003 L130.61738,150.795958 C129.539938,152.72065 127.131138,153.484823 125.129734,152.49807 C124.788871,152.330014 124.472954,152.116406 124.190517,151.863446 L123.9851,151.666444 C121.881525,149.506665 118.570046,149.106218 116.019597,150.672046 L115.632776,150.918623 C113.735835,152.055779 111.260194,151.514733 110.017799,149.65573 C109.753839,149.260765 109.559222,148.823648 109.44233,148.363204 C108.700471,145.440993 106.032869,143.438455 103.041201,143.519278 L102.582916,143.53941 C100.371539,143.575745 98.4980939,141.869365 98.3516499,139.638224 C98.3205363,139.164194 98.3705515,138.688331 98.4995416,138.231129 C99.3161717,135.336602 98.0156395,132.276479 95.3972884,130.846115 L94.9593327,130.61738 C93.0346409,129.539938 92.2704682,127.131138 93.2572211,125.129734 C93.4252769,124.788871 93.6388855,124.472954 93.8918453,124.190517 L94.0888466,123.9851 C96.248626,121.881525 96.6490734,118.570046 95.0832453,116.019597 L94.8366677,115.632776 C93.6995123,113.735835 94.2405581,111.260194 96.099561,110.017799 C96.4945261,109.753839 96.9316433,109.559222 97.392087,109.44233 C100.314298,108.700471 102.316836,106.032869 102.236013,103.041201 L102.215881,102.582916 C102.179546,100.371539 103.885926,98.4980939 106.117067,98.3516499 Z M106.149815,98.8505763 C104.19201,98.9790795 102.69324,100.618273 102.715576,102.556869 L102.735267,103.007745 C102.831939,106.240294 100.671202,109.125724 97.5151188,109.926957 C97.1098174,110.02985 96.725049,110.20116 96.3773846,110.433509 C94.7443133,111.52491 94.2666887,113.697493 95.259698,115.365935 L95.4988837,115.740996 C97.1988786,118.49213 96.7703409,122.071354 94.4377087,124.343283 C94.1381541,124.635042 93.8905899,124.975785 93.7056779,125.350837 C92.8390944,127.108505 93.5066692,129.223132 95.1922783,130.174728 L95.6229231,130.399649 C98.4544872,131.937943 99.8623919,135.241957 98.9807566,138.366893 C98.8672143,138.769342 98.8231889,139.188216 98.8505763,139.605476 C98.9790795,141.563281 100.618273,143.062051 102.556869,143.039715 L103.007745,143.020024 C106.240294,142.923352 109.125724,145.084089 109.926957,148.240172 C110.02985,148.645474 110.20116,149.030242 110.433509,149.377906 C111.52491,151.010978 113.697493,151.488602 115.365935,150.495593 L115.740996,150.256407 C118.49213,148.556412 122.071354,148.98495 124.343283,151.317582 C124.635042,151.617137 124.975785,151.864701 125.350837,152.049613 C127.108505,152.916197 129.223132,152.248622 130.174728,150.563013 L130.399649,150.132368 C131.937943,147.300804 135.241957,145.892899 138.366893,146.774534 C138.769342,146.888077 139.188216,146.932102 139.605476,146.904715 C141.563281,146.776211 143.062051,145.137018 143.039715,143.198422 L143.020024,142.747546 C142.923352,139.514997 145.084089,136.629567 148.240172,135.828334 C148.645474,135.725441 149.030242,135.554131 149.377906,135.321782 C151.010978,134.230381 151.488602,132.057798 150.495593,130.389356 L150.256407,130.014295 C148.556412,127.263161 148.98495,123.683937 151.317582,121.412008 C151.617137,121.120249 151.864701,120.779506 152.049613,120.404454 C152.916197,118.646786 152.248622,116.532159 150.563013,115.580563 L150.132368,115.355642 C147.300804,113.817348 145.892899,110.513334 146.774534,107.388398 C146.888077,106.985949 146.932102,106.567075 146.904715,106.149815 C146.776211,104.19201 145.137018,102.69324 143.198422,102.715576 L142.747546,102.735267 C139.514997,102.831939 136.629567,100.671202 135.828334,97.5151188 C135.725441,97.1098174 135.554131,96.725049 135.321782,96.3773846 C134.230381,94.7443133 132.057798,94.2666887 130.389356,95.259698 L130.014295,95.4988837 C127.263161,97.1988786 123.683937,96.7703409 121.412008,94.4377087 C121.120249,94.1381541 120.779506,93.8905899 120.404454,93.7056779 C118.646786,92.8390944 116.532159,93.5066692 115.580563,95.1922783 L115.355642,95.6229231 C113.817348,98.4544872 110.513334,99.8623919 107.388398,98.9807566 C106.985949,98.8672143 106.567075,98.8231889 106.149815,98.8505763 Z"/>
      <path id="swirl-9" d="M118.252647,100.146675 C118.535939,100.240061 118.804819,100.371579 119.051974,100.537339 L119.416834,100.80403 C121.335177,102.161298 123.927864,102.072241 125.748466,100.587371 L126.070073,100.314268 C127.419835,99.2385606 129.391075,99.3929878 130.554752,100.696536 C130.753397,100.919057 130.920495,101.167394 131.051657,101.434524 L131.23429,101.847916 C132.21699,103.982515 134.506851,105.201733 136.825974,104.826099 L137.241045,104.750389 C138.947827,104.493679 140.577757,105.613037 140.933757,107.323781 C140.994528,107.615813 141.01507,107.914428 140.995095,108.211351 L140.944519,108.683339 C140.739637,111.009725 142.104855,113.19453 144.285611,114.030205 L144.703474,114.180088 C146.305972,114.813294 147.154985,116.595216 146.608616,118.252647 C146.51523,118.535939 146.383712,118.804819 146.217952,119.051974 L145.951261,119.416834 C144.593993,121.335177 144.68305,123.927864 146.16792,125.748466 L146.441023,126.070073 C147.51673,127.419835 147.362303,129.391075 146.058755,130.554752 C145.836234,130.753397 145.587897,130.920495 145.320767,131.051657 L144.907375,131.23429 C142.772776,132.21699 141.553558,134.506851 141.929192,136.825974 L142.004902,137.241045 C142.261612,138.947827 141.142254,140.577757 139.43151,140.933757 C139.139478,140.994528 138.840863,141.01507 138.54394,140.995095 L138.071952,140.944519 C135.745566,140.739637 133.560761,142.104855 132.725086,144.285611 L132.575203,144.703474 C131.941997,146.305972 130.160075,147.154985 128.502644,146.608616 C128.219352,146.51523 127.950472,146.383712 127.703317,146.217952 L127.338457,145.951261 C125.420114,144.593993 122.827427,144.68305 121.006825,146.16792 L120.685218,146.441023 C119.335456,147.51673 117.364216,147.362303 116.200539,146.058755 C116.001894,145.836234 115.834796,145.587897 115.703634,145.320767 L115.521001,144.907375 C114.538301,142.772776 112.24844,141.553558 109.929317,141.929192 L109.514246,142.004902 C107.807464,142.261612 106.177534,141.142254 105.821534,139.43151 C105.760763,139.139478 105.740221,138.840863 105.760196,138.54394 L105.810772,138.071952 C106.015654,135.745566 104.650436,133.560761 102.46968,132.725086 L102.051817,132.575203 C100.449319,131.941997 99.6003059,130.160075 100.146675,128.502644 C100.240061,128.219352 100.371579,127.950472 100.537339,127.703317 L100.80403,127.338457 C102.161298,125.420114 102.072241,122.827427 100.587371,121.006825 L100.314268,120.685218 C99.2385606,119.335456 99.3929878,117.364216 100.696536,116.200539 C100.919057,116.001894 101.167394,115.834796 101.434524,115.703634 L101.847916,115.521001 C103.982515,114.538301 105.201733,112.24844 104.826099,109.929317 L104.750389,109.514246 C104.493679,107.807464 105.613037,106.177534 107.323781,105.821534 C107.615813,105.760763 107.914428,105.740221 108.211351,105.760196 L108.683339,105.810772 C111.009725,106.015654 113.19453,104.650436 114.030205,102.46968 L114.180088,102.051817 C114.813294,100.449319 116.595216,99.6003059 118.252647,100.146675 Z M118.174378,100.384107 C116.647755,99.8808588 115.006794,100.659204 114.417543,102.13127 L114.266632,102.551348 C113.390433,104.848375 111.086585,106.284209 108.637299,106.057635 L108.39986,106.030492 C108.058597,105.984016 107.711905,105.996122 107.374714,106.066291 C105.7965,106.394712 104.763162,107.896874 104.996747,109.47125 L105.071668,109.881863 C105.481949,112.392743 104.107204,114.872376 101.732926,115.843462 C101.414145,115.973844 101.119954,116.157675 100.863023,116.387038 C99.6604601,117.460566 99.5166441,119.278146 100.506123,120.524803 L100.776313,120.842944 C102.336731,122.750747 102.431716,125.470757 101.008181,127.482762 L100.744967,127.842567 C100.591853,128.070867 100.470369,128.319233 100.384107,128.580913 C99.8808588,130.107536 100.659204,131.748497 102.13127,132.337748 L102.551348,132.488659 C104.848375,133.364858 106.284209,135.668706 106.057635,138.117992 L106.030492,138.355431 C105.984016,138.696694 105.996122,139.043386 106.066291,139.380577 C106.394712,140.958791 107.896874,141.992129 109.47125,141.758544 L109.881863,141.683623 C112.392743,141.273342 114.872376,142.648087 115.843462,145.022365 C115.973844,145.341146 116.157675,145.635337 116.387038,145.892268 C117.460566,147.094831 119.278146,147.238647 120.524803,146.249168 L120.842944,145.978978 C122.750747,144.41856 125.470757,144.323575 127.482762,145.74711 L127.842567,146.010324 C128.070867,146.163438 128.319233,146.284922 128.580913,146.371184 C130.107536,146.874432 131.748497,146.096087 132.337748,144.624021 L132.488659,144.203943 C133.393122,141.832818 135.818827,140.379344 138.355431,140.724799 C138.696694,140.771275 139.043386,140.759169 139.380577,140.689 C140.958791,140.360579 141.992129,138.858417 141.758544,137.284041 L141.683623,136.873428 C141.273342,134.362548 142.648087,131.882915 145.022365,130.911829 C145.341146,130.781447 145.635337,130.597616 145.892268,130.368253 C147.094831,129.294725 147.238647,127.477145 146.249168,126.230488 L145.978978,125.912347 C144.41856,124.004544 144.323575,121.284534 145.74711,119.272529 L146.010324,118.912724 C146.163438,118.684424 146.284922,118.436058 146.371184,118.174378 C146.874432,116.647755 146.096087,115.006794 144.624021,114.417543 L144.203943,114.266632 C141.832818,113.362169 140.379344,110.936464 140.724799,108.39986 C140.771275,108.058597 140.759169,107.711905 140.689,107.374714 C140.360579,105.7965 138.858417,104.763162 137.284041,104.996747 L136.873428,105.071668 C134.362548,105.481949 131.882915,104.107204 130.911829,101.732926 C130.781447,101.414145 130.597616,101.119954 130.368253,100.863023 C129.294725,99.6604601 127.477145,99.5166441 126.230488,100.506123 L125.912347,100.776313 C124.004544,102.336731 121.284534,102.431716 119.272529,101.008181 L118.912724,100.744967 C118.684424,100.591853 118.436058,100.470369 118.174378,100.384107 Z"/>
      <path id="swirl-10" d="M116.286804,105.251017 C116.573194,105.302777 116.848649,105.403035 117.101308,105.547472 C118.794204,106.51525 120.921089,106.183887 122.240176,104.772345 L122.491161,104.492135 C123.419237,103.529685 124.948018,103.441 125.983124,104.317117 C126.205264,104.505137 126.393687,104.729691 126.540277,104.981106 C127.522479,106.665674 129.530097,107.442149 131.378231,106.879261 L131.735695,106.762084 C133.020657,106.392616 134.388964,107.080203 134.847333,108.356495 C134.92111,108.561921 134.968186,108.77566 134.987638,108.992467 L135.004684,109.433243 C135.110269,111.281762 136.421535,112.844467 138.223636,113.26944 L138.620808,113.353728 C139.910348,113.68197 140.744587,114.957153 140.504274,116.286804 C140.452514,116.573194 140.352256,116.848649 140.207819,117.101308 C139.240041,118.794204 139.571404,120.921089 140.982946,122.240176 L141.263156,122.491161 C142.225606,123.419237 142.314291,124.948018 141.438174,125.983124 C141.250154,126.205264 141.0256,126.393687 140.774185,126.540277 C139.089617,127.522479 138.313142,129.530097 138.87603,131.378231 L138.993207,131.735695 C139.362675,133.020657 138.675088,134.388964 137.398796,134.847333 C137.19337,134.92111 136.979631,134.968186 136.762824,134.987638 L136.322048,135.004684 C134.473529,135.110269 132.910824,136.421535 132.485851,138.223636 L132.401563,138.620808 C132.073321,139.910348 130.798138,140.744587 129.468487,140.504274 C129.182097,140.452514 128.906642,140.352256 128.653983,140.207819 C126.961087,139.240041 124.834202,139.571404 123.515115,140.982946 L123.26413,141.263156 C122.336054,142.225606 120.807273,142.314291 119.772167,141.438174 C119.550027,141.250154 119.361604,141.0256 119.215014,140.774185 C118.232812,139.089617 116.225194,138.313142 114.37706,138.87603 L114.019596,138.993207 C112.734634,139.362675 111.366327,138.675088 110.907958,137.398796 C110.834181,137.19337 110.787105,136.979631 110.767653,136.762824 L110.750607,136.322048 C110.645022,134.473529 109.333756,132.910824 107.531655,132.485851 L107.134483,132.401563 C105.844943,132.073321 105.010704,130.798138 105.251017,129.468487 C105.302777,129.182097 105.403035,128.906642 105.547472,128.653983 C106.51525,126.961087 106.183887,124.834202 104.772345,123.515115 L104.492135,123.26413 C103.529685,122.336054 103.441,120.807273 104.317117,119.772167 C104.505137,119.550027 104.729691,119.361604 104.981106,119.215014 C106.665674,118.232812 107.442149,116.225194 106.879261,114.37706 L106.762084,114.019596 C106.392616,112.734634 107.080203,111.366327 108.356495,110.907958 C108.561921,110.834181 108.77566,110.787105 108.992467,110.767653 L109.433243,110.750607 C111.281762,110.645022 112.844467,109.333756 113.26944,107.531655 L113.353728,107.134483 C113.68197,105.844943 114.957153,105.010704 116.286804,105.251017 Z M116.265462,105.369104 C114.998193,105.140065 113.782837,105.935166 113.469994,107.164205 L113.38809,107.55131 C112.936319,109.483327 111.213891,110.868887 109.210616,110.877443 C108.933243,110.878627 108.658106,110.927141 108.397056,111.020895 C107.182754,111.457001 106.527591,112.757345 106.875623,113.980168 L106.994073,114.342152 C107.573084,116.243222 106.774369,118.308344 105.041549,119.31868 C104.801929,119.458392 104.587911,119.637975 104.408712,119.849694 C103.573699,120.836236 103.658223,122.293293 104.575519,123.177827 L104.854322,123.427478 C106.306295,124.784347 106.647148,126.972153 105.65165,128.713539 C105.51399,128.954344 105.418436,129.216876 105.369104,129.489829 C105.140065,130.757098 105.935166,131.972454 107.164205,132.285297 L107.55131,132.367201 C109.483327,132.818972 110.868887,134.5414 110.877443,136.544675 C110.878627,136.822048 110.927141,137.097185 111.020895,137.358235 C111.457001,138.572537 112.757345,139.2277 113.980168,138.879668 L114.342152,138.761218 C116.243222,138.182207 118.308344,138.980922 119.31868,140.713742 C119.458392,140.953362 119.637975,141.16738 119.849694,141.346579 C120.836236,142.181592 122.293293,142.097068 123.177827,141.179772 L123.427478,140.900969 C124.784347,139.448997 126.972153,139.108143 128.713539,140.103641 C128.954344,140.241301 129.216876,140.336855 129.489829,140.386187 C130.757098,140.615226 131.972454,139.820126 132.285297,138.591086 L132.367201,138.203981 C132.818972,136.271964 134.5414,134.886404 136.544675,134.877848 C136.822048,134.876664 137.097185,134.82815 137.358235,134.734396 C138.572537,134.29829 139.2277,132.997946 138.879668,131.775123 L138.761218,131.413139 C138.182207,129.512069 138.980922,127.446947 140.713742,126.436611 C140.953362,126.296899 141.16738,126.117316 141.346579,125.905597 C142.181592,124.919055 142.097068,123.461998 141.179772,122.577464 L140.900969,122.327813 C139.448997,120.970944 139.108143,118.783138 140.103641,117.041752 C140.241301,116.800947 140.336855,116.538415 140.386187,116.265462 C140.615226,114.998193 139.820126,113.782837 138.591086,113.469994 L138.203981,113.38809 C136.271964,112.936319 134.886404,111.213891 134.877848,109.210616 C134.876664,108.933243 134.82815,108.658106 134.734396,108.397056 C134.29829,107.182754 132.997946,106.527591 131.775123,106.875623 L131.413139,106.994073 C129.512069,107.573084 127.446947,106.774369 126.436611,105.041549 C126.296899,104.801929 126.117316,104.587911 125.905597,104.408712 C124.919055,103.573699 123.461998,103.658223 122.577464,104.575519 L122.327813,104.854322 C120.970944,106.306295 118.783138,106.647148 117.041752,105.65165 C116.800947,105.51399 116.538415,105.418436 116.265462,105.369104 Z"/>
      <path id="swirl-11" d="M115.607514,109.508444 C115.782491,109.515303 115.955628,109.54452 116.122745,109.595209 L116.287701,109.653022 C117.755791,110.238888 119.424857,109.737456 120.330796,108.46198 L120.522252,108.178706 C121.154994,107.322485 122.351189,107.087347 123.266128,107.664511 C123.414233,107.75794 123.549565,107.869812 123.668948,107.997268 L123.782898,108.129813 C124.761368,109.371233 126.457538,109.771513 127.879842,109.119889 L128.187284,108.970294 C129.163366,108.545156 130.31687,108.939618 130.820648,109.896926 C130.902197,110.05189 130.963462,110.21644 131.003123,110.386512 L131.070809,110.759501 C131.371655,112.219083 132.589953,113.316044 134.072987,113.462674 L134.444698,113.490112 C135.4951,113.616956 136.289016,114.531719 136.246847,115.607514 C136.239988,115.782491 136.210771,115.955628 136.160082,116.122745 L136.102269,116.287701 C135.516403,117.755791 136.017835,119.424857 137.293311,120.330796 L137.576585,120.522252 C138.432806,121.154994 138.667944,122.351189 138.09078,123.266128 C137.997351,123.414233 137.885479,123.549565 137.758023,123.668948 L137.625478,123.782898 C136.384058,124.761368 135.983778,126.457538 136.635402,127.879842 L136.784997,128.187284 C137.210135,129.163366 136.815673,130.31687 135.858365,130.820648 C135.703401,130.902197 135.538851,130.963462 135.368779,131.003123 L134.99579,131.070809 C133.536208,131.371655 132.439247,132.589953 132.292617,134.072987 L132.265179,134.444698 C132.138335,135.4951 131.223572,136.289016 130.147777,136.246847 C129.914474,136.237702 129.684443,136.188808 129.46759,136.102269 C127.9995,135.516403 126.330434,136.017835 125.424495,137.293311 L125.233039,137.576585 C124.600297,138.432806 123.404102,138.667944 122.489163,138.09078 C122.341058,137.997351 122.205726,137.885479 122.086343,137.758023 L121.972393,137.625478 C120.993923,136.384058 119.297753,135.983778 117.875449,136.635402 L117.568007,136.784997 C116.591925,137.210135 115.438421,136.815673 114.934643,135.858365 C114.853094,135.703401 114.791829,135.538851 114.752169,135.368779 L114.684482,134.99579 C114.383636,133.536208 113.165338,132.439247 111.682304,132.292617 L111.310593,132.265179 C110.260191,132.138335 109.466275,131.223572 109.508444,130.147777 C109.515303,129.9728 109.54452,129.799663 109.595209,129.632546 L109.653022,129.46759 C110.238888,127.9995 109.737456,126.330434 108.46198,125.424495 L108.178706,125.233039 C107.322485,124.600297 107.087347,123.404102 107.664511,122.489163 C107.75794,122.341058 107.869812,122.205726 107.997268,122.086343 L108.129813,121.972393 C109.371233,120.993923 109.771513,119.297753 109.119889,117.875449 L108.970294,117.568007 C108.545156,116.591925 108.939618,115.438421 109.896926,114.934643 C110.05189,114.853094 110.21644,114.791829 110.386512,114.752169 L110.759501,114.684482 C112.219083,114.383636 113.316044,113.165338 113.462674,111.682304 L113.490112,111.310593 C113.616956,110.260191 114.531719,109.466275 115.607514,109.508444 Z M115.605164,109.568398 C114.560825,109.527462 113.672809,110.298164 113.549674,111.317852 L113.52238,111.68824 C113.373171,113.197368 112.256909,114.437102 110.771645,114.743241 L110.400138,114.810601 C110.235039,114.849102 110.075301,114.908575 109.924868,114.98774 C108.997658,115.475678 108.614363,116.591488 109.022535,117.537656 L109.17445,117.850486 C109.809911,119.23751 109.462302,120.880479 108.320389,121.891324 L108.166955,122.019516 C107.988945,122.15982 107.836187,122.329476 107.715258,122.521176 C107.15497,123.409361 107.383233,124.57058 108.214418,125.184821 L108.496751,125.375595 C109.742751,126.260599 110.262842,127.861276 109.774999,129.30964 L109.652626,129.649961 C109.60342,129.812192 109.575056,129.980266 109.568398,130.150127 C109.527462,131.194466 110.298164,132.082482 111.317852,132.205617 L111.68824,132.232911 C113.197368,132.38212 114.437102,133.498382 114.743241,134.983646 L114.810601,135.355153 C114.849102,135.520252 114.908575,135.67999 114.98774,135.830423 C115.475678,136.757633 116.591488,137.140928 117.537656,136.732756 L117.850486,136.580841 C119.23751,135.94538 120.880479,136.292989 121.891324,137.434902 L122.019516,137.588336 C122.15982,137.766346 122.329476,137.919104 122.521176,138.040033 C123.409361,138.600321 124.57058,138.372058 125.184821,137.540873 L125.375595,137.25854 C126.260599,136.01254 127.861276,135.492449 129.30964,135.980292 L129.649961,136.102665 C129.812192,136.151871 129.980266,136.180235 130.150127,136.186893 C131.194466,136.227829 132.082482,135.457127 132.205617,134.437439 L132.232911,134.067051 C132.38212,132.557923 133.498382,131.318189 134.983646,131.01205 L135.355153,130.94469 C135.520252,130.906189 135.67999,130.846716 135.830423,130.767551 C136.757633,130.279613 137.140928,129.163803 136.732756,128.217635 L136.580841,127.904805 C135.94538,126.517781 136.292989,124.874812 137.434902,123.863967 L137.588336,123.735775 C137.766346,123.595471 137.919104,123.425815 138.040033,123.234115 C138.600321,122.34593 138.372058,121.184711 137.540873,120.57047 L137.25854,120.379696 C136.01254,119.494692 135.492449,117.894015 135.980292,116.445651 L136.102665,116.10533 C136.151871,115.943099 136.180235,115.775025 136.186893,115.605164 C136.227829,114.560825 135.457127,113.672809 134.437439,113.549674 L134.067051,113.52238 C132.557923,113.373171 131.318189,112.256909 131.01205,110.771645 L130.94469,110.400138 C130.906189,110.235039 130.846716,110.075301 130.767551,109.924868 C130.279613,108.997658 129.163803,108.614363 128.217635,109.022535 L127.904805,109.17445 C126.517781,109.809911 124.874812,109.462302 123.863967,108.320389 L123.735775,108.166955 C123.595471,107.988945 123.425815,107.836187 123.234115,107.715258 C122.34593,107.15497 121.184711,107.383233 120.57047,108.214418 L120.379696,108.496751 C119.494692,109.742751 117.894015,110.262842 116.445651,109.774999 L116.10533,109.652626 C115.943099,109.60342 115.775025,109.575056 115.605164,109.568398 Z"/>
      <path id="swirl-12" d="M111.297043,117.57314 C111.409281,117.492324 111.531246,117.42632 111.659905,117.376605 L111.975929,117.271176 C113.072598,116.864949 113.787991,115.797882 113.745856,114.627793 L113.733807,114.451576 C113.644047,113.561 114.293238,112.76628 115.183815,112.67652 C115.321424,112.662651 115.460051,112.666472 115.59633,112.687747 L115.905354,112.751435 C117.063709,112.956617 118.225359,112.390042 118.776829,111.350923 L118.921511,111.059763 C119.328627,110.337258 120.227367,110.032175 120.998168,110.379309 C121.124275,110.436103 121.24242,110.508725 121.349803,110.59529 L121.453496,110.686432 C122.356495,111.551026 123.725604,111.683193 124.772608,111.027816 L125.043486,110.848004 C125.757312,110.425855 126.688185,110.611015 127.182151,111.297043 C127.262967,111.409281 127.328971,111.531246 127.378686,111.659905 L127.484115,111.975929 C127.890342,113.072598 128.957409,113.787991 130.127498,113.745856 L130.303715,113.733807 C131.194291,113.644047 131.989011,114.293238 132.078771,115.183815 C132.09264,115.321424 132.088819,115.460051 132.067544,115.59633 L132.003856,115.905354 C131.798674,117.063709 132.365249,118.225359 133.404368,118.776829 L133.695528,118.921511 C134.418033,119.328627 134.723116,120.227367 134.375982,120.998168 C134.319188,121.124275 134.246566,121.24242 134.160001,121.349803 L134.068859,121.453496 C133.204265,122.356495 133.072098,123.725604 133.727475,124.772608 L133.907287,125.043486 C134.329436,125.757312 134.144276,126.688185 133.458248,127.182151 C133.34601,127.262967 133.224045,127.328971 133.095386,127.378686 L132.779362,127.484115 C131.682693,127.890342 130.9673,128.957409 131.009435,130.127498 L131.021484,130.303715 C131.111244,131.194291 130.462053,131.989011 129.571476,132.078771 C129.433867,132.09264 129.29524,132.088819 129.158961,132.067544 L128.849937,132.003856 C127.691582,131.798674 126.529932,132.365249 125.978462,133.404368 L125.83378,133.695528 C125.426664,134.418033 124.527924,134.723116 123.757123,134.375982 C123.631016,134.319188 123.512871,134.246566 123.405488,134.160001 L123.301795,134.068859 C122.398796,133.204265 121.029687,133.072098 119.982683,133.727475 L119.711805,133.907287 C118.997979,134.329436 118.067106,134.144276 117.57314,133.458248 C117.492324,133.34601 117.42632,133.224045 117.376605,133.095386 L117.271176,132.779362 C116.864949,131.682693 115.797882,130.9673 114.627793,131.009435 L114.451576,131.021484 C113.561,131.111244 112.76628,130.462053 112.67652,129.571476 C112.662651,129.433867 112.666472,129.29524 112.687747,129.158961 L112.751435,128.849937 C112.956617,127.691582 112.390042,126.529932 111.350923,125.978462 L111.059763,125.83378 C110.337258,125.426664 110.032175,124.527924 110.379309,123.757123 C110.436103,123.631016 110.508725,123.512871 110.59529,123.405488 L110.686432,123.301795 C111.551026,122.398796 111.683193,121.029687 111.027816,119.982683 L110.848004,119.711805 C110.425855,118.997979 110.611015,118.067106 111.297043,117.57314 Z M111.314572,117.597486 C110.641243,118.082308 110.459511,118.99595 110.873846,119.696562 L111.049129,119.960209 C111.681298,120.963853 111.59577,122.262479 110.840222,123.174275 L110.708101,123.322542 C110.582929,123.453275 110.480986,123.604411 110.406663,123.769442 C110.065954,124.525975 110.36539,125.408079 111.074521,125.807659 L111.358144,125.948343 C112.412992,126.504365 112.988758,127.681217 112.781043,128.854789 L112.717388,129.163588 C112.696507,129.297345 112.692757,129.433406 112.706369,129.568468 C112.789573,130.393999 113.489944,131.008205 114.30386,130.999687 L114.448568,130.991635 C115.700184,130.865487 116.868054,131.604706 117.299303,132.768924 L117.404589,133.084573 C117.453383,133.21085 117.518166,133.330558 117.597486,133.440719 C118.082308,134.114048 118.99595,134.29578 119.696562,133.881445 L119.960209,133.706162 C120.963853,133.073993 122.262479,133.159521 123.174275,133.915069 L123.322542,134.04719 C123.453275,134.172362 123.604411,134.274305 123.769442,134.348628 C124.525975,134.689337 125.408079,134.389901 125.807659,133.68077 L125.948343,133.397147 C126.504365,132.342299 127.681217,131.766533 128.854789,131.974248 L129.163588,132.037903 C129.297345,132.058784 129.433406,132.062534 129.568468,132.048922 C130.393999,131.965718 131.008205,131.265347 130.999687,130.451431 L130.991635,130.306723 C130.865487,129.055107 131.604706,127.887237 132.768924,127.455988 L133.084573,127.350702 C133.21085,127.301908 133.330558,127.237125 133.440719,127.157805 C134.114048,126.672983 134.29578,125.759341 133.881445,125.058729 L133.706162,124.795082 C133.073993,123.791438 133.159521,122.492812 133.915069,121.581016 L134.04719,121.432749 C134.172362,121.302016 134.274305,121.15088 134.348628,120.985849 C134.689337,120.229316 134.389901,119.347212 133.68077,118.947632 L133.397147,118.806948 C132.342299,118.250926 131.766533,117.074074 131.974248,115.900502 L132.037903,115.591703 C132.058784,115.457946 132.062534,115.321885 132.048922,115.186823 C131.965718,114.361292 131.265347,113.747086 130.451431,113.755604 L130.306723,113.763656 C129.055107,113.889804 127.887237,113.150585 127.455988,111.986367 L127.350702,111.670718 C127.301908,111.544441 127.237125,111.424733 127.157805,111.314572 C126.672983,110.641243 125.759341,110.459511 125.058729,110.873846 L124.795082,111.049129 C123.791438,111.681298 122.492812,111.59577 121.581016,110.840222 L121.432749,110.708101 C121.302016,110.582929 121.15088,110.480986 120.985849,110.406663 C120.229316,110.065954 119.347212,110.36539 118.947632,111.074521 L118.806948,111.358144 C118.250926,112.412992 117.074074,112.988758 115.900502,112.781043 L115.591703,112.717388 C115.457946,112.696507 115.321885,112.692757 115.186823,112.706369 C114.361292,112.789573 113.747086,113.489944 113.755604,114.30386 L113.763656,114.448568 C113.889804,115.700184 113.150585,116.868054 111.986367,117.299303 L111.670718,117.404589 C111.544441,117.453383 111.424733,117.518166 111.314572,117.597486 Z"/>
    </g>
  </g>
</svg>
