<svg xmlns="http://www.w3.org/2000/svg" width="456" height="351" viewBox="0 0 456 351">
  <g fill="none" fill-rule="evenodd">
    <path fill="#FFF" fill-rule="nonzero" d="M16.6165 331C15.9251632 331 15.3660021 330.827168 14.939 330.4815 14.5119979 330.135832 14.2171675 329.698669 14.0545 329.17L1.7325 290.13 1.6105 289.581C1.6105 289.255665 1.74266535 288.960835 2.007 288.6965 2.27133466 288.432165 2.58649817 288.3 2.9525 288.3L10.9435 288.3C11.5535031 288.3 12.0516647 288.472832 12.438 288.8185 12.8243353 289.164168 13.0784994 289.540331 13.2005 289.947L21.4965 317.519 29.8535 289.947C29.9755006 289.499664 30.2296647 289.113335 30.616 288.788 31.0023353 288.462665 31.500497 288.3 32.1105 288.3L40.1015 288.3C40.4675018 288.3 40.7724988 288.432165 41.0165 288.6965 41.2605012 288.960835 41.3825 289.255665 41.3825 289.581 41.3825 289.784334 41.3621669 289.967333 41.3215 290.13L28.9385 329.17C28.8164994 329.698669 28.5420021 330.135832 28.115 330.4815 27.6879979 330.827168 27.1288368 331 26.4375 331L16.6165 331zM61.5125 331.61C56.3884744 331.61 52.4540137 330.420512 49.709 328.0415 47.0554867 325.741789 45.570523 322.501601 45.2540684 318.320847L45.2081745 317.613568C45.1843519 317.165272 45.1702751 316.531814 45.1659438 315.713185L45.1659438 314.566815C45.1707564 313.657227 45.1876004 312.976246 45.2164763 312.523858L45.2255 312.395C45.4695012 308.084312 47.0046525 304.719179 49.831 302.2995 52.6573475 299.879821 56.5511419 298.67 61.5125 298.67 66.4738581 298.67 70.3676525 299.879821 73.194 302.2995 75.9261359 304.638523 77.4517207 307.86102 77.770796 311.967083L77.8592553 313.26643C77.9007519 313.963573 77.9215 314.588092 77.9215 315.14 77.9215 315.691908 77.9007519 316.316427 77.8592553 317.01357L77.7995 317.885C77.5554988 322.277022 76.0610137 325.662488 73.316 328.0415 70.5709863 330.420512 66.6365256 331.61 61.5125 331.61zM61.5125 323.924C63.1798417 323.924 64.4201626 323.405505 65.2335 322.3685 65.998994 321.392495 66.4582842 319.921192 66.6113823 317.95455L66.6614054 317.233491C66.6806559 316.867733 66.6922062 316.347972 66.6960562 315.674203L66.6960562 314.605797C66.6907624 313.679365 66.6709104 313.044104 66.6365 312.7 66.5144994 310.585323 66.0468374 308.999339 65.2335 307.942 64.4201626 306.884661 63.1798417 306.356 61.5125 306.356 59.8451583 306.356 58.6048374 306.884661 57.7915 307.942 56.9781626 308.999339 56.5105006 310.585323 56.3885 312.7L56.3275 315.14 56.3885 317.58C56.5105006 319.735344 56.9781626 321.331495 57.7915 322.3685 58.6048374 323.405505 59.8451583 323.924 61.5125 323.924zM85.3025 331C84.8551644 331 84.4790015 330.857668 84.174 330.573 83.8689985 330.288332 83.7165 329.922336 83.7165 329.475L83.7165 289.215C83.7165 288.767664 83.8689985 288.401668 84.174 288.117 84.4790015 287.832332 84.8551644 287.69 85.3025 287.69L92.9275 287.69C93.3748356 287.69 93.7408319 287.832332 94.0255 288.117 94.3101681 288.401668 94.4525 288.767664 94.4525 289.215L94.4525 329.475C94.4525 329.881669 94.3101681 330.237498 94.0255 330.5425 93.7408319 330.847502 93.3748356 331 92.9275 331L85.3025 331zM113.0575 331.61C109.478815 331.61 106.591511 330.410345 104.3955 328.011 102.199489 325.611655 101.1015 322.216022 101.1015 317.824L101.1015 300.805C101.1015 300.357664 101.253998 299.991668 101.559 299.707 101.864002 299.422332 102.219831 299.28 102.6265 299.28L110.7395 299.28C111.186836 299.28 111.562998 299.422332 111.868 299.707 112.173002 299.991668 112.3255 300.357664 112.3255 300.805L112.3255 317.458C112.3255 321.240019 114.01315 323.131 117.3885 323.131 119.015175 323.131 120.285995 322.632838 121.201 321.6365 122.116005 320.640162 122.5735 319.247342 122.5735 317.458L122.5735 300.805C122.5735 300.357664 122.725998 299.991668 123.031 299.707 123.336002 299.422332 123.712164 299.28 124.1595 299.28L132.2115 299.28C132.658836 299.28 133.024832 299.422332 133.3095 299.707 133.594168 299.991668 133.7365 300.357664 133.7365 300.805L133.7365 329.475C133.7365 329.881669 133.594168 330.237498 133.3095 330.5425 133.024832 330.847502 132.658836 331 132.2115 331L124.7695 331C124.322164 331 123.946002 330.857668 123.641 330.573 123.335998 330.288332 123.1835 329.922336 123.1835 329.475L123.1835 327.157C121.068823 330.125682 117.693523 331.61 113.0575 331.61zM142.2155 331C141.808831 331 141.453002 330.847502 141.148 330.5425 140.842998 330.237498 140.6905 329.881669 140.6905 329.475L140.6905 300.805C140.6905 300.357664 140.842998 299.991668 141.148 299.707 141.453002 299.422332 141.808831 299.28 142.2155 299.28L149.2915 299.28C149.738836 299.28 150.104832 299.422332 150.3895 299.707 150.674168 299.991668 150.8165 300.357664 150.8165 300.805L150.8165 302.879C151.792505 301.699661 153.053159 300.703337 154.5985 299.89 156.143841 299.076663 157.89249 298.67 159.8445 298.67 164.317856 298.67 167.388158 300.418649 169.0555 303.916 170.031505 302.370659 171.393825 301.110005 173.1425 300.134 174.891175 299.157995 176.761823 298.67 178.7545 298.67 182.089183 298.67 184.803656 299.798489 186.898 302.0555 188.992344 304.312511 190.0395 307.677644 190.0395 312.151L190.0395 329.475C190.0395 329.881669 189.897168 330.237498 189.6125 330.5425 189.327832 330.847502 188.961836 331 188.5145 331L181.0115 331C180.564164 331 180.188002 330.857668 179.883 330.573 179.577998 330.288332 179.4255 329.922336 179.4255 329.475L179.4255 312.578C179.4255 310.707324 179.029004 309.334838 178.236 308.4605 177.442996 307.586162 176.375507 307.149 175.0335 307.149 173.772827 307.149 172.746004 307.586162 171.953 308.4605 171.159996 309.334838 170.7635 310.707324 170.7635 312.578L170.7635 329.475C170.7635 329.881669 170.621168 330.237498 170.3365 330.5425 170.051832 330.847502 169.685836 331 169.2385 331L161.7355 331C161.288164 331 160.912002 330.857668 160.607 330.573 160.301998 330.288332 160.1495 329.922336 160.1495 329.475L160.1495 312.578C160.1495 310.707324 159.742837 309.334838 158.9295 308.4605 158.116163 307.586162 157.05884 307.149 155.7575 307.149 154.496827 307.149 153.459837 307.586162 152.6465 308.4605 151.833163 309.334838 151.4265 310.686991 151.4265 312.517L151.4265 329.475C151.4265 329.881669 151.284168 330.237498 150.9995 330.5425 150.714832 330.847502 150.348836 331 149.9015 331L142.2155 331zM211.5725 331.61C206.611142 331.61 202.707181 330.27818 199.8605 327.6145 197.013819 324.95082 195.549834 321.077359 195.4685 315.994L195.4685 314.103C195.631167 309.263642 197.135819 305.48168 199.9825 302.757 202.829181 300.03232 206.672142 298.67 211.5115 298.67 215.008851 298.67 217.967321 299.371493 220.387 300.7745 222.806679 302.177507 224.616327 304.109154 225.816 306.5695 227.015673 309.029846 227.6155 311.825651 227.6155 314.957L227.6155 316.482C227.6155 316.929336 227.463002 317.305498 227.158 317.6105 226.852998 317.915502 226.476836 318.068 226.0295 318.068L206.6925 318.068 206.6925 318.434C206.733167 320.264009 207.160163 321.738161 207.9735 322.8565 208.786837 323.974839 209.945826 324.534 211.4505 324.534 212.426505 324.534 213.20933 324.340835 213.799 323.9545 214.304431 323.623355 214.787448 323.210053 215.248061 322.714582L215.4765 322.46C215.842502 322.053331 216.137332 321.799167 216.361 321.6975 216.584668 321.595833 216.940498 321.545 217.4285 321.545L225.4195 321.545C225.785502 321.545 226.100665 321.656832 226.365 321.8805 226.629335 322.104168 226.7615 322.378665 226.7615 322.704 226.7615 323.761339 226.161673 325.00166 224.962 326.425 223.762327 327.84834 222.013678 329.068328 219.716 330.085 217.418322 331.101672 214.703849 331.61 211.5725 331.61zM206.6925 311.846L216.3915 311.846 216.3915 311.724C216.3915 309.77199 215.964504 308.257172 215.1105 307.1795 214.256496 306.101828 213.056841 305.563 211.5115 305.563 209.966159 305.563 208.776671 306.101828 207.943 307.1795 207.161434 308.189818 206.746232 309.584346 206.697385 311.363121L206.6925 311.846zM248.1725 331C247.725164 331 247.349002 330.857668 247.044 330.573 246.738998 330.288332 246.5865 329.922336 246.5865 329.475L246.5865 289.886C246.5865 289.438664 246.738998 289.062502 247.044 288.7575 247.349002 288.452498 247.725164 288.3 248.1725 288.3L255.0655 288.3C256.082172 288.3 256.814164 288.747329 257.2615 289.642L267.7535 308.43 278.3065 289.642C278.753836 288.747329 279.485828 288.3 280.5025 288.3L287.3955 288.3C287.842836 288.3 288.218998 288.452498 288.524 288.7575 288.829002 289.062502 288.9815 289.438664 288.9815 289.886L288.9815 329.475C288.9815 329.922336 288.829002 330.288332 288.524 330.573 288.218998 330.857668 287.842836 331 287.3955 331L279.6485 331C279.241831 331 278.886002 330.847502 278.581 330.5425 278.275998 330.237498 278.1235 329.881669 278.1235 329.475L278.1235 307.271 271.5355 319.349C271.006831 320.284338 270.295171 320.752 269.4005 320.752L266.1065 320.752C265.293163 320.752 264.581503 320.284338 263.9715 319.349L257.4445 307.271 257.4445 329.475C257.4445 329.922336 257.292002 330.288332 256.987 330.573 256.681998 330.857668 256.305836 331 255.8585 331L248.1725 331zM306.1835 331.61C304.028156 331.61 302.066009 331.193171 300.297 330.3595 298.527991 329.525829 297.145338 328.377007 296.149 326.913 295.152662 325.448993 294.6545 323.842675 294.6545 322.094 294.6545 319.328653 295.803322 317.081842 298.101 315.3535 300.398678 313.625158 303.56048 312.43567 307.5865 311.785L315.1505 310.626 315.1505 309.894C315.1505 308.389326 314.845503 307.291337 314.2355 306.6 313.625497 305.908663 312.588507 305.563 311.1245 305.563 310.311163 305.563 309.630003 305.705332 309.081 305.99 308.531997 306.274668 307.911837 306.701664 307.2205 307.271 306.691831 307.718336 306.224169 308.043666 305.8175 308.247 305.654833 308.531668 305.451501 308.674 305.2075 308.674L298.1315 308.674C297.724831 308.674 297.389335 308.541835 297.125 308.2775 296.893707 308.046207 296.779174 307.775999 296.781398 307.466868L296.7895 307.332C296.830167 306.233995 297.379161 305.00384 298.4365 303.6415 299.493839 302.27916 301.100156 301.110005 303.2555 300.134 305.410844 299.157995 308.074484 298.67 311.2465 298.67 316.289192 298.67 320.030488 299.778156 322.4705 301.9945 324.910512 304.210844 326.1305 307.209981 326.1305 310.992L326.1305 329.475C326.1305 329.881669 325.988168 330.237498 325.7035 330.5425 325.418832 330.847502 325.052836 331 324.6055 331L317.1025 331C316.695831 331 316.340002 330.847502 316.035 330.5425 315.729998 330.237498 315.5775 329.881669 315.5775 329.475L315.5775 327.34C314.682829 328.600673 313.442508 329.627496 311.8565 330.4205 310.270492 331.213504 308.379511 331.61 306.1835 331.61zM309.2335 324.412C311.022842 324.412 312.476661 323.822339 313.595 322.643 314.713339 321.463661 315.2725 319.755678 315.2725 317.519L315.2725 316.787 310.2095 317.641C306.793483 318.29167 305.0855 319.511658 305.0855 321.301 305.0855 322.236338 305.481996 322.988664 306.275 323.558 307.068004 324.127336 308.054161 324.412 309.2335 324.412zM346.0775 331.61C342.742817 331.61 339.957178 331.142338 337.7205 330.207 335.483822 329.271662 333.826672 328.15334 332.749 326.852 331.671328 325.55066 331.1325 324.371339 331.1325 323.314 331.1325 322.907331 331.284998 322.571835 331.59 322.3075 331.895002 322.043165 332.230498 321.911 332.5965 321.911L339.9775 321.911C340.221501 321.911 340.424833 321.992333 340.5875 322.155L341.292814 322.618855C341.547827 322.790841 341.699055 322.900555 341.7465 322.948 342.519171 323.517336 343.240997 323.954498 343.912 324.2595 344.583003 324.564502 345.386162 324.717 346.3215 324.717 347.419505 324.717 348.32433 324.503502 349.036 324.0765 349.74767 323.649498 350.1035 323.049671 350.1035 322.277 350.1035 321.62633 349.910335 321.097669 349.524 320.691 349.137665 320.284331 348.405672 319.887835 347.328 319.5015 346.250328 319.115165 344.613511 318.718669 342.4175 318.312 335.382131 316.88866 331.8645 313.635359 331.8645 308.552 331.8645 306.884658 332.403328 305.288508 333.481 303.7635 334.558672 302.238492 336.144656 301.008338 338.239 300.073 340.333344 299.137662 342.844485 298.67 345.7725 298.67 348.741182 298.67 351.313322 299.127495 353.489 300.0425 355.664678 300.957505 357.321828 302.055494 358.4605 303.3365 359.599172 304.617506 360.1685 305.786661 360.1685 306.844 360.1685 307.210002 360.036335 307.535332 359.772 307.82 359.507665 308.104668 359.192502 308.247 358.8265 308.247L352.1165 308.247C351.750498 308.247 351.465834 308.165667 351.2625 308.003 350.774498 307.758999 350.286502 307.454002 349.7985 307.088 349.066496 306.599998 348.426003 306.223835 347.877 305.9595 347.327997 305.695165 346.626504 305.563 345.7725 305.563 344.755828 305.563 343.962836 305.786664 343.3935 306.234 342.824164 306.681336 342.5395 307.250663 342.5395 307.942 342.5395 308.552003 342.712332 309.050165 343.058 309.4365 343.403668 309.822835 344.115328 310.198998 345.193 310.565L345.623337 310.703204C346.688614 311.027902 348.18199 311.368165 350.1035 311.724 354.088853 312.415337 356.986324 313.645491 358.796 315.4145 360.605676 317.183509 361.5105 319.247322 361.5105 321.606 361.5105 324.656015 360.158347 327.085824 357.454 328.8955 354.749653 330.705176 350.957524 331.61 346.0775 331.61zM383.4095 331C374.788124 331 370.4775 326.953707 370.4775 318.861L370.4775 307.576 365.6585 307.576C365.251831 307.576 364.896002 307.423502 364.591 307.1185 364.285998 306.813498 364.1335 306.457669 364.1335 306.051L364.1335 300.805C364.1335 300.357664 364.285998 299.991668 364.591 299.707 364.896002 299.422332 365.251831 299.28 365.6585 299.28L370.4775 299.28 370.4775 289.215C370.4775 288.767664 370.629998 288.401668 370.935 288.117 371.240002 287.832332 371.595831 287.69 372.0025 287.69L379.5055 287.69C379.952836 287.69 380.318832 287.832332 380.6035 288.117 380.888168 288.401668 381.0305 288.767664 381.0305 289.215L381.0305 299.28 388.6555 299.28C389.102836 299.28 389.478998 299.422332 389.784 299.707 390.089002 299.991668 390.2415 300.357664 390.2415 300.805L390.2415 306.051C390.2415 306.498336 390.089002 306.864332 389.784 307.149 389.478998 307.433668 389.102836 307.576 388.6555 307.576L381.0305 307.576 381.0305 317.946C381.0305 319.36934 381.294831 320.446996 381.8235 321.179 382.352169 321.911004 383.206161 322.277 384.3855 322.277L389.2045 322.277C389.651836 322.277 390.017832 322.429498 390.3025 322.7345 390.587168 323.039502 390.7295 323.415664 390.7295 323.863L390.7295 329.475C390.7295 329.881669 390.587168 330.237498 390.3025 330.5425 390.017832 330.847502 389.651836 331 389.2045 331L383.4095 331zM410.5545 331.61C405.593142 331.61 401.689181 330.27818 398.8425 327.6145 395.995819 324.95082 394.531834 321.077359 394.4505 315.994L394.4505 314.103C394.613167 309.263642 396.117819 305.48168 398.9645 302.757 401.811181 300.03232 405.654142 298.67 410.4935 298.67 413.990851 298.67 416.949321 299.371493 419.369 300.7745 421.788679 302.177507 423.598327 304.109154 424.798 306.5695 425.997673 309.029846 426.5975 311.825651 426.5975 314.957L426.5975 316.482C426.5975 316.929336 426.445002 317.305498 426.14 317.6105 425.834998 317.915502 425.458836 318.068 425.0115 318.068L405.6745 318.068 405.6745 318.434C405.715167 320.264009 406.142163 321.738161 406.9555 322.8565 407.768837 323.974839 408.927826 324.534 410.4325 324.534 411.408505 324.534 412.19133 324.340835 412.781 323.9545 413.286431 323.623355 413.769448 323.210053 414.230061 322.714582L414.4585 322.46C414.824502 322.053331 415.119332 321.799167 415.343 321.6975 415.566668 321.595833 415.922498 321.545 416.4105 321.545L424.4015 321.545C424.767502 321.545 425.082665 321.656832 425.347 321.8805 425.611335 322.104168 425.7435 322.378665 425.7435 322.704 425.7435 323.761339 425.143673 325.00166 423.944 326.425 422.744327 327.84834 420.995678 329.068328 418.698 330.085 416.400322 331.101672 413.685849 331.61 410.5545 331.61zM405.6745 311.846L415.3735 311.846 415.3735 311.724C415.3735 309.77199 414.946504 308.257172 414.0925 307.1795 413.238496 306.101828 412.038841 305.563 410.4935 305.563 408.948159 305.563 407.758671 306.101828 406.925 307.1795 406.143434 308.189818 405.728232 309.584346 405.679385 311.363121L405.6745 311.846zM433.6125 331C433.205831 331 432.850002 330.847502 432.545 330.5425 432.239998 330.237498 432.0875 329.881669 432.0875 329.475L432.0875 300.866C432.0875 300.418664 432.229832 300.042502 432.5145 299.7375 432.799168 299.432498 433.165164 299.28 433.6125 299.28L441.0545 299.28C441.501836 299.28 441.877998 299.432498 442.183 299.7375 442.488002 300.042502 442.6405 300.418664 442.6405 300.866L442.6405 303.184C443.779172 301.923327 445.110992 300.957503 446.636 300.2865 448.161008 299.615497 449.858824 299.28 451.7295 299.28L454.4745 299.28C454.921836 299.28 455.287832 299.422332 455.5725 299.707 455.857168 299.991668 455.9995 300.357664 455.9995 300.805L455.9995 307.454C455.9995 307.860669 455.857168 308.216498 455.5725 308.5215 455.287832 308.826502 454.921836 308.979 454.4745 308.979L448.3135 308.979C446.686825 308.979 445.436338 309.426329 444.562 310.321 443.687662 311.215671 443.2505 312.476325 443.2505 314.103L443.2505 329.475C443.2505 329.922336 443.098002 330.288332 442.793 330.573 442.487998 330.857668 442.111836 331 441.6645 331L433.6125 331zM274.925391 14.1654879L275.257533 14.6061999C276.453513 16.2372093 277.407955 18.0322546 278.09134 19.9358154L278.404154 20.8489033C281.684755 30.1911737 291.009905 36.0181736 300.844803 34.8713768L301.633904 34.7713612C312.994403 33.4298616 323.379051 41.4371338 324.929039 52.8183483 325.227082 55.0068154 325.178342 57.2274193 324.785667 59.3985732L324.609163 60.2974688C322.750129 70.0591973 327.932789 79.8083351 337.064013 83.7275498L337.728032 84.0056621C348.256616 88.5145138 353.25922 100.653571 348.907038 111.294531 348.070917 113.338821 346.918405 115.237551 345.492762 116.921488L344.890457 117.611702C338.399622 125.13609 338.013369 136.170421 343.961633 144.130172L344.401965 144.708822C351.260498 153.877582 349.522171 166.887621 340.434502 173.925391 338.688256 175.277738 336.740787 176.345829 334.664175 177.09134L333.751087 177.404154C324.408817 180.684755 318.581817 190.009905 319.728614 199.844803L319.828629 200.633904C321.170129 211.994403 313.162857 222.379051 301.781642 223.929039 299.593175 224.227082 297.372571 224.178342 295.201417 223.785667L294.302522 223.609163C284.540793 221.750129 274.791655 226.932789 270.872441 236.064013L270.594328 236.728032C266.085477 247.256616 253.946419 252.25922 243.305459 247.907038 241.261169 247.070917 239.36244 245.918405 237.678503 244.492762L236.988288 243.890457C229.463901 237.399622 218.429569 237.013369 210.469818 242.961633L209.891169 243.401965C200.722408 250.260498 187.712369 248.522171 180.6746 239.434502 179.322253 237.688256 178.254161 235.740787 177.50865 233.664175L177.195836 232.751087C173.915235 223.408817 164.590086 217.581817 154.755188 218.728614L153.966086 218.828629C142.605587 220.170129 132.220939 212.162857 130.670952 200.781642 130.372908 198.593175 130.421648 196.372571 130.814323 194.201417L130.990827 193.302522C132.849861 183.540793 127.667201 173.791655 118.535977 169.872441L117.871958 169.594328C107.343375 165.085477 102.34077 152.946419 106.692953 142.305459 107.529073 140.261169 108.681585 138.36244 110.107228 136.678503L110.709533 135.988288C117.200368 128.463901 117.586622 117.429569 111.638357 109.469818L111.198025 108.891169C104.339492 99.7224085 106.077819 86.7123692 115.165488 79.6745995 116.911734 78.3222527 118.859204 77.254161 120.935815 76.5086502L121.848903 76.1958362C131.191174 72.9152349 137.018174 63.5900858 135.871377 53.7551878L135.771361 52.9660863C134.429862 41.6055872 142.437134 31.2209395 153.818348 29.6709517 156.006815 29.3729082 158.227419 29.4216483 160.398573 29.8143229L161.297469 29.9908271C171.059197 31.8498612 180.808335 26.667201 184.72755 17.5359773L185.005662 16.8719585C189.514514 6.34337455 201.653571 1.34077 212.294531 5.69295269 214.338821 6.52907299 216.237551 7.68158508 217.921488 9.10722821L218.611702 9.70953311C226.13609 16.2003681 237.170421 16.5866217 245.130172 10.6383572L245.708822 10.1980252C254.781069 3.41168733 267.614151 5.04217552 274.701172 13.8809533L274.925391 14.1654879zM266.386555 20.7782243L266.208144 20.5542644C262.770667 16.3589062 256.642894 15.579931 252.265068 18.7817919L251.669027 19.2342477C239.500362 28.3833607 222.534911 27.6932197 211.14569 17.5260583 210.27745 16.75098 209.283298 16.1297653 208.206051 15.6891681 203.064413 13.5862238 197.203707 15.9734667 194.976348 21.0253038L194.68831 21.7108091C188.724493 35.7185063 173.686911 43.6035522 158.739975 40.4931425 157.600518 40.2560251 156.42895 40.2151131 155.275728 40.3721684 149.771467 41.1217841 145.889568 46.1195504 146.486537 51.6082491L146.520765 51.8877403C148.601762 67.1680398 139.484929 81.7580238 124.838837 86.5860783 123.73348 86.9504571 122.698416 87.5008102 121.778224 88.213435 117.387464 91.6137747 116.523758 97.8802924 119.781792 102.334922L120.234248 102.930963C129.383361 115.099629 128.69322 132.06508 118.526058 143.454301 117.75098 144.322541 117.129765 145.316692 116.689168 146.393939 114.586224 151.535577 116.973467 157.396284 122.025304 159.623643L122.710809 159.911681C136.718506 165.875498 144.603552 180.91308 141.493143 195.860015 141.256025 196.999472 141.215113 198.17104 141.372168 199.324262 142.121784 204.828523 147.11955 208.710423 152.608249 208.113453L152.88774 208.079225C168.16804 205.998228 182.758024 215.115062 187.586078 229.761153 187.950457 230.866511 188.50081 231.901574 189.213435 232.821766 192.613775 237.212526 198.880292 238.076232 203.334922 234.818198L203.930963 234.365743C216.099629 225.21663 233.06508 225.906771 244.454301 236.073932 245.322541 236.84901 246.316692 237.470225 247.393939 237.910822 252.535577 240.013767 258.396284 237.626524 260.623643 232.574687L260.911681 231.889181C266.875498 217.881484 281.91308 209.996438 296.860015 213.106848 297.999472 213.343965 299.17104 213.384877 300.324262 213.227822 305.828523 212.478206 309.710423 207.48044 309.113453 201.991741L309.079225 201.71225C306.998228 186.431951 316.115062 171.841967 330.761153 167.013912 331.866511 166.649533 332.901574 166.09918 333.821766 165.386555 338.212526 161.986216 339.076232 155.719698 335.818198 151.265068L335.365743 150.669027C326.21663 138.500362 326.906771 121.534911 337.073932 110.14569 337.84901 109.27745 338.470225 108.283298 338.910822 107.206051 341.013767 102.064413 338.626524 96.2037067 333.574687 93.9763477L332.889181 93.6883098C318.881484 87.7244926 310.996438 72.6869105 314.106848 57.7399752 314.343965 56.6005181 314.384877 55.4289503 314.227822 54.2757283 313.478206 48.7714672 308.48044 44.8895679 302.991741 45.4865369L302.71225 45.5207652C287.431951 47.6017624 272.841967 38.4849286 268.013912 23.8388372 267.69002 22.8562972 267.219185 21.9292981 266.618054 21.0891483L266.386555 20.7782243z"/>
    <path fill="#FFF" fill-rule="nonzero" d="M253.33128,27.2838861 L253.684975,27.6383113 C254.846456,28.8357604 255.831945,30.1921688 256.611869,31.6668352 L257.018376,32.4654432 C260.844656,39.8150604 269.245682,43.555438 277.267793,41.4810644 L277.996389,41.2837456 C287.250729,38.8716941 296.774804,44.3003964 299.383503,53.5468707 C299.882324,55.3149318 300.10119,57.1491434 300.033101,58.9829102 L299.987556,59.839448 C299.607505,68.1439826 305.03215,75.6121674 313.046617,77.8191085 L313.716668,77.996108 C322.953691,80.5231118 328.500793,89.9961035 326.134405,99.3173937 C325.682366,101.09799 324.954804,102.795897 323.978954,104.349941 L323.511242,105.068952 C319.029841,112.070865 319.993629,121.250825 325.83089,127.169325 L326.325341,127.660335 C333.058684,134.467498 333.125215,145.442911 326.416104,152.33128 C325.134329,153.647303 323.655288,154.753952 322.033155,155.611869 L321.234547,156.018376 C313.88493,159.844656 310.144552,168.245682 312.218926,176.267793 L312.416245,176.996389 C314.828296,186.250729 309.399594,195.774804 300.15312,198.383503 C298.385059,198.882324 296.550847,199.10119 294.71708,199.033101 L293.860542,198.987556 C285.556008,198.607505 278.087823,204.03215 275.880882,212.046617 L275.703882,212.716668 C273.176879,221.953691 263.703887,227.500793 254.382597,225.134405 C252.602,224.682366 250.904093,223.954804 249.350049,222.978954 L248.631038,222.511242 C241.629126,218.029841 232.449165,218.993629 226.530665,224.83089 L226.039655,225.325341 C219.232492,232.058684 208.25708,232.125215 201.36871,225.416104 C200.052687,224.134329 198.946038,222.655288 198.088121,221.033155 L197.681615,220.234547 C193.855335,212.88493 185.454309,209.144552 177.432198,211.218926 L176.703601,211.416245 C167.449261,213.828296 157.925187,208.399594 155.316488,199.15312 C154.817666,197.385059 154.5988,195.550847 154.666889,193.71708 L154.712435,192.860542 C155.092485,184.556008 149.66784,177.087823 141.653373,174.880882 L140.983322,174.703882 C131.7463,172.176879 126.199197,162.703887 128.565585,153.382597 C129.017624,151.602 129.745186,149.904093 130.721036,148.350049 L131.188749,147.631038 C135.670149,140.629126 134.706361,131.449165 128.8691,125.530665 L128.374649,125.039655 C121.641307,118.232492 121.574775,107.25708 128.283886,100.36871 C129.565661,99.0526874 131.044702,97.9460381 132.666835,97.0881214 L133.465443,96.6816145 C140.81506,92.8553346 144.555438,84.4543087 142.481064,76.4321977 L142.283746,75.7036014 C139.871694,66.4492611 145.300396,56.9251865 154.546871,54.3164876 C156.314932,53.8176662 158.149143,53.5988002 159.98291,53.6668892 L160.839448,53.7124346 C169.143983,54.0924849 176.612167,48.66784 178.819108,40.6533734 L178.996108,39.9833221 C181.523112,30.7462996 190.996104,25.1991972 200.317394,27.5655854 C202.09799,28.017624 203.795897,28.7451863 205.349941,29.7210364 L206.068952,30.1887489 C213.070865,34.6701494 222.250825,33.7063614 228.169325,27.8691003 L228.660335,27.3746491 C235.388345,20.7196014 246.188232,20.5772239 253.089344,27.0525956 L253.33128,27.2838861 Z M247.051763,33.7311844 L246.860367,33.5502814 C243.442805,30.4159489 238.129456,30.5471381 234.871878,33.8917548 C225.854288,43.150283 211.514824,44.6574214 200.769334,37.4760765 C199.954512,36.9315203 199.052728,36.5300204 198.102821,36.2888683 C193.575957,35.139637 188.975927,37.8070707 187.702328,42.268196 L187.533963,42.9040014 C184.214177,55.2185348 172.657094,63.5110097 159.893508,62.6732543 C158.915573,62.6090662 157.933856,62.7122488 156.990636,62.9783585 C152.502169,64.2446853 149.853317,68.8432229 150.968319,73.3372449 L151.154498,74.0262823 C154.416568,86.3405158 148.554319,99.2815841 137.092594,104.932563 C136.213583,105.365942 135.414982,105.94616 134.731184,106.648227 C131.412142,110.05595 131.484032,115.50907 134.891755,118.828112 C144.150283,127.845702 145.657421,142.185166 138.476077,152.930656 C137.93152,153.745479 137.53002,154.647262 137.288868,155.597169 C136.139637,160.124034 138.807071,164.724064 143.268196,165.997662 L143.904001,166.166028 C156.218535,169.485813 164.51101,181.042896 163.673254,193.806482 C163.609066,194.784417 163.712249,195.766135 163.978358,196.709354 C165.244685,201.197821 169.843223,203.846674 174.337245,202.731671 L175.026282,202.545492 C187.340516,199.283423 200.281584,205.145672 205.932563,216.607397 C206.365942,217.486408 206.94616,218.285009 207.648227,218.968806 C211.05595,222.287848 216.50907,222.215958 219.828112,218.808236 C228.845702,209.549707 243.185166,208.042569 253.930656,215.223914 C254.745479,215.76847 255.647262,216.16997 256.597169,216.411122 C261.124034,217.560353 265.724064,214.89292 266.997662,210.431794 L267.166028,209.795989 C270.485813,197.481456 282.042896,189.188981 294.806482,190.026736 C295.784417,190.090924 296.766135,189.987742 297.709354,189.721632 C302.197821,188.455305 304.846674,183.856767 303.731671,179.362745 L303.545492,178.673708 C300.283423,166.359475 306.145672,153.418406 317.607397,147.767427 C318.486408,147.334048 319.285009,146.75383 319.968806,146.051763 C323.287848,142.64404 323.215958,137.19092 319.808236,133.871878 C310.549707,124.854288 309.042569,110.514824 316.223914,99.7693344 C316.76847,98.9545117 317.16997,98.0527281 317.411122,97.1028211 C318.560353,92.5759566 315.89292,87.9759266 311.431794,86.7023282 L310.795989,86.5339627 C298.481456,83.2141773 290.188981,71.6570941 291.026736,58.8935084 C291.090924,57.9155731 290.987742,56.9338556 290.721632,55.990636 C289.455305,51.5021693 284.856767,48.8533165 280.362745,49.9683194 L279.673708,50.1544984 C267.359475,53.4165675 254.418406,47.5543187 248.767427,36.0925935 C248.38822,35.323459 247.89659,34.6158883 247.309278,33.9929226 L247.051763,33.7311844 Z"/>
    <path fill="#FFF" fill-rule="nonzero" d="M237.655913,42.2227799 C238.867121,43.1107022 239.932492,44.1806239 240.814624,45.3938156 L241.283457,46.0622586 C245.327635,51.7049263 252.730037,53.827531 259.149853,51.1853654 L259.811369,50.9036419 C267.076776,47.9106345 275.441478,51.2507439 278.624078,58.4819371 C279.229054,59.8565044 279.616731,61.3157691 279.774084,62.8074902 L279.84311,63.5923794 C280.513166,70.5238586 285.881513,76.0829448 292.785385,76.9944979 L293.434109,77.0726517 C301.241835,78.0959663 306.834706,85.1808271 305.973971,93.0468627 C305.812245,94.5248319 305.424573,95.9682043 304.825352,97.3267624 L304.617797,97.7764049 C301.52965,104.177283 303.369507,111.850091 308.981742,116.159864 L309.511231,116.557089 C315.755446,121.348426 317.05396,130.276393 312.37721,136.655913 C311.489288,137.867121 310.419366,138.932492 309.206175,139.814624 L308.537732,140.283457 C302.895064,144.327635 300.772459,151.730037 303.414625,158.149853 L303.696348,158.811369 C306.689356,166.076776 303.349246,174.441478 296.118053,177.624078 C294.743486,178.229054 293.284221,178.616731 291.7925,178.774084 L291.007611,178.84311 C284.076132,179.513166 278.517046,184.881513 277.605492,191.785385 L277.527339,192.434109 C276.504024,200.241835 269.419163,205.834706 261.553128,204.973971 C260.075158,204.812245 258.631786,204.424573 257.273228,203.825352 L256.823585,203.617797 C250.422708,200.52965 242.749899,202.369507 238.440126,207.981742 L238.042901,208.511231 C233.251564,214.755446 224.323597,216.05396 217.944077,211.37721 C216.732869,210.489288 215.667499,209.419366 214.785366,208.206175 L214.316534,207.537732 C210.272355,201.895064 202.869953,199.772459 196.450137,202.414625 L195.788621,202.696348 C188.523214,205.689356 180.158512,202.349246 176.975912,195.118053 C176.370936,193.743486 175.983259,192.284221 175.825906,190.7925 L175.756881,190.007611 C175.086825,183.076132 169.718477,177.517046 162.814605,176.605492 L162.165882,176.527339 C154.358155,175.504024 148.765285,168.419163 149.626019,160.553128 C149.787745,159.075158 150.175418,157.631786 150.774638,156.273228 L150.982194,155.823585 C154.070341,149.422708 152.230483,141.749899 146.618248,137.440126 L146.088759,137.042901 C139.844545,132.251564 138.54603,123.323597 143.22278,116.944077 C144.110702,115.732869 145.180624,114.667499 146.393816,113.785366 L147.062259,113.316534 C152.704926,109.272355 154.827531,101.869953 152.185365,95.450137 L151.903642,94.7886215 C148.910635,87.5232143 152.250744,79.158512 159.481937,75.9759124 C160.856504,75.3709365 162.315769,74.9832593 163.80749,74.825906 L164.592379,74.7568807 C171.523859,74.0868245 177.082945,68.7184773 177.994498,61.8146053 L178.072652,61.1658816 C179.095966,53.3581552 186.180827,47.7652847 194.046863,48.6260193 C195.524832,48.7877449 196.968204,49.1754177 198.326762,49.7746382 L198.776405,49.9821937 C205.177283,53.0703406 212.850091,51.2304831 217.159864,45.618248 L217.557089,45.0887589 C222.348426,38.8445446 231.276393,37.54603 237.655913,42.2227799 Z M233.399021,48.0295747 C230.139115,45.6397764 225.559124,46.3451381 223.169326,49.6050442 C216.84866,58.2270173 205.276387,61.112309 195.647799,56.4669314 C194.897774,56.1050769 194.091494,55.8738798 193.263683,55.7832972 C189.325984,55.3524176 185.776625,58.1297825 185.222409,62.022816 L185.148677,62.6322986 C183.829573,73.0813802 175.326167,81.1837952 164.788845,81.9658733 C163.958377,82.0275104 163.144519,82.2304279 162.382323,82.5658866 C158.763169,84.1587519 157.07757,88.3267038 158.530357,91.9706757 L158.79582,92.5948589 C162.852064,102.294502 159.536216,113.540298 150.813677,119.478082 C150.12529,119.946695 149.521927,120.529356 149.029575,121.20097 C146.639776,124.460876 147.345138,129.040866 150.605044,131.430664 C159.227017,137.75133 162.112309,149.323603 157.466931,158.952191 C157.105077,159.702216 156.87388,160.508496 156.783297,161.336307 C156.352418,165.274006 159.129782,168.823365 163.022816,169.377581 L163.632299,169.451313 C174.08138,170.770417 182.183795,179.273824 182.965873,189.811146 C183.02751,190.641613 183.230428,191.455471 183.565887,192.217668 C185.158752,195.836821 189.326704,197.52242 192.970676,196.069634 L193.594859,195.80417 C203.294502,191.747927 214.540298,195.063774 220.478082,203.786313 C220.946695,204.474701 221.529356,205.078063 222.20097,205.570416 C225.390008,207.908262 229.84236,207.284057 232.271739,204.203921 L232.430664,203.994946 C238.75133,195.372973 250.323603,192.487681 259.952191,197.133059 C260.702216,197.494914 261.508496,197.726111 262.336307,197.816693 C266.274006,198.247573 269.823365,195.470208 270.377581,191.577174 L270.451313,190.967692 C271.770417,180.51861 280.273824,172.416195 290.811146,171.634117 C291.641613,171.57248 292.455471,171.369562 293.217668,171.034104 C296.836821,169.441238 298.52242,165.273287 297.069634,161.629315 L296.80417,161.005131 C292.747927,151.305489 296.063774,140.059693 304.786313,134.121909 C305.474701,133.653295 306.078063,133.070635 306.570416,132.399021 C308.908262,129.209982 308.284057,124.75763 305.203921,122.328251 L304.994946,122.169326 C296.372973,115.84866 293.487681,104.276387 298.133059,94.6477992 C298.494914,93.8977743 298.726111,93.0914942 298.816693,92.2636834 C299.247573,88.3259839 296.470208,84.7766255 292.577174,84.2224095 L291.967692,84.1486773 C281.51861,82.8295731 273.416195,74.3261668 272.634117,63.7888448 C272.57248,62.9583769 272.369562,62.1445193 272.034104,61.3823228 C270.441238,57.7631693 266.273287,56.0775703 262.629315,57.5303568 L262.005131,57.7958203 C252.305489,61.8520636 241.059693,58.5362159 235.121909,49.8136773 C234.653295,49.1252896 234.070635,48.521927 233.399021,48.0295747 Z"/>
    <path fill="#FFF" fill-rule="nonzero" d="M225.971442,57.0973768 C226.858383,57.6180777 227.672405,58.2540614 228.392209,58.9886876 L228.922718,59.5538525 C232.917731,63.7259518 239.259469,64.617225 244.249709,61.7079206 L244.810755,61.3709329 C250.239637,58.2103247 257.230987,59.9324108 260.557464,65.3068262 C261.17697,66.3077305 261.640598,67.3960905 261.933233,68.5344986 L262.104638,69.2668678 C263.472242,74.8968327 268.536016,78.8530867 274.329601,78.8180554 L274.936412,78.8069707 C281.22929,78.7711285 286.436233,83.7629389 286.630091,90.0887943 C286.666147,91.2653562 286.52348,92.4397173 286.207706,93.5719253 L285.989963,94.2918782 C284.35936,99.8513729 286.76659,105.809476 291.801497,108.675931 L292.336557,108.972019 C297.80125,112.088518 299.812975,119.013003 296.818665,124.586922 C296.261609,125.623882 295.550876,126.569576 294.711303,127.392209 L294.146138,127.922718 C289.974039,131.917731 289.082765,138.259469 291.99207,143.249709 L292.329057,143.810755 C295.489666,149.239637 293.76758,156.230987 288.393164,159.557464 C287.39226,160.17697 286.3039,160.640598 285.165492,160.933233 L284.433123,161.104638 C278.803158,162.472242 274.846904,167.536016 274.881935,173.329601 L274.89302,173.936412 C274.928862,180.22929 269.937051,185.436233 263.611196,185.630091 C262.434634,185.666147 261.260273,185.52348 260.128065,185.207706 L259.408112,184.989963 C253.848618,183.35936 247.890514,185.76659 245.02406,190.801497 L244.727971,191.336557 C241.611473,196.80125 234.686988,198.812975 229.113068,195.818665 C228.076108,195.261609 227.130415,194.550876 226.307781,193.711303 L225.777272,193.146138 C221.782259,188.974039 215.440521,188.082765 210.450281,190.99207 L209.889236,191.329057 C204.460354,194.489666 197.469003,192.76758 194.142527,187.393164 C193.52302,186.39226 193.059393,185.3039 192.766757,184.165492 L192.595352,183.433123 C191.227748,177.803158 186.163974,173.846904 180.37039,173.881935 L179.763579,173.89302 C173.4707,173.928862 168.263758,168.937051 168.069899,162.611196 C168.033843,161.434634 168.17651,160.260273 168.492284,159.128065 L168.710028,158.408112 C170.34063,152.848618 167.9334,146.890514 162.898493,144.02406 L162.363433,143.727971 C156.898741,140.611473 154.887015,133.686988 157.881326,128.113068 C158.438381,127.076108 159.149115,126.130415 159.988688,125.307781 L160.553852,124.777272 C164.725952,120.782259 165.617225,114.440521 162.707921,109.450281 L162.370933,108.889236 C159.210325,103.460354 160.932411,96.4690035 166.306826,93.1425267 C167.307731,92.5230203 168.39609,92.0593927 169.534499,91.7667575 L170.266868,91.5953523 C175.896833,90.2277482 179.853087,85.163974 179.818055,79.3703897 L179.806971,78.7635788 C179.771129,72.4707002 184.762939,67.2637575 191.088794,67.0698994 C192.265356,67.0338432 193.439717,67.1765099 194.571925,67.4922845 L195.291878,67.7100279 C200.851373,69.3406304 206.809476,66.9334003 209.675931,61.8984935 L209.972019,61.3634335 C213.038251,55.986881 219.790623,53.9528081 225.316184,56.7403403 L225.586922,56.8813259 L225.971442,57.0973768 Z M222.82337,61.5314837 C219.896855,60.0956484 216.350355,61.1620682 214.700834,63.9729688 L214.583559,64.1817467 C210.498317,71.7864408 201.569049,75.3940992 193.347706,72.7615883 C192.671692,72.5451255 191.963693,72.4456227 191.254202,72.4673654 C187.886971,72.5705554 185.224916,75.3236619 185.20692,78.6652101 L185.217257,79.2528364 C185.309054,87.7321039 179.427924,95.1367966 171.108946,96.9422179 C170.415269,97.0927627 169.752373,97.3605902 169.148806,97.7341657 C166.290645,99.5032151 165.359569,103.205968 166.999657,106.105976 L167.333008,106.662248 C171.628296,113.954756 170.232106,123.288289 163.939929,129.002638 C163.41446,129.479852 162.974288,130.043245 162.638372,130.668554 C161.007889,133.703705 162.146597,137.485948 165.181747,139.116431 C172.786441,143.201674 176.394099,152.130942 173.761588,160.352284 C173.545125,161.028298 173.445623,161.736297 173.467365,162.445789 C173.570555,165.81302 176.323662,168.475074 179.66521,168.49307 L180.252836,168.482734 C188.732104,168.390936 196.136797,174.272067 197.942218,182.591045 C198.092763,183.284721 198.36059,183.947618 198.734166,184.551184 C200.503215,187.409345 204.205968,188.340422 207.105976,186.700333 L207.662248,186.366982 C214.954756,182.071694 224.288289,183.467884 230.002638,189.760061 C230.479852,190.285531 231.043245,190.725702 231.668554,191.061618 C234.703705,192.692101 238.485948,191.553394 240.116431,188.518244 C244.201674,180.91355 253.130942,177.305891 261.352284,179.938402 C262.028298,180.154865 262.736297,180.254368 263.445789,180.232625 C266.81302,180.129435 269.475074,177.376328 269.49307,174.03478 L269.482734,173.447154 C269.390936,164.967886 275.272067,157.563194 283.591045,155.757773 C284.284721,155.607228 284.947618,155.3394 285.551184,154.965825 C288.409345,153.196775 289.340422,149.494023 287.700333,146.594014 L287.366982,146.037742 C283.071694,138.745234 284.467884,129.411702 290.760061,123.697353 C291.285531,123.220139 291.725702,122.656745 292.061618,122.031436 C293.692101,118.996286 292.553394,115.214043 289.518244,113.583559 C281.91355,109.498317 278.305891,100.569049 280.938402,92.3477064 C281.154865,91.6716922 281.254368,90.9636934 281.232625,90.2542016 C281.129435,86.8869709 278.376328,84.2249163 275.03478,84.2069203 L274.447154,84.2172565 C265.967886,84.3090541 258.563194,78.4279238 256.757773,70.1089458 C256.607228,69.415269 256.3394,68.7523727 255.965825,68.1488061 C254.196775,65.2906452 250.494023,64.3595687 247.594014,65.9996572 L247.037742,66.333008 C239.745234,70.628296 230.411702,69.2321062 224.697353,62.9399291 C224.288312,62.4895267 223.815956,62.1017924 223.295564,61.7886639 L223.031436,61.6383722 L222.82337,61.5314837 Z"/>
    <path fill="#FFF" fill-rule="nonzero" d="M218.72689,71.4929029 C219.559542,71.8409931 220.336329,72.311578 221.031251,72.8896471 C224.873815,76.0860754 230.414522,76.1513086 234.326398,73.0853468 L234.788909,72.7121196 C238.638765,69.7039711 244.208695,70.2811688 247.354882,74.0633358 C248.015533,74.8575321 248.535796,75.7586539 248.893265,76.7278921 C250.625528,81.4247355 255.40358,84.2530943 260.332563,83.5416221 L260.881556,83.4550926 C265.725309,82.7660063 270.268901,86.0526107 271.103354,90.906152 C271.256516,91.7970065 271.275661,92.7050158 271.16079,93.600159 L271.058368,94.2674278 C270.360578,99.1016227 273.067781,103.790635 277.603211,105.603429 L278.121918,105.802989 C282.661275,107.628099 284.952839,112.746178 283.248726,117.366695 C282.891257,118.335933 282.370994,119.237054 281.710343,120.031251 C278.513915,123.873815 278.448682,129.414522 281.514644,133.326398 L281.887871,133.788909 C284.896019,137.638765 284.318822,143.208695 280.536655,146.354882 C279.742458,147.015533 278.841337,147.535796 277.872098,147.893265 C273.175255,149.625528 270.346896,154.40358 271.058368,159.332563 L271.144898,159.881556 C271.833984,164.725309 268.54738,169.268901 263.693838,170.103354 C262.802984,170.256516 261.894975,170.275661 260.999831,170.16079 L260.332563,170.058368 C255.498368,169.360578 250.809355,172.067781 248.996562,176.603211 L248.797002,177.121918 C246.971891,181.661275 241.853813,183.952839 237.233296,182.248726 C236.264058,181.891257 235.362936,181.370994 234.56874,180.710343 C230.726175,177.513915 225.185468,177.448682 221.273592,180.514644 L220.811082,180.887871 C216.961225,183.896019 211.391295,183.318822 208.245108,179.536655 C207.584458,178.742458 207.064195,177.841337 206.706726,176.872098 C204.974462,172.175255 200.196411,169.346896 195.267428,170.058368 L194.718435,170.144898 C189.874681,170.833984 185.33109,167.54738 184.496636,162.693838 C184.343475,161.802984 184.32433,160.894975 184.439201,159.999831 L184.541622,159.332563 C185.239412,154.498368 182.532209,149.809355 177.996779,147.996562 L177.478072,147.797002 C172.938716,145.971891 170.647152,140.853813 172.351265,136.233296 C172.708734,135.264058 173.228997,134.362936 173.889647,133.56874 C177.086075,129.726175 177.151309,124.185468 174.085347,120.273592 L173.71212,119.811082 C170.703971,115.961225 171.281169,110.391295 175.063336,107.245108 C175.857532,106.584458 176.758654,106.064195 177.727892,105.706726 C182.424736,103.974462 185.253094,99.1964108 184.541622,94.2674278 L184.455093,93.7184347 C183.766006,88.8746814 187.052611,84.3310896 191.906152,83.4966364 C192.797006,83.3434748 193.705016,83.3243296 194.600159,83.4392008 L195.267428,83.5416221 C200.101623,84.2394121 204.790635,81.5322094 206.603429,76.9967789 L206.802989,76.4780721 C208.594915,72.0212493 213.561154,69.7312245 218.114196,71.2622654 L218.366695,71.3512649 L218.72689,71.4929029 Z M216.907505,74.6550053 C214.198859,73.7789378 211.264065,75.1307537 210.169043,77.7578199 L209.966549,78.2819842 C207.50509,84.51076 201.003198,88.1845016 194.37293,87.0445817 C193.758507,86.938946 193.130562,86.938946 192.516138,87.0445817 C189.606566,87.5448148 187.630084,90.2537895 188.01153,93.1550097 L188.096772,93.6988882 C189.079474,100.323896 185.285541,106.756395 178.973601,109.08433 C178.388677,109.300058 177.84486,109.614031 177.365572,110.012726 C175.039184,111.947926 174.722064,115.402626 176.657265,117.729014 C181.030128,122.985822 181.030128,130.614168 176.657265,135.870976 C176.25857,136.350264 175.944597,136.894081 175.728869,137.479005 C174.707936,140.247153 176.063401,143.311223 178.763283,144.433221 L179.281984,144.633441 C185.51076,147.0949 189.184502,153.596792 188.044582,160.22706 C187.938946,160.841483 187.938946,161.469429 188.044582,162.083852 C188.544815,164.993424 191.25379,166.969907 194.15501,166.58846 L194.698888,166.503218 C201.323896,165.520516 207.756395,169.314449 210.08433,175.626389 C210.300058,176.211313 210.614031,176.75513 211.012726,177.234418 C212.947926,179.560806 216.402626,179.877926 218.729014,177.942726 C223.985822,173.569862 231.614168,173.569862 236.870976,177.942726 C237.350264,178.341421 237.894081,178.655393 238.479005,178.871122 C241.247153,179.892055 244.311223,178.53659 245.433221,175.836707 L245.633441,175.318006 C248.0949,169.08923 254.596792,165.415489 261.22706,166.555409 C261.841483,166.661044 262.469429,166.661044 263.083852,166.555409 C265.993424,166.055176 267.969907,163.346201 267.58846,160.444981 L267.503218,159.901102 C266.520516,153.276095 270.314449,146.843595 276.626389,144.515661 C277.211313,144.299932 277.75513,143.98596 278.234418,143.587265 C280.560806,141.652064 280.877926,138.197364 278.942726,135.870976 C274.569862,130.614168 274.569862,122.985822 278.942726,117.729014 C279.341421,117.249726 279.655393,116.70591 279.871122,116.120986 C280.892055,113.352837 279.53659,110.288767 276.836707,109.166769 L276.318006,108.966549 C270.08923,106.50509 266.415489,100.003198 267.555409,93.3729302 C267.661044,92.7585069 267.661044,92.1305617 267.555409,91.5161384 C267.055176,88.6065663 264.346201,86.6300838 261.444981,87.0115299 L260.901102,87.0967724 C254.276095,88.0794743 247.843595,84.2855414 245.515661,77.973601 C245.299932,77.388677 244.98596,76.8448604 244.587265,76.3655722 C242.652064,74.0391841 239.197364,73.7220641 236.870976,75.6572647 C231.614168,80.0301283 223.985822,80.0301283 218.729014,75.6572647 C218.329608,75.325019 217.885389,75.0516081 217.409914,74.8448574 L217.120986,74.7288688 L216.907505,74.6550053 Z"/>
    <path fill="#FFF" fill-rule="nonzero" d="M214.206041,84.0713049 C214.738066,84.2143365 215.253259,84.4228379 215.751247,84.6987225 L216.2739,85.0079987 C219.887009,87.085405 224.466965,86.4477308 227.363677,83.4464699 L227.738988,83.0469457 C230.27901,80.4491228 234.440426,80.307792 237.152424,82.7707398 C237.64215,83.2154923 238.064115,83.7293482 238.416109,84.3148491 L238.568558,84.583308 C240.60506,88.3742651 245.006013,90.214202 249.117874,89.0310181 L249.608107,88.8826216 C253.111407,87.8926591 256.79522,89.8516026 257.914064,93.3457567 C258.115937,93.9762056 258.224315,94.6322221 258.236263,95.292914 L258.229862,95.8973942 C258.22598,100.085062 261.082093,103.74072 265.146308,104.750041 L265.650063,104.867912 C269.176078,105.764304 271.384425,109.301056 270.606663,112.88481 C270.466359,113.5313 270.232329,114.153661 269.901268,114.751247 L269.591992,115.2739 C267.514585,118.887009 268.15226,123.466965 271.15352,126.363677 L271.553045,126.738988 C274.150868,129.27901 274.292198,133.440426 271.829251,136.152424 C271.384498,136.64215 270.870642,137.064115 270.285141,137.416109 L270.016682,137.568558 C266.225725,139.60506 264.385788,144.006013 265.568972,148.117874 L265.717369,148.608107 C266.707331,152.111407 264.748388,155.79522 261.254234,156.914064 C260.623785,157.115937 259.967768,157.224315 259.307076,157.236263 L258.702596,157.229862 C254.514929,157.22598 250.859271,160.082093 249.84995,164.146308 L249.732079,164.650063 C248.835687,168.176077 245.298935,170.384425 241.715182,169.606663 C241.068691,169.466359 240.44633,169.232329 239.848744,168.901267 L239.326092,168.591992 C235.712984,166.514585 231.133027,167.152259 228.236316,170.153519 L227.861003,170.553045 C225.32098,173.150868 221.159564,173.292198 218.447565,170.82925 C217.95784,170.384497 217.535875,169.870641 217.183881,169.28514 L217.031433,169.016682 C214.99493,165.225725 210.593977,163.385788 206.482117,164.568972 L205.991884,164.717369 C202.488584,165.707331 198.80477,163.748388 197.685926,160.254234 C197.484054,159.623785 197.375675,158.967768 197.363727,158.307076 L197.370128,157.702596 C197.37401,153.514929 194.517897,149.859271 190.453682,148.84995 L189.949928,148.732079 C186.423913,147.835687 184.215566,144.298935 184.993328,140.715182 C185.133632,140.068691 185.367662,139.44633 185.698723,138.848744 L186.007999,138.326092 C188.085405,134.712984 187.447732,130.133027 184.446472,127.236316 L184.046946,126.861003 C181.449123,124.32098 181.307792,120.159564 183.770741,117.447565 C184.215493,116.95784 184.729349,116.535875 185.31485,116.183881 L185.583308,116.031433 C189.374265,113.99493 191.214202,109.593977 190.031018,105.482117 L189.882622,104.991884 C188.892659,101.488584 190.851603,97.8047702 194.345757,96.6859263 C194.976206,96.4840537 195.632222,96.3756754 196.292914,96.3637274 L196.897394,96.3701279 C201.085062,96.3740104 204.74072,93.5178975 205.750041,89.4536823 L205.867912,88.9499275 C206.744384,85.5022686 210.145171,83.3143644 213.645991,83.9458818 L213.88481,83.993327 L214.206041,84.0713049 Z M213.28491,85.7100088 C210.741774,85.2737129 208.280159,86.857399 207.623011,89.3526048 L207.571144,89.568686 C206.475677,94.6163515 201.998719,98.1917606 196.859978,98.1700435 L196.285012,98.1643288 C195.813212,98.1766899 195.345062,98.2559705 194.894671,98.4001879 C192.340353,99.218092 190.902536,101.901402 191.604053,104.463711 L191.750895,104.950026 C193.160565,109.788832 191.069035,114.969277 186.713152,117.462942 L186.223968,117.737272 C185.80764,117.987784 185.430054,118.297848 185.103245,118.657702 C183.305826,120.636874 183.395967,123.666572 185.276457,125.544776 L185.686571,125.931722 C189.301486,129.420542 190.06015,134.923437 187.560807,139.237329 L187.262738,139.739461 C187.027443,140.164574 186.855476,140.621891 186.752379,141.096939 C186.183546,143.717995 187.788451,146.304835 190.358235,146.978458 L190.568686,147.028847 C195.616351,148.124313 199.191761,152.601272 199.170044,157.740013 L199.164329,158.314978 C199.17669,158.786778 199.255971,159.254928 199.400188,159.705319 C200.218092,162.259637 202.901402,163.697454 205.463711,162.995937 L205.950026,162.849096 C210.883711,161.411784 216.172563,163.614323 218.606506,168.145669 L218.737272,168.376023 C218.987784,168.79235 219.297848,169.169937 219.657702,169.496745 C221.636874,171.294164 224.666572,171.204023 226.544776,169.323534 L226.931722,168.91342 C230.420542,165.298504 235.923437,164.53984 240.237329,167.039183 L240.739461,167.337253 C241.164574,167.572547 241.621891,167.744515 242.096939,167.847612 C244.717995,168.416445 247.304835,166.811539 247.978458,164.241756 L248.028847,164.031304 C249.124313,158.983639 253.601272,155.40823 258.740013,155.429947 L259.314978,155.435662 C259.786778,155.423301 260.254928,155.34402 260.705319,155.199802 C263.259637,154.381898 264.697454,151.698589 263.995937,149.13628 L263.849096,148.649965 C262.411784,143.71628 264.614323,138.427427 269.14567,135.993484 L269.376024,135.862718 C269.792351,135.612206 270.169938,135.302142 270.496746,134.942287 C272.294164,132.963116 272.204023,129.933419 270.323534,128.055215 L269.913421,127.668271 C266.298505,124.179451 265.539841,118.676555 268.039183,114.362663 L268.337253,113.86053 C268.572548,113.435417 268.744515,112.9781 268.847612,112.503053 C269.416445,109.881996 267.81154,107.295155 265.241756,106.621532 L265.031304,106.571144 C259.983639,105.475677 256.40823,100.998719 256.429947,95.8599778 L256.435662,95.285012 C256.423301,94.813212 256.34402,94.3450625 256.199802,93.894671 C255.381898,91.3403532 252.698589,89.9025361 250.13628,90.6040534 L249.649965,90.7508948 C244.71628,92.1882061 239.427427,89.9856679 236.993484,85.4543209 L236.862718,85.2239668 C236.612206,84.8076392 236.302142,84.4300526 235.942287,84.1032444 C233.963116,82.3058261 230.933419,82.3959673 229.055215,84.2764565 L228.668271,84.6865692 C225.179451,88.3014855 219.676555,89.0601497 215.362663,86.5608073 L214.86053,86.2627372 C214.520439,86.0745014 214.159738,85.9267952 213.785837,85.8224565 L213.503053,85.7523783 L213.28491,85.7100088 Z"/>
    <path fill="#FFF" fill-rule="nonzero" d="M211.630099,93.9872903 C212.127776,94.0242278 212.61755,94.1316968 213.096668,94.3110178 L213.362003,94.4191024 C216.688871,95.8833267 220.584035,94.8358696 222.723075,91.9173422 L223.025002,91.4922183 C224.703141,89.2509861 227.86495,88.7069378 230.202806,90.2984108 C230.615338,90.5792382 230.985761,90.917196 231.311028,91.3120515 L231.486773,91.5383231 C233.644196,94.4812481 237.553403,95.5105824 240.868802,94.0415043 L241.296567,93.844566 C243.875329,92.7268423 246.899265,93.8356395 248.131683,96.3901018 C248.392099,96.9298727 248.558485,97.5101289 248.623674,98.1058802 C249.020595,101.73324 251.891401,104.579273 255.49716,104.964713 L255.97159,105.008679 C258.760933,105.332697 260.822488,107.80352 260.6127,110.630099 C260.575763,111.127776 260.468294,111.61755 260.288973,112.096668 L260.180888,112.362003 C258.716664,115.688871 259.764121,119.584035 262.682648,121.723075 L263.107772,122.025002 C265.349004,123.70314 265.893053,126.86495 264.30158,129.202806 C264.020752,129.615338 263.682794,129.985761 263.287939,130.311028 L263.061667,130.486773 C260.118742,132.644196 259.089408,136.553403 260.558486,139.868802 L260.755424,140.296567 C261.873148,142.875329 260.764351,145.899265 258.209889,147.131683 C257.670118,147.392099 257.089862,147.558485 256.49411,147.623674 C252.866751,148.020595 250.020718,150.891401 249.635277,154.497159 L249.591312,154.97159 C249.267294,157.760932 246.79647,159.822488 243.969892,159.6127 C243.472215,159.575762 242.982441,159.468293 242.503323,159.288972 L242.237989,159.180888 C238.911121,157.716663 235.015957,158.76412 232.876918,161.682647 L232.574989,162.107772 C230.89685,164.349004 227.73504,164.893053 225.397184,163.301579 C224.984651,163.020752 224.614229,162.682794 224.288962,162.287938 L224.113218,162.061667 C221.955794,159.118742 218.046587,158.089408 214.731188,159.558486 L214.303424,159.755424 C211.724662,160.873148 208.700725,159.764351 207.468308,157.209889 C207.207891,156.670118 207.041506,156.089862 206.976316,155.49411 C206.579395,151.866751 203.70859,149.020718 200.102831,148.635277 L199.628401,148.591312 C196.839058,148.267294 194.777503,145.79647 194.987291,142.969892 C195.024228,142.472215 195.131697,141.982441 195.311018,141.503323 L195.419103,141.237989 C196.883327,137.911121 195.835871,134.015957 192.917344,131.876918 L192.492219,131.574989 C190.250986,129.89685 189.706938,126.73504 191.298412,124.397184 C191.579239,123.984651 191.917197,123.614229 192.312052,123.288962 L192.538323,123.113218 C195.481248,120.955794 196.510582,117.046587 195.041504,113.731188 L194.844566,113.303424 C193.726842,110.724662 194.83564,107.700725 197.390102,106.468308 C197.929873,106.207891 198.510129,106.041506 199.10588,105.976316 C202.73324,105.579395 205.579273,102.70859 205.964713,99.1028309 L206.008679,98.6284006 C206.332697,95.8390577 208.803521,93.7775021 211.630099,93.9872903 Z M211.563484,94.8848216 C209.231102,94.7117126 207.19087,96.4038603 206.906585,98.6997413 L206.860883,99.1866016 C206.435782,103.217067 203.256719,106.427486 199.203778,106.870976 C198.709824,106.925026 198.228717,107.062981 197.781178,107.2789 C195.672785,108.296108 194.75221,110.785303 195.658135,112.91704 L195.859495,113.355651 C197.506584,117.058683 196.358862,121.428355 193.080638,123.831362 L192.874552,123.991408 C192.555441,124.25447 192.275231,124.561597 192.042389,124.903639 C190.727566,126.835099 191.17074,129.444851 193.018193,130.844055 L193.443005,131.146425 C196.708096,133.539374 197.877237,137.887042 196.247833,141.588762 L196.14938,141.83041 C196.004554,142.217783 195.915448,142.623868 195.884822,143.036507 C195.711713,145.368889 197.403861,147.40912 199.699741,147.693405 L200.186602,147.739108 C204.217067,148.164208 207.427486,151.343271 207.870976,155.396213 C207.925026,155.890167 208.062981,156.371274 208.2789,156.818813 C209.296108,158.927206 211.785303,159.84778 213.91704,158.941855 L214.355651,158.740495 C218.058683,157.093406 222.428355,158.241129 224.831362,161.519352 L224.991408,161.725439 C225.25447,162.044549 225.561597,162.324759 225.903639,162.557601 C227.835099,163.872424 230.444851,163.429251 231.844055,161.581798 L232.146425,161.156986 C234.539374,157.891895 238.887042,156.722754 242.588762,158.352157 L242.83041,158.45061 C243.217783,158.595437 243.623868,158.684542 244.036507,158.715168 C246.368889,158.888277 248.40912,157.19613 248.693405,154.900249 L248.739108,154.413389 C249.164208,150.382924 252.343271,147.172504 256.396213,146.729015 C256.890167,146.674964 257.371274,146.537009 257.818813,146.321091 C259.927206,145.303882 260.84778,142.814687 259.941855,140.68295 L259.740495,140.24434 C258.093406,136.541308 259.241129,132.171635 262.519352,129.768629 L262.72544,129.608582 C263.04455,129.34552 263.32476,129.038393 263.557602,128.696351 C264.872424,126.764891 264.429251,124.15514 262.581798,122.755936 L262.156988,122.453567 C258.891896,120.060619 257.722754,115.71295 259.352157,112.011229 L259.450611,111.769581 C259.595437,111.382208 259.684543,110.976122 259.715169,110.563484 C259.888278,108.231102 258.19613,106.19087 255.900249,105.906585 L255.413389,105.860883 C251.382924,105.435782 248.172505,102.256719 247.729015,98.2037776 C247.674964,97.7098235 247.537009,97.2287168 247.321091,96.7811775 C246.303882,94.6727846 243.814687,93.7522104 241.68295,94.6581354 L241.24434,94.8594953 C237.541308,96.5065845 233.171635,95.3588618 230.768629,92.0806382 L230.608582,91.8745509 C230.34552,91.5554408 230.038393,91.2752303 229.696351,91.0423884 C227.764891,89.7275661 225.15514,90.1707397 223.755936,92.0181922 L223.453567,92.4430028 C221.060619,95.7080949 216.71295,96.8772361 213.011229,95.2478331 L212.769581,95.1493798 C212.382208,95.0045531 211.976122,94.9154475 211.563484,94.8848216 Z"/>
    <path fill="#FFF" fill-rule="nonzero" d="M211.239422,102.474004 C211.713451,102.442891 212.189315,102.492906 212.646517,102.621896 C215.541044,103.438526 218.601166,102.137994 220.03153,99.5196429 L220.260266,99.0816872 C221.337708,97.1569954 223.746507,96.3928227 225.747911,97.3795756 C226.17399,97.5896453 226.561092,97.8708913 226.892545,98.2112011 C228.99612,100.370981 232.3076,100.771428 234.858048,99.2055998 L235.244869,98.9590222 C237.141811,97.8218668 239.617451,98.3629126 240.859846,100.221916 C241.123806,100.616881 241.318423,101.053998 241.435316,101.514442 C242.177175,104.436653 244.844777,106.43919 247.836444,106.358368 L248.29473,106.338236 C250.506107,106.301901 252.379552,108.00828 252.525996,110.239422 C252.557109,110.713451 252.507094,111.189315 252.378104,111.646517 C251.561474,114.541044 252.862006,117.601166 255.480357,119.03153 L255.918313,119.260266 C257.843005,120.337708 258.607177,122.746507 257.620424,124.747911 C257.410355,125.17399 257.129109,125.561092 256.788799,125.892545 C254.629019,127.99612 254.228572,131.3076 255.7944,133.858048 L256.040978,134.244869 C257.178133,136.141811 256.637087,138.617451 254.778084,139.859846 C254.383119,140.123806 253.946002,140.318423 253.485558,140.435316 C250.563347,141.177175 248.56081,143.844777 248.641632,146.836444 L248.661764,147.29473 C248.698099,149.506107 246.99172,151.379552 244.760578,151.525996 C244.286549,151.557109 243.810685,151.507094 243.353483,151.378104 C240.458956,150.561474 237.398834,151.862006 235.96847,154.480357 L235.739734,154.918313 C234.662292,156.843005 232.253493,157.607177 230.252089,156.620424 C229.911226,156.452369 229.595308,156.23876 229.312871,155.9858 L229.107455,155.788799 C227.00388,153.629019 223.6924,153.228572 221.141952,154.7944 L220.755131,155.040978 C218.858189,156.178133 216.382549,155.637087 215.140154,153.778084 C214.876194,153.383119 214.681577,152.946002 214.564684,152.485558 C213.822825,149.563347 211.155223,147.56081 208.163556,147.641632 L207.70527,147.661764 C205.493893,147.698099 203.620448,145.99172 203.474004,143.760578 C203.442891,143.286549 203.492906,142.810685 203.621896,142.353483 C204.438526,139.458956 203.137994,136.398834 200.519643,134.96847 L200.081687,134.739734 C198.156995,133.662292 197.392823,131.253493 198.379576,129.252089 C198.547631,128.911226 198.76124,128.595308 199.0142,128.312871 L199.211201,128.107455 C201.370981,126.00388 201.771428,122.6924 200.2056,120.141952 L199.959022,119.755131 C198.821867,117.858189 199.362913,115.382549 201.221916,114.140154 C201.616881,113.876194 202.053998,113.681577 202.514442,113.564684 C205.436653,112.822825 207.43919,110.155223 207.358368,107.163556 L207.338236,106.70527 C207.301901,104.493893 209.00828,102.620448 211.239422,102.474004 Z M211.272169,102.972931 C209.314365,103.101434 207.815595,104.740628 207.837931,106.679224 L207.857621,107.1301 C207.954293,110.362649 205.793557,113.248079 202.637473,114.049311 C202.232172,114.152205 201.847403,114.323515 201.499739,114.555863 C199.866668,115.647265 199.389043,117.819847 200.382053,119.48829 L200.621238,119.863351 C202.321233,122.614485 201.892695,126.193709 199.560063,128.465638 C199.260509,128.757397 199.012944,129.09814 198.828032,129.473192 C197.961449,131.230859 198.629024,133.345486 200.314633,134.297082 L200.745278,134.522004 C203.576842,136.060297 204.984746,139.364312 204.103111,142.489248 C203.989569,142.891696 203.945543,143.31057 203.972931,143.727831 C204.101434,145.685635 205.740628,147.184405 207.679224,147.162069 L208.1301,147.142379 C211.362649,147.045707 214.248079,149.206443 215.049311,152.362527 C215.152205,152.767828 215.323515,153.152597 215.555863,153.500261 C216.647265,155.133332 218.819847,155.610957 220.48829,154.617947 L220.863351,154.378762 C223.614485,152.678767 227.193709,153.107305 229.465638,155.439937 C229.757397,155.739491 230.09814,155.987056 230.473192,156.171968 C232.230859,157.038551 234.345486,156.370976 235.297082,154.685367 L235.522004,154.254722 C237.060297,151.423158 240.364312,150.015254 243.489248,150.896889 C243.891696,151.010431 244.31057,151.054457 244.727831,151.027069 C246.685635,150.898566 248.184405,149.259372 248.162069,147.320776 L248.142379,146.8699 C248.045707,143.637351 250.206443,140.751921 253.362527,139.950689 C253.767828,139.847795 254.152597,139.676485 254.500261,139.444137 C256.133332,138.352735 256.610957,136.180153 255.617947,134.51171 L255.378762,134.136649 C253.678767,131.385515 254.107305,127.806291 256.439937,125.534362 C256.739491,125.242603 256.987056,124.90186 257.171968,124.526808 C258.038551,122.769141 257.370976,120.654514 255.685367,119.702918 L255.254722,119.477996 C252.423158,117.939703 251.015254,114.635688 251.896889,111.510752 C252.010431,111.108304 252.054457,110.68943 252.027069,110.272169 C251.898566,108.314365 250.259372,106.815595 248.320776,106.837931 L247.8699,106.857621 C244.637351,106.954293 241.751921,104.793557 240.950689,101.637473 C240.847795,101.232172 240.676485,100.847403 240.444137,100.499739 C239.352735,98.8666678 237.180153,98.3890432 235.51171,99.3820525 L235.136649,99.6212382 C232.385515,101.321233 228.806291,100.892695 226.534362,98.5600632 C226.242603,98.2605086 225.90186,98.0129444 225.526808,97.8280324 C223.769141,96.9614489 221.654514,97.6290237 220.702918,99.3146328 L220.477996,99.7452776 C218.939703,102.576842 215.635688,103.984746 212.510752,103.103111 C212.108304,102.989569 211.68943,102.945543 211.272169,102.972931 Z"/>
    <path fill="#FFF" fill-rule="nonzero" d="M223.375002,104.269029 C223.658294,104.362416 223.927173,104.493933 224.174328,104.659693 L224.539188,104.926385 C226.457532,106.283652 229.050218,106.194596 230.870821,104.709726 L231.192428,104.436622 C232.542189,103.360915 234.513429,103.515342 235.677107,104.81889 C235.875751,105.041411 236.042849,105.289748 236.174012,105.556878 L236.356644,105.97027 C237.339345,108.10487 239.629205,109.324088 241.948328,108.948454 L242.3634,108.872743 C244.070181,108.616034 245.700111,109.735392 246.056112,111.446136 C246.116882,111.738167 246.137425,112.036782 246.11745,112.333705 L246.066873,112.805693 C245.861992,115.132079 247.22721,117.316885 249.407966,118.152559 L249.825828,118.302442 C251.428326,118.935648 252.27734,120.71757 251.730971,122.375002 C251.637584,122.658294 251.506067,122.927173 251.340307,123.174328 L251.073615,123.539188 C249.716348,125.457532 249.805404,128.050218 251.290274,129.870821 L251.563378,130.192428 C252.639085,131.542189 252.484658,133.513429 251.18111,134.677107 C250.958589,134.875751 250.710252,135.042849 250.443122,135.174012 L250.02973,135.356644 C247.89513,136.339345 246.675912,138.629205 247.051546,140.948328 L247.127257,141.3634 C247.383966,143.070181 246.264608,144.700111 244.553864,145.056112 C244.261833,145.116882 243.963218,145.137425 243.666295,145.11745 L243.194307,145.066873 C240.867921,144.861992 238.683115,146.22721 237.847441,148.407966 L237.697558,148.825828 C237.064352,150.428326 235.28243,151.27734 233.624998,150.730971 C233.341706,150.637584 233.072827,150.506067 232.825672,150.340307 L232.460812,150.073615 C230.542468,148.716348 227.949782,148.805404 226.129179,150.290274 L225.807572,150.563378 C224.457811,151.639085 222.486571,151.484658 221.322893,150.18111 C221.124249,149.958589 220.957151,149.710252 220.825988,149.443122 L220.643356,149.02973 C219.660655,146.89513 217.370795,145.675912 215.051672,146.051546 L214.6366,146.127257 C212.929819,146.383966 211.299889,145.264608 210.943888,143.553864 C210.883118,143.261833 210.862575,142.963218 210.88255,142.666295 L210.933127,142.194307 C211.138008,139.867921 209.77279,137.683115 207.592034,136.847441 L207.174172,136.697558 C205.571674,136.064352 204.72266,134.28243 205.269029,132.624998 C205.362416,132.341706 205.493933,132.072827 205.659693,131.825672 L205.926385,131.460812 C207.283652,129.542468 207.194596,126.949782 205.709726,125.129179 L205.436622,124.807572 C204.360915,123.457811 204.515342,121.486571 205.81889,120.322893 C206.041411,120.124249 206.289748,119.957151 206.556878,119.825988 L206.97027,119.643356 C209.10487,118.660655 210.324088,116.370795 209.948454,114.051672 L209.872743,113.6366 C209.616034,111.929819 210.735392,110.299889 212.446136,109.943888 C212.738167,109.883118 213.036782,109.862575 213.333705,109.88255 L213.805693,109.933127 C216.132079,110.138008 218.316885,108.77279 219.152559,106.592034 L219.302442,106.174172 C219.935648,104.571674 221.71757,103.72266 223.375002,104.269029 Z M223.296733,104.506461 C221.77011,104.003213 220.129148,104.781559 219.539897,106.253624 L219.388987,106.673703 C218.512788,108.97073 216.20894,110.406564 213.759654,110.179989 L213.522215,110.152846 C213.180951,110.10637 212.834259,110.118477 212.497069,110.188645 C210.918855,110.517066 209.885517,112.019228 210.119101,113.593604 L210.194023,114.004218 C210.604304,116.515098 209.229559,118.99473 206.855281,119.965817 C206.5365,120.096199 206.242309,120.28003 205.985378,120.509392 C204.782815,121.582921 204.638999,123.4005 205.628477,124.647158 L205.898668,124.965298 C207.459085,126.873102 207.55407,129.593111 206.130535,131.605117 L205.867321,131.964922 C205.714207,132.193221 205.592723,132.441588 205.506461,132.703267 C205.003213,134.22989 205.781559,135.870852 207.253624,136.460103 L207.673703,136.611013 C209.97073,137.487212 211.406564,139.79106 211.179989,142.240346 L211.152846,142.477785 C211.10637,142.819049 211.118477,143.165741 211.188645,143.502931 C211.517066,145.081145 213.019228,146.114483 214.593604,145.880899 L215.004218,145.805977 C217.515098,145.395696 219.99473,146.770441 220.965817,149.144719 C221.096199,149.4635 221.28003,149.757691 221.509392,150.014622 C222.582921,151.217185 224.4005,151.361001 225.647158,150.371523 L225.965298,150.101332 C227.873102,148.540915 230.593111,148.44593 232.605117,149.869465 L232.964922,150.132679 C233.193221,150.285793 233.441588,150.407277 233.703267,150.493539 C235.22989,150.996787 236.870852,150.218441 237.460103,148.746376 L237.611013,148.326297 C238.515477,145.955172 240.941181,144.501698 243.477785,144.847154 C243.819049,144.89363 244.165741,144.881523 244.502931,144.811355 C246.081145,144.482934 247.114483,142.980772 246.880899,141.406396 L246.805977,140.995782 C246.395696,138.484902 247.770441,136.00527 250.144719,135.034183 C250.4635,134.903801 250.757691,134.71997 251.014622,134.490608 C252.217185,133.417079 252.361001,131.5995 251.371523,130.352842 L251.101332,130.034702 C249.540915,128.126898 249.44593,125.406889 250.869465,123.394883 L251.132679,123.035078 C251.285793,122.806779 251.407277,122.558412 251.493539,122.296733 C251.996787,120.77011 251.218441,119.129148 249.746376,118.539897 L249.326297,118.388987 C246.955172,117.484523 245.501698,115.058819 245.847154,112.522215 C245.89363,112.180951 245.881523,111.834259 245.811355,111.497069 C245.482934,109.918855 243.980772,108.885517 242.406396,109.119101 L241.995782,109.194023 C239.484902,109.604304 237.00527,108.229559 236.034183,105.855281 C235.903801,105.5365 235.71997,105.242309 235.490608,104.985378 C234.417079,103.782815 232.5995,103.638999 231.352842,104.628477 L231.034702,104.898668 C229.126898,106.459085 226.406889,106.55407 224.394883,105.130535 L224.035078,104.867321 C223.806779,104.714207 223.558412,104.592723 223.296733,104.506461 Z"/>
    <path fill="#FFF" fill-rule="nonzero" d="M221.409159,109.373371 C221.695548,109.425132 221.971004,109.525389 222.223662,109.669826 C223.916559,110.637604 226.043444,110.306242 227.362531,108.8947 L227.613515,108.614489 C228.541591,107.65204 230.070373,107.563354 231.105478,108.439471 C231.327619,108.627492 231.516042,108.852045 231.662631,109.10346 C232.644834,110.788029 234.652452,111.564503 236.500585,111.001615 L236.85805,110.884438 C238.143012,110.51497 239.511318,111.202557 239.969687,112.47885 C240.043464,112.684275 240.090541,112.898014 240.109993,113.114822 L240.127039,113.555597 C240.232624,115.404116 241.543889,116.966822 243.34599,117.391794 L243.743163,117.476082 C245.032702,117.804325 245.866942,119.079508 245.626629,120.409159 C245.574868,120.695548 245.474611,120.971004 245.330174,121.223662 C244.362396,122.916559 244.693758,125.043444 246.1053,126.362531 L246.385511,126.613515 C247.34796,127.541591 247.436646,129.070373 246.560529,130.105478 C246.372508,130.327619 246.147955,130.516042 245.89654,130.662631 C244.211971,131.644834 243.435497,133.652452 243.998385,135.500585 L244.115562,135.85805 C244.48503,137.143012 243.797443,138.511318 242.52115,138.969687 C242.315725,139.043464 242.101986,139.090541 241.885178,139.109993 L241.444403,139.127039 C239.595884,139.232624 238.033178,140.543889 237.608206,142.34599 L237.523918,142.743163 C237.195675,144.032702 235.920492,144.866942 234.590841,144.626629 C234.304452,144.574868 234.028996,144.474611 233.776338,144.330174 C232.083441,143.362396 229.956556,143.693758 228.637469,145.1053 L228.386485,145.385511 C227.458409,146.34796 225.929627,146.436646 224.894522,145.560529 C224.672381,145.372508 224.483958,145.147955 224.337369,144.89654 C223.355166,143.211971 221.347548,142.435497 219.499415,142.998385 L219.14195,143.115562 C217.856988,143.48503 216.488682,142.797443 216.030313,141.52115 C215.956536,141.315725 215.909459,141.101986 215.890007,140.885178 L215.872961,140.444403 C215.767376,138.595884 214.456111,137.033178 212.65401,136.608206 L212.256837,136.523918 C210.967298,136.195675 210.133058,134.920492 210.373371,133.590841 C210.425132,133.304452 210.525389,133.028996 210.669826,132.776338 C211.637604,131.083441 211.306242,128.956556 209.8947,127.637469 L209.614489,127.386485 C208.65204,126.458409 208.563354,124.929627 209.439471,123.894522 C209.627492,123.672381 209.852045,123.483958 210.10346,123.337369 C211.788029,122.355166 212.564503,120.347548 212.001615,118.499415 L211.884438,118.14195 C211.51497,116.856988 212.202557,115.488682 213.47885,115.030313 C213.684275,114.956536 213.898014,114.909459 214.114822,114.890007 L214.555597,114.872961 C216.404116,114.767376 217.966822,113.456111 218.391794,111.65401 L218.476082,111.256837 C218.804325,109.967298 220.079508,109.133058 221.409159,109.373371 Z M221.387816,109.491458 C220.120548,109.26242 218.905191,110.05752 218.592349,111.286559 L218.510445,111.673665 C218.058673,113.605681 216.336245,114.991242 214.33297,114.999797 C214.055597,115.000982 213.780461,115.049496 213.51941,115.14325 C212.305108,115.579356 211.649945,116.8797 211.997977,118.102522 L212.116428,118.464507 C212.695438,120.365577 211.896723,122.430699 210.163904,123.441034 C209.924284,123.580747 209.710266,123.76033 209.531066,123.972048 C208.696053,124.95859 208.780578,126.415648 209.697873,127.300182 L209.976676,127.549832 C211.428649,128.906702 211.769503,131.094507 210.774005,132.835894 C210.636344,133.076698 210.54079,133.33923 210.491458,133.612184 C210.26242,134.879452 211.05752,136.094809 212.286559,136.407651 L212.673665,136.489555 C214.605681,136.941327 215.991242,138.663755 215.999797,140.66703 C216.000982,140.944403 216.049496,141.219539 216.14325,141.48059 C216.579356,142.694892 217.8797,143.350055 219.102522,143.002023 L219.464507,142.883572 C221.365577,142.304562 223.430699,143.103277 224.441034,144.836096 C224.580747,145.075716 224.76033,145.289734 224.972048,145.468934 C225.95859,146.303947 227.415648,146.219422 228.300182,145.302127 L228.549832,145.023324 C229.906702,143.571351 232.094507,143.230497 233.835894,144.225995 C234.076698,144.363656 234.33923,144.45921 234.612184,144.508542 C235.879452,144.73758 237.094809,143.94248 237.407651,142.713441 L237.489555,142.326335 C237.941327,140.394319 239.663755,139.008758 241.66703,139.000203 C241.944403,138.999018 242.219539,138.950504 242.48059,138.85675 C243.694892,138.420644 244.350055,137.1203 244.002023,135.897478 L243.883572,135.535493 C243.304562,133.634423 244.103277,131.569301 245.836096,130.558966 C246.075716,130.419253 246.289734,130.23967 246.468934,130.027952 C247.303947,129.04141 247.219422,127.584352 246.302127,126.699818 L246.023324,126.450168 C244.571351,125.093298 244.230497,122.905493 245.225995,121.164106 C245.363656,120.923302 245.45921,120.66077 245.508542,120.387816 C245.73758,119.120548 244.94248,117.905191 243.713441,117.592349 L243.326335,117.510445 C241.394319,117.058673 240.008758,115.336245 240.000203,113.33297 C239.999018,113.055597 239.950504,112.780461 239.85675,112.51941 C239.420644,111.305108 238.1203,110.649945 236.897478,110.997977 L236.535493,111.116428 C234.634423,111.695438 232.569301,110.896723 231.558966,109.163904 C231.419253,108.924284 231.23967,108.710266 231.027952,108.531066 C230.04141,107.696053 228.584352,107.780578 227.699818,108.697873 L227.450168,108.976676 C226.093298,110.428649 223.905493,110.769503 222.164106,109.774005 C221.923302,109.636344 221.66077,109.54079 221.387816,109.491458 Z"/>
    <path fill="#FFF" fill-rule="nonzero" d="M220.729868,113.630798 C220.904846,113.637657 221.077983,113.666875 221.2451,113.717564 L221.410055,113.775377 C222.878145,114.361243 224.547212,113.85981 225.453151,112.584335 L225.644606,112.301061 C226.277349,111.44484 227.473544,111.209701 228.388482,111.786866 C228.536588,111.880294 228.67192,111.992166 228.791303,112.119623 L228.905252,112.252168 C229.883722,113.493588 231.579892,113.893867 233.002196,113.242243 L233.309639,113.092648 C234.28572,112.66751 235.439225,113.061972 235.943002,114.019281 C236.024551,114.174245 236.085816,114.338795 236.125477,114.508867 L236.193164,114.881855 C236.494009,116.341438 237.712308,117.438398 239.195342,117.585028 L239.567053,117.612466 C240.617455,117.73931 241.41137,118.654074 241.369202,119.729868 C241.362343,119.904846 241.333125,120.077983 241.282436,120.2451 L241.224623,120.410055 C240.638757,121.878145 241.14019,123.547212 242.415665,124.453151 L242.698939,124.644606 C243.55516,125.277349 243.790299,126.473544 243.213134,127.388482 C243.119706,127.536588 243.007834,127.67192 242.880377,127.791303 L242.747832,127.905252 C241.506412,128.883722 241.106133,130.579892 241.757757,132.002196 L241.907352,132.309639 C242.33249,133.28572 241.938028,134.439225 240.980719,134.943002 C240.825755,135.024551 240.661205,135.085816 240.491133,135.125477 L240.118145,135.193164 C238.658562,135.494009 237.561602,136.712308 237.414972,138.195342 L237.387534,138.567053 C237.26069,139.617455 236.345926,140.41137 235.270132,140.369202 C235.036829,140.360057 234.806797,140.311162 234.589945,140.224623 C233.121855,139.638757 231.452788,140.14019 230.546849,141.415665 L230.355394,141.698939 C229.722651,142.55516 228.526456,142.790299 227.611518,142.213134 C227.463412,142.119706 227.32808,142.007834 227.208697,141.880377 L227.094748,141.747832 C226.116278,140.506412 224.420108,140.106133 222.997804,140.757757 L222.690361,140.907352 C221.71428,141.33249 220.560775,140.938028 220.056998,139.980719 C219.975449,139.825755 219.914184,139.661205 219.874523,139.491133 L219.806836,139.118145 C219.505991,137.658562 218.287692,136.561602 216.804658,136.414972 L216.432947,136.387534 C215.382545,136.26069 214.58863,135.345926 214.630798,134.270132 C214.637657,134.095154 214.666875,133.922017 214.717564,133.7549 L214.775377,133.589945 C215.361243,132.121855 214.85981,130.452788 213.584335,129.546849 L213.301061,129.355394 C212.44484,128.722651 212.209701,127.526456 212.786866,126.611518 C212.880294,126.463412 212.992166,126.32808 213.119623,126.208697 L213.252168,126.094748 C214.493588,125.116278 214.893867,123.420108 214.242243,121.997804 L214.092648,121.690361 C213.66751,120.71428 214.061972,119.560775 215.019281,119.056998 C215.174245,118.975449 215.338795,118.914184 215.508867,118.874523 L215.881855,118.806836 C217.341438,118.505991 218.438398,117.287692 218.585028,115.804658 L218.612466,115.432947 C218.73931,114.382545 219.654074,113.58863 220.729868,113.630798 Z M220.727518,113.690752 C219.68318,113.649817 218.795164,114.420518 218.672029,115.440206 L218.644735,115.810595 C218.495525,117.319722 217.379264,118.559456 215.894,118.865595 L215.522493,118.932955 C215.357394,118.971456 215.197655,119.03093 215.047222,119.110094 C214.120013,119.598032 213.736717,120.713843 214.14489,121.66001 L214.296805,121.972841 C214.932266,123.359865 214.584657,125.002833 213.442743,126.013679 L213.289309,126.14187 C213.1113,126.282175 212.958541,126.45183 212.837613,126.64353 C212.277324,127.531716 212.505587,128.692934 213.336772,129.307175 L213.619105,129.49795 C214.865105,130.382954 215.385197,131.98363 214.897354,133.431994 L214.774981,133.772316 C214.725774,133.934546 214.69741,134.102621 214.690752,134.272482 C214.649817,135.31682 215.420518,136.204836 216.440206,136.327971 L216.810595,136.355265 C218.319722,136.504475 219.559456,137.620736 219.865595,139.106 L219.932955,139.477507 C219.971456,139.642606 220.03093,139.802345 220.110094,139.952778 C220.598032,140.879987 221.713843,141.263283 222.66001,140.85511 L222.972841,140.703195 C224.359865,140.067734 226.002833,140.415343 227.013679,141.557257 L227.14187,141.710691 C227.282175,141.8887 227.45183,142.041459 227.64353,142.162387 C228.531716,142.722676 229.692934,142.494413 230.307175,141.663228 L230.49795,141.380895 C231.382954,140.134895 232.98363,139.614803 234.431994,140.102646 L234.772316,140.225019 C234.934546,140.274226 235.102621,140.30259 235.272482,140.309248 C236.31682,140.350183 237.204836,139.579482 237.327971,138.559794 L237.355265,138.189405 C237.504475,136.680278 238.620736,135.440544 240.106,135.134405 L240.477507,135.067045 C240.642606,135.028544 240.802345,134.96907 240.952778,134.889906 C241.879987,134.401968 242.263283,133.286157 241.85511,132.33999 L241.703195,132.027159 C241.067734,130.640135 241.415343,128.997167 242.557257,127.986321 L242.710691,127.85813 C242.8887,127.717825 243.041459,127.54817 243.162387,127.35647 C243.722676,126.468284 243.494413,125.307066 242.663228,124.692825 L242.380895,124.50205 C241.134895,123.617046 240.614803,122.01637 241.102646,120.568006 L241.225019,120.227684 C241.274226,120.065454 241.30259,119.897379 241.309248,119.727518 C241.350183,118.68318 240.579482,117.795164 239.559794,117.672029 L239.189405,117.644735 C237.680278,117.495525 236.440544,116.379264 236.134405,114.894 L236.067045,114.522493 C236.028544,114.357394 235.96907,114.197655 235.889906,114.047222 C235.401968,113.120013 234.286157,112.736717 233.33999,113.14489 L233.027159,113.296805 C231.640135,113.932266 229.997167,113.584657 228.986321,112.442743 L228.85813,112.289309 C228.717825,112.1113 228.54817,111.958541 228.35647,111.837613 C227.468284,111.277324 226.307066,111.505587 225.692825,112.336772 L225.50205,112.619105 C224.617046,113.865105 223.01637,114.385197 221.568006,113.897354 L221.227684,113.774981 C221.065454,113.725774 220.897379,113.69741 220.727518,113.690752 Z"/>
    <path fill="#FFF" fill-rule="nonzero" d="M216.419397,121.695495 C216.531635,121.614679 216.653601,121.548674 216.78226,121.49896 L217.098284,121.393531 C218.194953,120.987303 218.910346,119.920236 218.86821,118.750147 L218.856161,118.573931 C218.766402,117.683354 219.415592,116.888635 220.306169,116.798875 C220.443778,116.785006 220.582406,116.788826 220.718685,116.810102 L221.027709,116.87379 C222.186064,117.078971 223.347714,116.512397 223.899183,115.473278 L224.043865,115.182117 C224.450982,114.459613 225.349722,114.154529 226.120522,114.501664 C226.24663,114.558457 226.364774,114.63108 226.472158,114.717644 L226.575851,114.808787 C227.47885,115.67338 228.847959,115.805547 229.894962,115.15017 L230.165841,114.970359 C230.879666,114.54821 231.81054,114.733369 232.304505,115.419397 C232.385321,115.531635 232.451326,115.653601 232.50104,115.78226 L232.606469,116.098284 C233.012697,117.194953 234.079764,117.910346 235.249853,117.86821 L235.426069,117.856161 C236.316646,117.766402 237.111365,118.415592 237.201125,119.306169 C237.214994,119.443778 237.211174,119.582406 237.189898,119.718685 L237.12621,120.027709 C236.921029,121.186064 237.487603,122.347714 238.526722,122.899183 L238.817883,123.043865 C239.540387,123.450982 239.845471,124.349722 239.498336,125.120522 C239.441543,125.24663 239.36892,125.364774 239.282356,125.472158 L239.191213,125.575851 C238.32662,126.47885 238.194453,127.847959 238.84983,128.894962 L239.029641,129.165841 C239.45179,129.879666 239.266631,130.81054 238.580603,131.304505 C238.468365,131.385321 238.346399,131.451326 238.21774,131.50104 L237.901716,131.606469 C236.805047,132.012697 236.089654,133.079764 236.13179,134.249853 L236.143839,134.426069 C236.233598,135.316646 235.584408,136.111365 234.693831,136.201125 C234.556222,136.214994 234.417594,136.211174 234.281315,136.189898 L233.972291,136.12621 C232.813936,135.921029 231.652286,136.487603 231.100817,137.526722 L230.956135,137.817883 C230.549018,138.540387 229.650278,138.845471 228.879478,138.498336 C228.75337,138.441543 228.635226,138.36892 228.527842,138.282356 L228.424149,138.191213 C227.52115,137.32662 226.152041,137.194453 225.105038,137.84983 L224.834159,138.029641 C224.120334,138.45179 223.18946,138.266631 222.695495,137.580603 C222.614679,137.468365 222.548674,137.346399 222.49896,137.21774 L222.393531,136.901716 C221.987303,135.805047 220.920236,135.089654 219.750147,135.13179 L219.573931,135.143839 C218.683354,135.233598 217.888635,134.584408 217.798875,133.693831 C217.785006,133.556222 217.788826,133.417594 217.810102,133.281315 L217.87379,132.972291 C218.078971,131.813936 217.512397,130.652286 216.473278,130.100817 L216.182117,129.956135 C215.459613,129.549018 215.154529,128.650278 215.501664,127.879478 C215.558457,127.75337 215.63108,127.635226 215.717644,127.527842 L215.808787,127.424149 C216.67338,126.52115 216.805547,125.152041 216.15017,124.105038 L215.970359,123.834159 C215.54821,123.120334 215.733369,122.18946 216.419397,121.695495 Z M216.436927,121.71984 C215.763598,122.204662 215.581865,123.118305 215.9962,123.818917 L216.171483,124.082564 C216.803652,125.086207 216.718124,126.384834 215.962576,127.296629 L215.830456,127.444897 C215.705283,127.575629 215.603341,127.726766 215.529018,127.891797 C215.188309,128.64833 215.487745,129.530433 216.196876,129.930014 L216.480498,130.070697 C217.535347,130.62672 218.111113,131.803572 217.903398,132.977144 L217.839743,133.285943 C217.818861,133.419699 217.815111,133.555761 217.828724,133.690823 C217.911927,134.516354 218.612299,135.13056 219.426214,135.122041 L219.570922,135.11399 C220.822539,134.987842 221.990408,135.727061 222.421657,136.891279 L222.526943,137.206927 C222.575737,137.333205 222.64052,137.452912 222.71984,137.563073 C223.204662,138.236402 224.118305,138.418135 224.818917,138.0038 L225.082564,137.828517 C226.086207,137.196348 227.384834,137.281876 228.296629,138.037424 L228.444897,138.169544 C228.575629,138.294717 228.726766,138.396659 228.891797,138.470982 C229.64833,138.811691 230.530433,138.512255 230.930014,137.803124 L231.070697,137.519502 C231.62672,136.464653 232.803572,135.888887 233.977144,136.096602 L234.285943,136.160257 C234.419699,136.181139 234.555761,136.184889 234.690823,136.171276 C235.516354,136.088073 236.13056,135.387701 236.122041,134.573786 L236.11399,134.429078 C235.987842,133.177461 236.727061,132.009592 237.891279,131.578343 L238.206927,131.473057 C238.333205,131.424263 238.452912,131.35948 238.563073,131.28016 C239.236402,130.795338 239.418135,129.881695 239.0038,129.181083 L238.828517,128.917436 C238.196348,127.913793 238.281876,126.615166 239.037424,125.703371 L239.169544,125.555103 C239.294717,125.424371 239.396659,125.273234 239.470982,125.108203 C239.811691,124.35167 239.512255,123.469567 238.803124,123.069986 L238.519502,122.929303 C237.464653,122.37328 236.888887,121.196428 237.096602,120.022856 L237.160257,119.714057 C237.181139,119.580301 237.184889,119.444239 237.171276,119.309177 C237.088073,118.483646 236.387701,117.86944 235.573786,117.877959 L235.429078,117.88601 C234.177461,118.012158 233.009592,117.272939 232.578343,116.108721 L232.473057,115.793073 C232.424263,115.666795 232.35948,115.547088 232.28016,115.436927 C231.795338,114.763598 230.881695,114.581865 230.181083,114.9962 L229.917436,115.171483 C228.913793,115.803652 227.615166,115.718124 226.703371,114.962576 L226.555103,114.830456 C226.424371,114.705283 226.273234,114.603341 226.108203,114.529018 C225.35167,114.188309 224.469567,114.487745 224.069986,115.196876 L223.929303,115.480498 C223.37328,116.535347 222.196428,117.111113 221.022856,116.903398 L220.714057,116.839743 C220.580301,116.818861 220.444239,116.815111 220.309177,116.828724 C219.483646,116.911927 218.86944,117.612299 218.877959,118.426214 L218.88601,118.570922 C219.012158,119.822539 218.272939,120.990408 217.108721,121.421657 L216.793073,121.526943 C216.666795,121.575737 216.547088,121.64052 216.436927,121.71984 Z"/>
  </g>
</svg>
