<svg xmlns="http://www.w3.org/2000/svg" width="320" height="274" viewBox="0 0 320 274">
<style>
    @keyframes swirl-even {
      from { transform: rotate(360deg); }
      to   { transform: rotate(0deg);  }
    }

    @keyframes swirl-odd {
      from { transform: rotate(-360deg); }
      to   { transform: rotate(0deg);  }
    }

    @keyframes all {
      from { opacity: 0 }
      to { opacity: 1 }
    }

    path {
      transform-origin: 166px 166px;
    }

    #all {
      opacity: 0;
      animation: all 8s 4s forwards linear;
    }

    #swirl-1 { animation: swirl-odd 100s infinite linear; }
    #swirl-2 { animation: swirl-even 90s infinite linear; }
    #swirl-3 { animation: swirl-odd 80s infinite linear; }
    #swirl-4 { animation: swirl-even 70s infinite linear; }
    #swirl-5 { animation: swirl-odd 60s infinite linear; }
    #swirl-6 { animation: swirl-even 50s infinite linear; }
    #swirl-7 { animation: swirl-odd 40s infinite linear; }
    #swirl-8 { animation: swirl-even 30s infinite linear; }

  </style>

  <g fill="none" fill-rule="evenodd" stroke="#FFF" stroke-width="1.2" opacity=".152" transform="translate(-6 1)">
    <g id="all">
      <path id="swirl-1" d="M47.8493645,269.904057 L47.3184613,269.898004 C35.384153,269.847034 25.7508036,260.131047 25.8017731,248.196739 C25.812274,245.738003 26.2423197,243.299092 27.0733893,240.985045 C33.0039316,224.47192 26.4354034,206.096965 11.4475827,197.069279 L10.9908335,196.798586 C0.680904142,190.787291 -2.80382752,177.556324 3.20746748,167.246395 C4.3574679,165.274037 5.81220622,163.497359 7.51679067,161.981778 L7.91456647,161.636693 C21.3071292,150.301178 24.8060942,131.103737 16.3401037,115.791621 L16.0798941,115.328819 C10.1568808,104.96792 13.754498,91.767201 24.1153968,85.8441877 C26.249975,84.6239138 28.5771564,83.776889 30.9967152,83.3395927 C48.2627721,80.2190305 60.8916854,65.3430409 61.2159804,47.8493645 L61.2220333,47.3184613 C61.2730028,35.384153 70.9889901,25.7508036 82.9232983,25.8017731 C85.3820343,25.812274 87.8209449,26.2423197 90.1349924,27.0733893 C106.648117,33.0039316 125.023072,26.4354034 134.050758,11.4475827 L134.321451,10.9908335 C140.332746,0.680904142 153.563713,-2.80382752 163.873642,3.20746748 C165.846,4.3574679 167.622678,5.81220622 169.13826,7.51679067 L169.483344,7.91456647 C180.818859,21.3071292 200.016301,24.8060942 215.328416,16.3401037 L215.791218,16.0798941 C226.152117,10.1568808 239.352836,13.754498 245.275849,24.1153968 C246.496123,26.249975 247.343148,28.5771564 247.780445,30.9967152 C250.901007,48.2627721 265.776996,60.8916854 283.270673,61.2159804 L283.801576,61.2220333 C295.735884,61.2730028 305.369234,70.9889901 305.318264,82.9232983 C305.307763,85.3820343 304.877717,87.8209449 304.046648,90.1349924 C298.116106,106.648117 304.684634,125.023072 319.672454,134.050758 L320.129204,134.321451 C330.439133,140.332746 333.923865,153.563713 327.91257,163.873642 C326.762569,165.846 325.307831,167.622678 323.603247,169.13826 L323.205471,169.483344 C309.812908,180.818859 306.313943,200.016301 314.779933,215.328416 L315.040143,215.791218 C320.963156,226.152117 317.365539,239.352836 307.00464,245.275849 C304.870062,246.496123 302.542881,247.343148 300.123322,247.780445 C282.857265,250.901007 270.228352,265.776996 269.904057,283.270673 L269.898004,283.801576 C269.847034,295.735884 260.131047,305.369234 248.196739,305.318264 C245.738003,305.307763 243.299092,304.877717 240.985045,304.046648 C224.47192,298.116106 206.096965,304.684634 197.069279,319.672454 L196.798586,320.129204 C190.787291,330.439133 177.556324,333.923865 167.246395,327.91257 C165.274037,326.762569 163.497359,325.307831 161.981778,323.603247 L161.636693,323.205471 C150.301178,309.812908 131.103737,306.313943 115.791621,314.779933 L115.328819,315.040143 C104.96792,320.963156 91.767201,317.365539 85.8441877,307.00464 C84.6239138,304.870062 83.776889,302.542881 83.3395927,300.123322 C80.2190305,282.857265 65.3430409,270.228352 47.8493645,269.904057 L47.8493645,269.904057 Z"/>
      <path id="swirl-2" d="M77.3146425,269.456911 L76.8576249,269.515836 C66.5944881,270.913555 57.1414971,263.726713 55.7437784,253.463576 C55.4558169,251.349139 55.5308293,249.201065 55.965585,247.111866 C59.068017,232.203267 51.2031948,217.204253 37.2314247,211.255732 L36.8061734,211.078254 C27.2191769,207.157145 22.6260672,196.206662 26.5471757,186.619666 C27.292871,184.796463 28.3207408,183.103078 29.592203,181.601256 L29.9151211,181.229827 C40.0562056,169.869817 40.7445766,152.947879 31.6189293,140.810424 L31.3393901,140.444097 C24.9973619,132.254819 26.4948536,120.474868 34.6841314,114.13284 C36.2415241,112.926747 37.9783779,111.974168 39.8304075,111.309283 L40.2957772,111.149075 C54.7582189,106.38156 63.8153346,92.0709176 61.9810199,76.9967492 L61.9220952,76.5397315 C60.5243766,66.2765948 67.7112179,56.8236037 77.9743547,55.425885 C80.0887917,55.1379236 82.2368659,55.212936 84.326065,55.6476917 C99.2346643,58.7501237 114.233678,50.8853014 120.182199,36.9135313 L120.359677,36.4882801 C124.280786,26.9012836 135.231269,22.3081739 144.818265,26.2292824 C146.641469,26.9749777 148.334853,28.0028475 149.836676,29.2743097 L150.208104,29.5972277 C161.568114,39.7383123 178.490052,40.4266832 190.627507,31.3010359 L190.993834,31.0214968 C199.183112,24.6794685 210.963063,26.1769602 217.305091,34.366238 C218.511184,35.9236307 219.463763,37.6604846 220.128648,39.5125142 L220.288856,39.9778839 C225.056371,54.4403256 239.367014,63.4974412 254.441182,61.6631266 L254.8982,61.6042018 C265.161336,60.2064832 274.614327,67.3933246 276.012046,77.6564613 C276.300008,79.7708983 276.224995,81.9189725 275.790239,84.0081717 C272.687807,98.9167709 280.55263,113.915785 294.5244,119.864306 L294.949651,120.041784 C304.536648,123.962893 309.129757,134.913375 305.208649,144.500372 C304.462953,146.323575 303.435084,148.01696 302.163621,149.518782 L301.840703,149.890211 C291.699619,161.250221 291.011248,178.172159 300.136895,190.309614 L300.416434,190.675941 C306.758463,198.865218 305.260971,210.64517 297.071693,216.987198 C295.5143,218.193291 293.777447,219.14587 291.925417,219.810755 L291.460047,219.970963 C276.997606,224.738478 267.94049,239.04912 269.774805,254.123289 L269.833729,254.580306 C271.231448,264.843443 264.044607,274.296434 253.78147,275.694153 C251.667033,275.982114 249.518959,275.907102 247.429759,275.472346 C232.52116,272.369914 217.522147,280.234736 211.573625,294.206506 L211.396147,294.631758 C207.475038,304.218754 196.524556,308.811864 186.937559,304.890755 C185.114356,304.14506 183.420971,303.11719 181.919149,301.845728 L181.54772,301.52281 C170.18771,291.381725 153.265772,290.693355 141.128317,299.819002 L140.76199,300.098541 C132.572713,306.440569 120.792762,304.943078 114.450733,296.7538 C113.144133,295.066624 112.135058,293.168831 111.466968,291.142154 C106.699454,276.679712 92.3888109,267.622596 77.3146425,269.456911 L77.3146425,269.456911 Z"/>
      <path id="swirl-3" d="M103.582745,261.682976 L103.194357,261.789444 C94.8301816,264.149221 86.1367004,259.281694 83.7769236,250.917518 C83.2907565,249.19431 83.1022477,247.400768 83.2195157,245.614136 C84.056172,232.867296 75.7736074,221.325503 63.4743764,218.011822 L63.0927128,217.911968 C54.6692358,215.773507 49.5742237,207.211365 51.7126848,198.787888 C52.1532559,197.052462 52.8867734,195.404955 53.8816464,193.91632 C60.9740033,183.303983 59.5798354,169.181212 50.6043956,160.160913 L50.3024076,159.862138 C44.0766931,153.798438 43.9453545,143.835899 50.0090547,137.610184 C51.2583133,136.327547 52.7173116,135.267523 54.3232143,134.475764 C65.7781691,128.828122 71.6323183,115.888661 68.3570617,103.582745 L68.2505938,103.194357 C65.8908169,94.8301816 70.7583439,86.1367004 79.1225195,83.7769236 C80.8457278,83.2907565 82.6392696,83.1022477 84.4259015,83.2195157 C97.1727418,84.056172 108.714534,75.7736074 112.028215,63.4743764 L112.128069,63.0927128 C114.26653,54.6692358 122.828673,49.5742237 131.25215,51.7126848 C132.987576,52.1532559 134.635083,52.8867734 136.123717,53.8816464 C146.736054,60.9740033 160.858825,59.5798354 169.879125,50.6043956 L170.1779,50.3024076 C176.2416,44.0766931 186.204139,43.9453545 192.429854,50.0090547 C193.712491,51.2583133 194.772515,52.7173116 195.564274,54.3232143 C201.211915,65.7781691 214.151376,71.6323183 226.457292,68.3570617 L226.84568,68.2505938 C235.209856,65.8908169 243.903337,70.7583439 246.263114,79.1225195 C246.749281,80.8457278 246.93779,82.6392696 246.820522,84.4259015 C245.983866,97.1727418 254.26643,108.714534 266.565661,112.028215 L266.947325,112.128069 C275.370802,114.26653 280.465814,122.828673 278.327353,131.25215 C277.886782,132.987576 277.153264,134.635083 276.158391,136.123717 C269.066034,146.736054 270.460202,160.858825 279.435642,169.879125 L279.73763,170.1779 C285.963345,176.2416 286.094683,186.204139 280.030983,192.429854 C278.781724,193.712491 277.322726,194.772515 275.716823,195.564274 C264.261869,201.211915 258.407719,214.151376 261.682976,226.457292 L261.789444,226.84568 C264.149221,235.209856 259.281694,243.903337 250.917518,246.263114 C249.19431,246.749281 247.400768,246.93779 245.614136,246.820522 C232.867296,245.983866 221.325503,254.26643 218.011822,266.565661 L217.911968,266.947325 C215.773507,275.370802 207.211365,280.465814 198.787888,278.327353 C197.052462,277.886782 195.404955,277.153264 193.91632,276.158391 C183.303983,269.066034 169.181212,270.460202 160.160913,279.435642 L159.862138,279.73763 C153.798438,285.963345 143.835899,286.094683 137.610184,280.030983 C136.327547,278.781724 135.267523,277.322726 134.475764,275.716823 C128.828122,264.261869 115.888661,258.407719 103.582745,261.682976 L103.582745,261.682976 Z"/>
      <path id="swirl-4" d="M126.147589,252.364399 L125.795608,252.515761 C119.172387,255.430779 111.440116,252.424687 108.525098,245.801466 C107.924539,244.436933 107.561263,242.979914 107.450916,241.493157 C106.664666,230.899626 98.518035,222.351136 88.0125766,221.026949 L87.6451582,220.983695 C80.4517714,220.196564 75.2584745,213.727077 76.0456051,206.53369 C76.2077717,205.05169 76.6216754,203.608237 77.2694904,202.265495 C81.8834268,192.702075 79.1067076,181.231109 70.6790058,174.830044 L70.3719322,174.6009 C64.5358418,170.322531 63.2730586,162.123142 67.5514271,156.287052 C68.4328672,155.084686 69.5130452,154.04157 70.7454405,153.202629 C79.5229363,147.227433 82.85371,135.904925 78.7556388,126.147589 L78.6042772,125.795608 C75.6892588,119.172387 78.695351,111.440116 85.3185721,108.525098 C86.6831046,107.924539 88.140124,107.561263 89.6268803,107.450916 C100.220412,106.664666 108.768902,98.518035 110.093089,88.0125766 L110.136343,87.6451582 C110.923473,80.4517714 117.392961,75.2584745 124.586348,76.0456051 C126.068347,76.2077717 127.511801,76.6216754 128.854543,77.2694904 C138.417962,81.8834268 149.888929,79.1067076 156.289994,70.6790058 L156.519138,70.3719322 C160.797506,64.5358418 168.996895,63.2730586 174.832986,67.5514271 C176.035352,68.4328672 177.078468,69.5130452 177.917409,70.7454405 C183.892605,79.5229363 195.215112,82.85371 204.972448,78.7556388 L205.32443,78.6042772 C211.947651,75.6892588 219.679921,78.695351 222.59494,85.3185721 C223.195499,86.6831046 223.558775,88.140124 223.669122,89.6268803 C224.455372,100.220412 232.602003,108.768902 243.107461,110.093089 L243.474879,110.136343 C250.668266,110.923473 255.861563,117.392961 255.074433,124.586348 C254.912266,126.068347 254.498362,127.511801 253.850547,128.854543 C249.236611,138.417962 252.01333,149.888929 260.441032,156.289994 L260.748105,156.519138 C266.584196,160.797506 267.846979,168.996895 263.568611,174.832986 C262.687171,176.035352 261.606993,177.078468 260.374597,177.917409 C251.597101,183.892605 248.266328,195.215112 252.364399,204.972448 L252.515761,205.32443 C255.430779,211.947651 252.424687,219.679921 245.801466,222.59494 C244.436933,223.195499 242.979914,223.558775 241.493157,223.669122 C230.899626,224.455372 222.351136,232.602003 221.026949,243.107461 L220.983695,243.474879 C220.196564,250.668266 213.727077,255.861563 206.53369,255.074433 C205.05169,254.912266 203.608237,254.498362 202.265495,253.850547 C192.702075,249.236611 181.231109,252.01333 174.830044,260.441032 L174.6009,260.748105 C170.322531,266.584196 162.123142,267.846979 156.287052,263.568611 C155.084686,262.687171 154.04157,261.606993 153.202629,260.374597 C147.227433,251.597101 135.904925,248.266328 126.147589,252.364399 L126.147589,252.364399 Z"/>
      <path id="swirl-5" d="M143.022968,239.841639 L142.691525,240.042011 C137.654451,243.159691 131.043716,241.603715 127.926036,236.566641 C127.283724,235.528891 126.823231,234.389131 126.56439,233.196448 C124.723844,224.715627 117.172923,218.721027 108.52786,218.819247 L108.17198,218.826722 C102.250906,219.008176 97.3038297,214.355294 97.1223763,208.43422 C97.0849928,207.214346 97.2560742,205.997038 97.6282525,204.834724 C100.273697,196.57299 96.7354088,187.609732 89.2053614,183.370277 L88.8848209,183.193971 C83.6662937,180.390578 81.7084412,173.887526 84.5118349,168.668999 C85.089397,167.593865 85.8462116,166.625186 86.7496846,165.804682 C93.1662535,159.977364 94.5866032,150.456771 90.1983984,143.022968 L89.998027,142.691525 C86.8803467,137.654451 88.4363226,131.043716 93.4733964,127.926036 C94.5111469,127.283724 95.6509068,126.823231 96.8435896,126.56439 C105.324411,124.723844 111.319011,117.172923 111.220791,108.52786 L111.213315,108.17198 C111.031862,102.250906 115.684744,97.3038297 121.605818,97.1223763 C122.825692,97.0849928 124.043,97.2560742 125.205314,97.6282525 C133.467048,100.273697 142.430306,96.7354088 146.669761,89.2053614 L146.846066,88.8848209 C149.64946,83.6662937 156.152512,81.7084412 161.371039,84.5118349 C162.446173,85.089397 163.414851,85.8462116 164.235356,86.7496846 C170.062673,93.1662535 179.583267,94.5866032 187.01707,90.1983984 L187.348513,89.998027 C192.385587,86.8803467 198.996321,88.4363226 202.114001,93.4733964 C202.756314,94.5111469 203.216807,95.6509068 203.475648,96.8435896 C205.316193,105.324411 212.867115,111.319011 221.512177,111.220791 L221.868058,111.213315 C227.789132,111.031862 232.736208,115.684744 232.917661,121.605818 C232.955045,122.825692 232.783963,124.043 232.411785,125.205314 C229.766341,133.467048 233.304629,142.430306 240.834676,146.669761 L241.155217,146.846066 C246.373744,149.64946 248.331596,156.152512 245.528203,161.371039 C244.950641,162.446173 244.193826,163.414851 243.290353,164.235356 C236.873784,170.062673 235.453434,179.583267 239.841639,187.01707 L240.042011,187.348513 C243.159691,192.385587 241.603715,198.996321 236.566641,202.114001 C235.528891,202.756314 234.389131,203.216807 233.196448,203.475648 C224.715627,205.316193 218.721027,212.867115 218.819247,221.512177 L218.826722,221.868058 C219.008176,227.789132 214.355294,232.736208 208.43422,232.917661 C207.214346,232.955045 205.997038,232.783963 204.834724,232.411785 C196.57299,229.766341 187.609732,233.304629 183.370277,240.834676 L183.193971,241.155217 C180.390578,246.373744 173.887526,248.331596 168.668999,245.528203 C167.593865,244.950641 166.625186,244.193826 165.804682,243.290353 C159.977364,236.873784 150.456771,235.453434 143.022968,239.841639 L143.022968,239.841639 Z"/>
      <path id="swirl-6" d="M156.33835,228.362862 L156.056183,228.591873 C152.347409,231.677008 146.839858,231.171449 143.754722,227.462675 C143.119115,226.698584 142.618574,225.831621 142.274655,224.899124 C139.834386,218.282598 133.089279,214.306939 126.144373,215.342193 L125.813528,215.395287 C121.059069,216.212706 116.542169,213.021103 115.72475,208.266643 C115.556344,207.287118 115.556344,206.286035 115.72475,205.306509 C116.919677,198.356295 113.066073,191.54072 106.533981,188.964823 L106.220914,188.845382 C101.694722,187.176057 99.3787732,182.153599 101.048098,177.627406 C101.392016,176.694909 101.892558,175.827946 102.528165,175.063855 C107.032043,169.649549 107.10838,161.834052 102.757176,156.33835 L102.528165,156.056183 C99.44303,152.347409 99.948589,146.839858 103.657363,143.754722 C104.421454,143.119115 105.288417,142.618574 106.220914,142.274655 C112.83744,139.834386 116.813099,133.089279 115.777845,126.144373 L115.72475,125.813528 C114.907332,121.059069 118.098934,116.542169 122.853394,115.72475 C123.83292,115.556344 124.834003,115.556344 125.813528,115.72475 C132.763743,116.919677 139.579318,113.066073 142.155215,106.533981 L142.274655,106.220914 C143.94398,101.694722 148.966439,99.3787732 153.492631,101.048098 C154.425129,101.392016 155.292092,101.892558 156.056183,102.528165 C161.470488,107.032043 169.285986,107.10838 174.781687,102.757176 L175.063855,102.528165 C178.772629,99.44303 184.28018,99.948589 187.365315,103.657363 C188.000922,104.421454 188.501464,105.288417 188.845382,106.220914 C191.285652,112.83744 198.030759,116.813099 204.975665,115.777845 L205.306509,115.72475 C210.060969,114.907332 214.577869,118.098934 215.395287,122.853394 C215.563694,123.83292 215.563694,124.834003 215.395287,125.813528 C214.20036,132.763743 218.053965,139.579318 224.586056,142.155215 L224.899124,142.274655 C229.425316,143.94398 231.741265,148.966439 230.07194,153.492631 C229.728021,154.425129 229.22748,155.292092 228.591873,156.056183 C224.087995,161.470488 224.011658,169.285986 228.362862,174.781687 L228.591873,175.063855 C231.677008,178.772629 231.171449,184.28018 227.462675,187.365315 C226.698584,188.000922 225.831621,188.501464 224.899124,188.845382 C218.282598,191.285652 214.306939,198.030759 215.342193,204.975665 L215.395287,205.306509 C216.212706,210.060969 213.021103,214.577869 208.266643,215.395287 C207.287118,215.563694 206.286035,215.563694 205.306509,215.395287 C198.356295,214.20036 191.54072,218.053965 188.964823,224.586056 L188.845382,224.899124 C187.176057,229.425316 182.153599,231.741265 177.627406,230.07194 C176.694909,229.728021 175.827946,229.22748 175.063855,228.591873 C169.649549,224.087995 161.834052,224.011658 156.33835,228.362862 L156.33835,228.362862 Z"/>
      <path id="swirl-7" d="M165.262152,216.880511 L165.043175,217.115329 C162.419908,220.003858 157.951714,220.218895 155.063185,217.595628 C154.553097,217.132383 154.113982,216.597432 153.75936,216.008081 L153.589152,215.708952 C150.895934,210.695518 145.066295,208.270096 139.630832,209.85914 L139.334764,209.949805 C135.618683,211.139711 131.641595,209.091842 130.451689,205.375761 C130.206542,204.610165 130.093854,203.808345 130.118478,203.004835 C130.292855,197.314651 126.454447,192.297969 120.949858,190.958307 L120.653389,190.890074 C116.840216,190.062522 114.419891,186.300471 115.247443,182.487298 C115.417937,181.701699 115.721256,180.950959 116.144336,180.26741 C119.137471,175.431558 118.32624,169.175404 114.239527,165.262152 L114.004709,165.043175 C111.11618,162.419908 110.901143,157.951714 113.52441,155.063185 C113.987655,154.553097 114.522605,154.113982 115.111957,153.75936 L115.411086,153.589152 C120.42452,150.895934 122.849942,145.066295 121.260898,139.630832 L121.170233,139.334764 C119.980327,135.618683 122.028196,131.641595 125.744277,130.451689 C126.509873,130.206542 127.311693,130.093854 128.115203,130.118478 C133.805387,130.292855 138.822069,126.454447 140.161731,120.949858 L140.229964,120.653389 C141.057515,116.840216 144.819566,114.419891 148.63274,115.247443 C149.418339,115.417937 150.169079,115.721256 150.852627,116.144336 C155.68848,119.137471 161.944634,118.32624 165.857885,114.239527 L166.076863,114.004709 C168.70013,111.11618 173.168324,110.901143 176.056853,113.52441 C176.56694,113.987655 177.006055,114.522605 177.360678,115.111957 L177.530886,115.411086 C180.224103,120.42452 186.053743,122.849942 191.489206,121.260898 L191.785274,121.170233 C195.501354,119.980327 199.478442,122.028196 200.668348,125.744277 C200.913496,126.509873 201.026184,127.311693 201.00156,128.115203 C200.827182,133.805387 204.665591,138.822069 210.17018,140.161731 L210.466649,140.229964 C214.279822,141.057515 216.700147,144.819566 215.872595,148.63274 C215.702101,149.418339 215.398782,150.169079 214.975702,150.852627 C211.982567,155.68848 212.793798,161.944634 216.880511,165.857885 L217.115329,166.076863 C220.003858,168.70013 220.218895,173.168324 217.595628,176.056853 C217.132383,176.56694 216.597432,177.006055 216.008081,177.360678 L215.708952,177.530886 C210.695518,180.224103 208.270096,186.053743 209.85914,191.489206 L209.949805,191.785274 C211.139711,195.501354 209.091842,199.478442 205.375761,200.668348 C204.610165,200.913496 203.808345,201.026184 203.004835,201.00156 C197.314651,200.827182 192.297969,204.665591 190.958307,210.17018 L190.890074,210.466649 C190.062522,214.279822 186.300471,216.700147 182.487298,215.872595 C181.701699,215.702101 180.950959,215.398782 180.26741,214.975702 C175.431558,211.982567 169.175404,212.793798 165.262152,216.880511 L165.262152,216.880511 Z"/>
      <path id="swirl-8" d="M171.17814,207.153119 L171.011809,207.38998 C169.2153,210.029031 165.619569,210.712046 162.980518,208.915538 C162.514487,208.598291 162.097793,208.214865 161.743362,207.777742 L161.571395,207.554763 C158.825575,203.80921 153.844913,202.504923 149.628904,204.389761 L149.366427,204.511723 C146.491079,205.898953 143.035577,204.692597 141.648347,201.817249 C141.362546,201.224863 141.179941,200.588045 141.108397,199.934222 C140.602811,195.313796 136.936003,191.691778 132.337137,191.220845 L132.060105,191.196388 C128.876366,190.960091 126.486991,188.187605 126.723288,185.003865 C126.77197,184.347944 126.932239,183.705141 127.197192,183.103141 C129.068026,178.852414 127.70724,173.886892 123.966919,171.17814 L123.730058,171.011809 C121.091007,169.2153 120.407992,165.619569 122.2045,162.980518 C122.521747,162.514487 122.905172,162.097793 123.342296,161.743362 L123.565275,161.571395 C127.310828,158.825575 128.615114,153.844913 126.730277,149.628904 L126.608315,149.366427 C125.221084,146.491079 126.427441,143.035577 129.302788,141.648347 C129.895175,141.362546 130.531992,141.179941 131.185816,141.108397 C135.806242,140.602811 139.42826,136.936003 139.899193,132.337137 L139.92365,132.060105 C140.159947,128.876366 142.932433,126.486991 146.116172,126.723288 C146.772094,126.77197 147.414897,126.932239 148.016897,127.197192 C152.267623,129.068026 157.233146,127.70724 159.941898,123.966919 L160.108229,123.730058 C161.904738,121.091007 165.500469,120.407992 168.139519,122.2045 C168.605551,122.521747 169.022245,122.905172 169.376676,123.342296 L169.548643,123.565275 C172.294463,127.310828 177.275125,128.615114 181.491133,126.730277 L181.753611,126.608315 C184.628958,125.221084 188.08446,126.427441 189.471691,129.302788 C189.757492,129.895175 189.940097,130.531992 190.011641,131.185816 C190.517227,135.806242 194.184035,139.42826 198.7829,139.899193 L199.059933,139.92365 C202.243672,140.159947 204.633046,142.932433 204.39675,146.116172 C204.348067,146.772094 204.187799,147.414897 203.922846,148.016897 C202.052012,152.267623 203.412798,157.233146 207.153119,159.941898 L207.38998,160.108229 C210.029031,161.904738 210.712046,165.500469 208.915538,168.139519 C208.598291,168.605551 208.214865,169.022245 207.777742,169.376676 L207.554763,169.548643 C203.80921,172.294463 202.504923,177.275125 204.389761,181.491133 L204.511723,181.753611 C205.898953,184.628958 204.692597,188.08446 201.817249,189.471691 C201.224863,189.757492 200.588045,189.940097 199.934222,190.011641 C195.313796,190.517227 191.691778,194.184035 191.220845,198.7829 L191.196388,199.059933 C190.960091,202.243672 188.187605,204.633046 185.003865,204.39675 C184.347944,204.348067 183.705141,204.187799 183.103141,203.922846 C178.852414,202.052012 173.886892,203.412798 171.17814,207.153119 L171.17814,207.153119 Z"/>
    </g>
  </g>
</svg>
