<svg xmlns="http://www.w3.org/2000/svg" width="32" height="32" viewBox="0 0 32 32">
  <path fill="#5D73FF" d="M30.7229376,19.81167 L27.9800805,18.2277666 C28.2569416,16.734004 28.2569416,15.2016097 27.9800805,13.7078471 L30.7229376,12.1239437 C31.0384306,11.943662 31.1800805,11.5702213 31.0770624,11.2225352 C30.3623742,8.93038229 29.1454728,6.85714286 27.5551308,5.13158954 C27.3104628,4.86760563 26.9112676,4.80321932 26.6022133,4.98350101 L23.8593561,6.56740443 C22.706841,5.57585513 21.3804829,4.80965795 19.944668,4.30744467 L19.944668,1.14607646 C19.944668,0.785513078 19.6935614,0.470020121 19.3394366,0.392756539 C16.9764588,-0.135211268 14.5555332,-0.10945674 12.3084507,0.392756539 C11.954326,0.470020121 11.7032193,0.785513078 11.7032193,1.14607646 L11.7032193,4.3138833 C10.2738431,4.82253521 8.94748491,5.58873239 7.78853119,6.57384306 L5.05211268,4.98993964 C4.73661972,4.80965795 4.34386318,4.86760563 4.09919517,5.13802817 C2.50885312,6.85714286 1.29195171,8.93038229 0.577263581,11.2289738 C0.467806841,11.57666 0.615895372,11.9501006 0.93138833,12.1303823 L3.67424547,13.7142857 C3.39738431,15.2080483 3.39738431,16.7404427 3.67424547,18.2342052 L0.93138833,19.8181087 C0.615895372,19.9983903 0.474245473,20.371831 0.577263581,20.7195171 C1.29195171,23.01167 2.50885312,25.0849095 4.09919517,26.8104628 C4.34386318,27.0744467 4.74305835,27.138833 5.05211268,26.9585513 L7.79496982,25.3746479 C8.94748491,26.3661972 10.2738431,27.1323944 11.7096579,27.6346076 L11.7096579,30.8024145 C11.7096579,31.1629779 11.9607646,31.4784708 12.3148893,31.5557344 C14.6778672,32.0837022 17.0987928,32.0579477 19.3458753,31.5557344 C19.7,31.4784708 19.9511066,31.1629779 19.9511066,30.8024145 L19.9511066,27.6346076 C21.3804829,27.1259557 22.706841,26.3597586 23.8657948,25.3746479 L26.6086519,26.9585513 C26.9241449,27.138833 27.3169014,27.0808853 27.5615694,26.8104628 C29.1519115,25.0913481 30.3688129,23.0181087 31.083501,20.7195171 C31.1800805,20.3653924 31.0384306,19.9919517 30.7229376,19.81167 Z M15.8239437,21.1187123 C12.984507,21.1187123 10.6730382,18.8072435 10.6730382,15.9678068 C10.6730382,13.1283702 12.984507,10.8169014 15.8239437,10.8169014 C18.6633803,10.8169014 20.9748491,13.1283702 20.9748491,15.9678068 C20.9748491,18.8072435 18.6633803,21.1187123 15.8239437,21.1187123 Z"/>
</svg>
