<svg xmlns="http://www.w3.org/2000/svg" width="32" height="32" viewBox="0 0 32 32">
  <path fill="#5D73FF" d="M13.5768374,2.58463252 L15.15902,1.00244989 C15.8289532,0.332516704 16.9122494,0.332516704 17.5750557,1.00244989 L31.4298441,14.8501114 C32.0997773,15.5200445 32.0997773,16.6033408 31.4298441,17.266147 L17.5750557,31.1209354 C16.9051225,31.7908686 15.8218263,31.7908686 15.15902,31.1209354 L13.5768374,29.5387528 C12.8997773,28.8616927 12.9140312,27.7570156 13.6053452,27.0942094 L22.1933185,18.9124722 L1.71046771,18.9124722 C0.762583519,18.9124722 0,18.1498886 0,17.2020045 L0,14.9213808 C0,13.9734967 0.762583519,13.2109131 1.71046771,13.2109131 L22.1933185,13.2109131 L13.6053452,5.02917595 C12.9069042,4.36636971 12.8926503,3.26169265 13.5768374,2.58463252 Z"/>
</svg>
