<svg xmlns="http://www.w3.org/2000/svg" width="32" height="32" viewBox="0 0 32 32">
  <path fill="#3D4C61" d="M31.39375,11.925 C31.6375,11.73125 32,11.9125 32,12.21875 L32,25 C32,26.65625 30.65625,28 29,28 L3,28 C1.34375,28 0,26.65625 0,25 L0,12.225 C0,11.9125 0.35625,11.7375 0.60625,11.93125 C2.00625,13.01875 3.8625,14.4 10.2375,19.03125 C11.55625,19.99375 13.78125,22.01875 16,22.00625 C18.23125,22.025 20.5,19.95625 21.76875,19.03125 C28.14375,14.4 29.99375,13.0125 31.39375,11.925 Z M16,20 C17.45,20.025 19.5375,18.175 20.5875,17.4125 C28.88125,11.39375 29.5125,10.86875 31.425,9.36875 C31.7875,9.0875 32,8.65 32,8.1875 L32,7 C32,5.34375 30.65625,4 29,4 L3,4 C1.34375,4 0,5.34375 0,7 L0,8.1875 C0,8.65 0.2125,9.08125 0.575,9.36875 C2.4875,10.8625 3.11875,11.39375 11.4125,17.4125 C12.4625,18.175 14.55,20.025 16,20 Z"/>
</svg>
