<svg xmlns="http://www.w3.org/2000/svg" width="32" height="32" viewBox="0 0 32 32">
  <path fill="#5D73FF" d="M15.5775779,10.4365398 L5.37024221,18.8434602 L5.37024221,27.916955 C5.37024221,28.4061761 5.76683427,28.8027682 6.25605536,28.8027682 L12.4600692,28.7867128 C12.9475598,28.7842753 13.3414594,28.3883963 13.3414533,27.9008997 L13.3414533,22.6020761 C13.3414533,22.112855 13.7380453,21.716263 14.2272664,21.716263 L17.770519,21.716263 C18.2597401,21.716263 18.6563322,22.112855 18.6563322,22.6020761 L18.6563322,27.8970242 C18.6555965,28.1324357 18.7485981,28.3584576 18.9148001,28.5251789 C19.0810021,28.6919003 19.3067327,28.7856067 19.5421453,28.7856055 L25.7439446,28.8027682 C26.2331657,28.8027682 26.6297578,28.4061761 26.6297578,27.916955 L26.6297578,18.8373702 L16.4246367,10.4365398 C16.1774372,10.2372843 15.8247773,10.2372843 15.5775779,10.4365398 Z M31.7010381,16.1505882 L27.0726644,12.3355017 L27.0726644,4.66712803 C27.0726644,4.30021221 26.7752203,4.00276817 26.4083045,4.00276817 L23.3079585,4.00276817 C22.9410427,4.00276817 22.6435986,4.30021221 22.6435986,4.66712803 L22.6435986,8.68705882 L17.6869204,4.60899654 C16.7059225,3.80173535 15.2907557,3.80173535 14.3097578,4.60899654 L0.295640138,16.1505882 C0.159774488,16.2628853 0.0741049004,16.4245724 0.057491178,16.6000549 C0.0408774555,16.7755373 0.0946815893,16.950429 0.207058824,17.0862284 L1.61882353,18.8024913 C1.73089676,18.9387669 1.8925759,19.0248635 2.06820287,19.0417926 C2.24382985,19.0587218 2.4189775,19.0050928 2.5550173,18.8927336 L15.5775779,8.1666436 C15.8247773,7.96738814 16.1774372,7.96738814 16.4246367,8.1666436 L29.4477509,18.8927336 C29.5835502,19.0051108 29.7584419,19.0589149 29.9339244,19.0423012 C30.1094068,19.0256875 30.2710939,18.9400179 30.383391,18.8041522 L31.7951557,17.0878893 C31.9074188,16.9512989 31.9606055,16.7755939 31.9429407,16.5996738 C31.925276,16.4237537 31.838217,16.2621313 31.7010381,16.1505882 L31.7010381,16.1505882 Z"/>
</svg>
