<svg xmlns="http://www.w3.org/2000/svg" width="32" height="32" viewBox="0 0 32 32">
  <path fill="#3D4C61" d="M29,11.9375508 C29,16.8735898 24.9985391,20.875 20.0625,20.875 C19.4927344,20.875 18.9356641,20.8210703 18.3955039,20.7191523 L17.1761445,22.090957 C16.9448649,22.3511486 16.6133539,22.5000125 16.2652305,22.5 L14.375,22.5 L14.375,24.53125 C14.375,25.2043555 13.8293555,25.75 13.15625,25.75 L11.125,25.75 L11.125,27.78125 C11.125,28.4543555 10.5793555,29 9.90625,29 L4.21875,29 C3.54564453,29 3,28.4543555 3,27.78125 L3,23.8173164 C3,23.4940938 3.12842578,23.1840742 3.35694141,22.9555078 L11.5734492,14.739 C11.2828281,13.8577422 11.125,12.9161055 11.125,11.9375 C11.125,7.00146094 15.1264102,3 20.0624492,3 C25.0130625,3 29,6.98688672 29,11.9375508 Z M20.0625,9.5 C20.0625,10.8462109 21.1537891,11.9375 22.5,11.9375 C23.8462109,11.9375 24.9375,10.8462109 24.9375,9.5 C24.9375,8.15378906 23.8462109,7.0625 22.5,7.0625 C21.1537891,7.0625 20.0625,8.15378906 20.0625,9.5 Z"/>
</svg>
